<?xml version="1.0" encoding="utf-8"?>
<!-- Generator: Adobe Illustrator 27.5.0, SVG Export Plug-In . SVG Version: 6.00 Build 0)  -->
<svg version="1.1" xmlns="http://www.w3.org/2000/svg" xmlns:xlink="http://www.w3.org/1999/xlink" x="0px" y="0px"
	 viewBox="0 0 500 500" style="enable-background:new 0 0 500 500;" xml:space="preserve">
<g id="Background_Simple">
	<g>
		<path style="fill:#92E3A9;" d="M495.781,246.004c-5.357,45.368-26.072,98.116-67.443,122.349
			c-62.509,36.62-57.276,92.945-179.287,117.431c-19.023,3.82-37.075,5.427-54.098,5.109c-9.151-0.17-18.009-0.908-26.552-2.165
			C90.856,477.4,38.672,423.499,19.526,358.434c-25.195-85.572,25.113-141.595,58.458-175.348
			c33.345-33.754,57.767-138.925,177.522-163.939c18.26-3.806,36.932-5.748,55.6-5.282c42.608,1.045,89.083,15.037,121.241,44.239
			c2.414,2.194,4.762,4.47,7.052,6.813C484.096,110.794,503.088,184.153,495.781,246.004z"/>
		<path style="opacity:0.7;fill:#FFFFFF;" d="M495.781,246.004c-5.357,45.368-26.072,98.116-67.443,122.349
			c-62.509,36.62-57.276,92.945-179.287,117.431c-19.023,3.82-37.075,5.427-54.098,5.109c-9.151-0.17-18.009-0.908-26.552-2.165
			C90.856,477.4,38.672,423.499,19.526,358.434c-25.195-85.572,25.113-141.595,58.458-175.348
			c33.345-33.754,57.767-138.925,177.522-163.939c18.26-3.806,36.932-5.748,55.6-5.282c42.608,1.045,89.083,15.037,121.241,44.239
			c2.414,2.194,4.762,4.47,7.052,6.813C484.096,110.794,503.088,184.153,495.781,246.004z"/>
	</g>
</g>
<g id="Floor">
	
		<line style="fill:none;stroke:#263238;stroke-linecap:round;stroke-linejoin:round;stroke-miterlimit:10;" x1="493.754" y1="440.291" x2="6.179" y2="440.291"/>
</g>
<g id="Table">
	<g>
		
			<rect x="291.12" y="256.397" style="fill:none;stroke:#263238;stroke-linecap:round;stroke-linejoin:round;stroke-miterlimit:10;" width="195.263" height="6.8"/>
		
			<rect x="296.28" y="263.258" style="fill:none;stroke:#263238;stroke-linecap:round;stroke-linejoin:round;stroke-miterlimit:10;" width="184.942" height="177.033"/>
		
			<rect x="307.592" y="276.88" style="fill:none;stroke:#263238;stroke-linecap:round;stroke-linejoin:round;stroke-miterlimit:10;" width="164.005" height="45.525"/>
		
			<rect x="307.592" y="328.241" style="fill:none;stroke:#263238;stroke-linecap:round;stroke-linejoin:round;stroke-miterlimit:10;" width="164.005" height="45.525"/>
		
			<rect x="307.592" y="379.602" style="fill:none;stroke:#263238;stroke-linecap:round;stroke-linejoin:round;stroke-miterlimit:10;" width="164.005" height="45.524"/>
	</g>
</g>
<g id="Pictures">
	<g>
		<g>
			
				<rect x="366.879" y="45.601" style="fill:none;stroke:#263238;stroke-linecap:round;stroke-linejoin:round;stroke-miterlimit:10;" width="49.376" height="59.122"/>
			
				<rect x="371.786" y="51.477" style="fill:none;stroke:#263238;stroke-linecap:round;stroke-linejoin:round;stroke-miterlimit:10;" width="39.562" height="47.371"/>
		</g>
		<g>
			
				<rect x="372.685" y="164.495" transform="matrix(6.123234e-17 -1 1 6.123234e-17 204.0788 582.9542)" style="fill:none;stroke:#263238;stroke-linecap:round;stroke-linejoin:round;stroke-miterlimit:10;" width="41.663" height="49.886"/>
			
				<rect x="376.826" y="169.453" transform="matrix(6.123234e-17 -1 1 6.123234e-17 204.0787 582.9543)" style="fill:none;stroke:#263238;stroke-linecap:round;stroke-linejoin:round;stroke-miterlimit:10;" width="33.382" height="39.97"/>
		</g>
		<g>
			
				<rect x="422.753" y="90.43" style="fill:none;stroke:#263238;stroke-linecap:round;stroke-linejoin:round;stroke-miterlimit:10;" width="34.726" height="41.58"/>
			
				<rect x="426.204" y="94.562" style="fill:none;stroke:#263238;stroke-linecap:round;stroke-linejoin:round;stroke-miterlimit:10;" width="27.824" height="33.316"/>
		</g>
		<g>
			
				<rect x="325.949" y="90.43" style="fill:none;stroke:#263238;stroke-linecap:round;stroke-linejoin:round;stroke-miterlimit:10;" width="34.726" height="41.58"/>
			
				<rect x="329.4" y="94.562" style="fill:none;stroke:#263238;stroke-linecap:round;stroke-linejoin:round;stroke-miterlimit:10;" width="27.824" height="33.316"/>
		</g>
		<g>
			
				<rect x="374.676" y="116.418" style="fill:none;stroke:#263238;stroke-linecap:round;stroke-linejoin:round;stroke-miterlimit:10;" width="34.726" height="41.58"/>
			
				<rect x="378.127" y="120.55" style="fill:none;stroke:#263238;stroke-linecap:round;stroke-linejoin:round;stroke-miterlimit:10;" width="27.824" height="33.316"/>
		</g>
		<g>
			
				<rect x="423.962" y="141.521" style="fill:none;stroke:#263238;stroke-linecap:round;stroke-linejoin:round;stroke-miterlimit:10;" width="34.726" height="41.58"/>
			
				<rect x="427.413" y="145.654" style="fill:none;stroke:#263238;stroke-linecap:round;stroke-linejoin:round;stroke-miterlimit:10;" width="27.824" height="33.316"/>
		</g>
		<g>
			
				<rect x="327.248" y="141.106" style="fill:none;stroke:#263238;stroke-linecap:round;stroke-linejoin:round;stroke-miterlimit:10;" width="34.726" height="41.58"/>
			
				<rect x="330.699" y="145.238" style="fill:none;stroke:#263238;stroke-linecap:round;stroke-linejoin:round;stroke-miterlimit:10;" width="27.824" height="33.316"/>
		</g>
	</g>
</g>
<g id="Mirror">
	<g>
		
			<rect x="96.251" y="49.736" style="fill:none;stroke:#263238;stroke-linecap:round;stroke-linejoin:round;stroke-miterlimit:10;" width="156.575" height="274.608"/>
		
			<line style="fill:none;stroke:#263238;stroke-linecap:round;stroke-linejoin:round;stroke-miterlimit:10;" x1="124.602" y1="88.493" x2="178.696" y2="142.588"/>
		
			<line style="fill:none;stroke:#263238;stroke-linecap:round;stroke-linejoin:round;stroke-miterlimit:10;" x1="158.672" y1="138.105" x2="177.8" y2="157.232"/>
		
			<line style="fill:none;stroke:#263238;stroke-linecap:round;stroke-linejoin:round;stroke-miterlimit:10;" x1="103.681" y1="199.073" x2="166.443" y2="261.835"/>
		
			<line style="fill:none;stroke:#263238;stroke-linecap:round;stroke-linejoin:round;stroke-miterlimit:10;" x1="118.027" y1="249.88" x2="122.211" y2="254.064"/>
		
			<line style="fill:none;stroke:#263238;stroke-linecap:round;stroke-linejoin:round;stroke-miterlimit:10;" x1="107.865" y1="74.148" x2="116.233" y2="82.516"/>
	</g>
</g>
<g id="Plant">
	<g>
		<g>
			
				<path style="fill:#92E3A9;stroke:#263238;stroke-width:0.75;stroke-linecap:round;stroke-linejoin:round;stroke-miterlimit:10;" d="
				M34.69,294.64c0,0-2.447,6.728-7.646,7.646c-5.199,0.918-14.374-9.175-8.563-14.374C24.291,282.713,32.243,290.97,34.69,294.64z"
				/>
			
				<path style="fill:#92E3A9;stroke:#263238;stroke-width:0.75;stroke-linecap:round;stroke-linejoin:round;stroke-miterlimit:10;" d="
				M42.641,261.61c0,0-7.646,18.656-4.588,27.831c3.058,9.175,22.02,15.903,27.525,3.976c5.505-11.928-6.728-28.749-11.316-32.419
				C49.676,257.328,44.171,258.552,42.641,261.61z"/>
			
				<path style="fill:#92E3A9;stroke:#263238;stroke-width:0.75;stroke-linecap:round;stroke-linejoin:round;stroke-miterlimit:10;" d="
				M87.293,269.562c0,0-13.151,11.927-14.68,23.855c-1.53,11.928,7.34,16.209,16.515,14.68c9.175-1.529,13.763-24.772,11.01-35.477
				C97.386,261.916,87.293,269.562,87.293,269.562z"/>
			<g>
				
					<path style="fill:#92E3A9;stroke:#263238;stroke-width:0.75;stroke-linecap:round;stroke-linejoin:round;stroke-miterlimit:10;" d="
					M89.74,335.622c0,0-14.68,0.612-15.292,7.646c-0.611,7.034,6.423,8.564,13.457,2.447
					C94.939,339.598,95.857,335.928,89.74,335.622z"/>
				<path style="fill:none;stroke:#263238;stroke-width:0.75;stroke-miterlimit:10;" d="M74.691,344.944
					c0,0,11.57-5.293,16.78-6.212"/>
			</g>
			<g>
				
					<path style="fill:#92E3A9;stroke:#263238;stroke-width:0.75;stroke-linecap:round;stroke-linejoin:round;stroke-miterlimit:10;" d="
					M93.013,381.65c0,0-10.783-9.98-16.203-5.455c-5.42,4.525-1.546,10.592,7.751,11.269
					C93.858,388.14,97.108,386.203,93.013,381.65z"/>
				<path style="fill:none;stroke:#263238;stroke-width:0.75;stroke-miterlimit:10;" d="M75.792,377.549
					c0,0,11.91,4.474,16.235,7.521"/>
			</g>
			<g>
				
					<path style="fill:#92E3A9;stroke:#263238;stroke-width:0.75;stroke-linecap:round;stroke-linejoin:round;stroke-miterlimit:10;" d="
					M36.132,378.711c0,0,14.865-13.758,22.336-7.52c7.472,6.238,2.13,14.601-10.685,15.534
					C34.967,387.657,30.487,384.988,36.132,378.711z"/>
				<path style="fill:none;stroke:#263238;stroke-width:0.75;stroke-miterlimit:10;" d="M59.871,373.058
					c0,0-16.418,6.167-22.38,10.367"/>
			</g>
			
				<path style="fill:#92E3A9;stroke:#263238;stroke-width:0.75;stroke-linecap:round;stroke-linejoin:round;stroke-miterlimit:10;" d="
				M53.346,350.302c0,0-1.529,7.34-7.034,10.092c-5.505,2.753-15.292-3.058-10.093-11.927
				C41.418,339.598,50.593,346.632,53.346,350.302z"/>
			
				<path style="fill:#92E3A9;stroke:#263238;stroke-width:0.75;stroke-linecap:round;stroke-linejoin:round;stroke-miterlimit:10;" d="
				M40.501,327.365c0,0-2.753-6.117-13.457-2.141c-10.704,3.976-14.986,10.093-8.258,12.234
				C25.515,339.598,40.501,327.365,40.501,327.365z"/>
			<path style="fill:none;stroke:#263238;stroke-width:0.75;stroke-miterlimit:10;" d="M38.451,327.086
				c0,0-11.339,1.226-17.469,6.436"/>
			
				<path style="fill:#92E3A9;stroke:#263238;stroke-width:0.75;stroke-linecap:round;stroke-linejoin:round;stroke-miterlimit:10;" d="
				M71.084,253.964c0,0,1.835,4.282,5.505,3.364c3.67-0.917,4.587-6.422,10.398-4.893c5.811,1.529,10.704,8.258,10.704,5.199
				c0-3.058-7.34-11.01-15.598-11.01C73.837,246.624,71.39,249.988,71.084,253.964z"/>
			<path style="fill:none;stroke:#263238;stroke-width:0.75;stroke-miterlimit:10;" d="M40.501,327.365
				c0,0,13.169-2.528,18.653,12.096c0.538,1.435,0.992,2.935,1.375,4.475"/>
			
				<path style="fill:#92E3A9;stroke:#263238;stroke-width:0.75;stroke-linecap:round;stroke-linejoin:round;stroke-miterlimit:10;" d="
				M95.461,313.198c0,0,2.752-6.117,13.457-2.141c10.704,3.976,14.986,10.093,8.257,12.234
				C110.447,325.431,95.461,313.198,95.461,313.198z"/>
			<path style="fill:none;stroke:#263238;stroke-width:0.75;stroke-miterlimit:10;" d="M97.907,313.601
				c0,0,11.033-0.613,16.243,5.823"/>
			<path style="fill:none;stroke:#263238;stroke-width:0.75;stroke-miterlimit:10;" d="M95.461,313.198c0,0-4.366-0.838-9.116,1.242
				"/>
			<path style="fill:none;stroke:#263238;stroke-width:0.75;stroke-miterlimit:10;" d="M47.521,302.226
				c-6.455-6.591-12.831-7.586-12.831-7.586s-9.417-2.492-13.095,0.879"/>
			<g>
				
					<line style="fill:none;stroke:#263238;stroke-width:0.75;stroke-miterlimit:10;" x1="48.831" y1="268.348" x2="48.258" y2="265.791"/>
				<path style="fill:none;stroke:#263238;stroke-width:0.75;stroke-miterlimit:10;" d="M63.723,403.554c0,0,1.371-52.669,0-68.664
					c-1.371-15.995-7.769-34.731-7.769-34.731l-6.517-29.103"/>
				
					<line style="fill:none;stroke:#263238;stroke-width:0.75;stroke-miterlimit:10;" x1="90.905" y1="279.656" x2="92.084" y2="277.131"/>
				<path style="fill:none;stroke:#263238;stroke-width:0.75;stroke-miterlimit:10;" d="M66.922,403.496
					c0,0,0.457-48.041,2.285-61.751c1.828-13.71,9.14-35.189,9.14-35.189l11.221-24.037"/>
				<path style="fill:none;stroke:#263238;stroke-width:0.75;stroke-miterlimit:10;" d="M74.691,344.944
					c0,0-3.199,27.542-5.027,58.618"/>
				<path style="fill:none;stroke:#263238;stroke-width:0.75;stroke-miterlimit:10;" d="M59.153,403.496
					c0,0,0.914-43.928-0.914-49.869s-4.894-3.325-4.894-3.325s-8.459,0.995-11.524,5.899"/>
				<path style="fill:none;stroke:#263238;stroke-width:0.75;stroke-miterlimit:10;" d="M61.253,347.358
					c2.391,13.397,0.185,56.184,0.185,56.184"/>
				<path style="fill:none;stroke:#263238;stroke-width:0.75;stroke-miterlimit:10;" d="M83.754,315.876
					c-2.647,1.812-5.19,4.735-6.946,9.417c-5.484,14.624-4.858,78.268-4.858,78.268"/>
				<path style="fill:none;stroke:#263238;stroke-width:0.75;stroke-miterlimit:10;" d="M49.112,303.97
					c2.857,3.354,5.627,7.89,7.756,14.012c7.312,21.022,10.054,75.46,8.683,85.514"/>
				<path style="fill:none;stroke:#263238;stroke-width:0.75;stroke-miterlimit:10;" d="M67.682,323.643
					c-0.445,26.531-0.76,79.853-0.76,79.853"/>
			</g>
			<path style="fill:none;stroke:#263238;stroke-width:0.75;stroke-miterlimit:10;" d="M67.738,320.342
				c0.302-17.543,0.657-34.713,1.012-43.947c0.914-23.764,2.333-22.431,2.333-22.431s1.692-5.335,11.193-4.723"/>
			<g>
				
					<path style="fill:#92E3A9;stroke:#263238;stroke-width:0.75;stroke-linecap:round;stroke-linejoin:round;stroke-miterlimit:10;" d="
					M56.035,340.376c0,0-7.646-6.818-4.588-10.171c3.058-3.353,22.02-5.812,27.525-1.453c5.505,4.359-6.729,10.507-11.316,11.848
					C63.07,341.941,57.564,341.494,56.035,340.376z"/>
				<path style="fill:none;stroke:#263238;stroke-width:0.75;stroke-miterlimit:10;" d="M63.096,334.793
					c-0.107,0.69-0.17,1.376-0.17,2.036"/>
				<path style="fill:none;stroke:#263238;stroke-width:0.75;stroke-miterlimit:10;" d="M65.725,326.833
					c0,0-1.138,2.275-1.962,5.065"/>
			</g>
			<g>
				
					<path style="fill:#92E3A9;stroke:#263238;stroke-width:0.75;stroke-linecap:round;stroke-linejoin:round;stroke-miterlimit:10;" d="
					M56.035,384.956c0,0-7.646-6.818-4.588-10.171c3.058-3.353,22.02-5.812,27.525-1.453c5.505,4.359-6.729,10.507-11.316,11.848
					C63.07,386.521,57.564,386.074,56.035,384.956z"/>
				<path style="fill:none;stroke:#263238;stroke-width:0.75;stroke-miterlimit:10;" d="M65.725,371.413
					c0,0-2.799,5.598-2.799,9.996"/>
			</g>
			<g>
				
					<path style="fill:#92E3A9;stroke:#263238;stroke-width:0.75;stroke-linecap:round;stroke-linejoin:round;stroke-miterlimit:10;" d="
					M61.727,366.102c0,0-5.191-4.629-3.115-6.906c2.077-2.277,14.951-3.946,18.688-0.986c3.738,2.96-4.568,7.133-7.683,8.044
					C66.503,367.164,62.765,366.861,61.727,366.102z"/>
				<path style="fill:none;stroke:#263238;stroke-width:0.75;stroke-miterlimit:10;" d="M68.306,356.907c0,0-1.9,3.801-1.9,6.787"/>
			</g>
		</g>
		
			<rect x="54.546" y="395.913" style="fill:#263238;stroke:#263238;stroke-width:0.75;stroke-linecap:round;stroke-linejoin:round;stroke-miterlimit:10;" width="20.697" height="45.894"/>
	</g>
</g>
<g id="Lamp">
	<g>
		
			<ellipse style="fill:#263238;stroke:#263238;stroke-linecap:round;stroke-linejoin:round;stroke-miterlimit:10;" cx="113.585" cy="447.496" rx="39.885" ry="9.204"/>
		
			<polyline style="fill:none;stroke:#263238;stroke-width:4;stroke-linecap:round;stroke-linejoin:round;stroke-miterlimit:10;" points="
			113.864,443.87 113.66,160.888 219.057,51.975 258.036,103.698 		"/>
		
			<polyline style="fill:none;stroke:#263238;stroke-width:4;stroke-linecap:round;stroke-linejoin:round;stroke-miterlimit:10;" points="
			113.66,160.888 120.656,165.717 222.33,61.151 219.057,51.975 		"/>
		<path style="fill:#263238;stroke:#263238;stroke-linecap:round;stroke-linejoin:round;stroke-miterlimit:10;" d="M120.035,160.174
			c-0.394-3.521-3.568-6.056-7.089-5.661c-3.521,0.394-6.055,3.568-5.661,7.089c0.394,3.521,3.568,6.055,7.089,5.661
			C117.895,166.868,120.429,163.695,120.035,160.174z"/>
		<path style="fill:#263238;stroke:#263238;stroke-linecap:round;stroke-linejoin:round;stroke-miterlimit:10;" d="M227.683,53.815
			c-0.394-3.521-3.568-6.056-7.089-5.661c-3.521,0.394-6.055,3.568-5.661,7.089c0.394,3.521,3.568,6.056,7.089,5.661
			C225.543,60.51,228.077,57.336,227.683,53.815z"/>
		<path style="fill:#263238;stroke:#263238;stroke-linecap:round;stroke-linejoin:round;stroke-miterlimit:10;" d="M261.44,94.975
			l-13.098,9.681l-8.129-10.997c-2.673-3.617-1.909-8.716,1.708-11.39l0,0c3.617-2.673,8.716-1.909,11.389,1.708L261.44,94.975z"/>
		<path style="fill:#263238;stroke:#263238;stroke-linecap:round;stroke-linejoin:round;stroke-miterlimit:10;" d="M279.464,99.621
			c3.398,5.414-8.95,9.001-16.642,13.829c-7.692,4.828-18.042,12.482-21.44,7.068c-3.398-5.414,1.442-21.844,9.134-26.673
			C258.206,89.017,276.065,94.207,279.464,99.621z"/>
		<path style="fill:#FFFFFF;stroke:#263238;stroke-linecap:round;stroke-linejoin:round;stroke-miterlimit:10;" d="M282.211,101.23
			c4.784,7.621-0.115,19.311-10.944,26.108c-10.828,6.798-23.485,6.13-28.27-1.492c-4.784-7.621,0.115-19.31,10.944-26.108
			C264.77,92.941,277.426,93.609,282.211,101.23z"/>
	</g>
</g>
<g id="Characters">
	<g>
		<g>
			<path style="fill:#92E3A9;stroke:#263238;stroke-linecap:round;stroke-linejoin:round;stroke-miterlimit:10;" d="
				M195.004,174.778c0,0-23.875,3.337-36.711,19.767c-12.836,16.43-13.349,28.753-13.863,37.224c-0.514,8.472,0,54.168,0,55.194
				c0,1.027-1.797,13.349-1.284,17.2c0.513,3.851,1.797,2.567,1.797,2.567s-3.337,5.648-3.081,7.445
				c0.257,1.797,5.904,10.525,5.904,10.525s25.159-18.227,28.496-19.254c3.337-1.027,17.457,0,17.457,0l24.902-1.284
				c0,0,0.513-17.457,0.513-20.281c0-2.824,6.418-36.454,6.418-36.454l3.081-1.797c0,0,20.538,2.311,25.929,0.513
				c5.391-1.797,11.039-14.633,11.039-14.633s-7.188-11.296-11.039-14.633c-3.851-3.337-4.621-4.364-5.648-6.161
				c-1.027-1.797-2.31-5.134-9.242-13.349C232.742,189.154,214.258,174.008,195.004,174.778z"/>
			<path style="fill:none;stroke:#263238;stroke-linecap:round;stroke-linejoin:round;stroke-miterlimit:10;" d="M185.959,301.702
				c4.071-0.166,6.893-0.166,6.893-0.166"/>
			<path style="fill:none;stroke:#263238;stroke-linecap:round;stroke-linejoin:round;stroke-miterlimit:10;" d="M148.62,306.768
				c0,0,4.474,0.37,15.078-2.431c4.689-1.239,10.932-1.929,16.438-2.315"/>
			<path style="fill:none;stroke:#263238;stroke-linecap:round;stroke-linejoin:round;stroke-miterlimit:10;" d="M145.766,315.329
				c0,0,7.61-5.232,16.171-7.61"/>
		</g>
		<path style="fill:#263238;stroke:#263238;stroke-linecap:round;stroke-linejoin:round;stroke-miterlimit:10;" d="M274.534,207.606
			c-3.183-0.562-4.493,1.311-4.68,2.247s-0.936,2.06-0.936,2.06l-2.059,1.686c0,0-4.306,1.686-4.306,3.558
			c0,0-4.119,0.749-3.932,2.997c0.187,2.247,5.055,5.057,5.055,5.057l1.476-1.88c0.007,0.001,0.015,0.007,0.022,0.007
			c0.562,0,10.304-8.764,10.304-8.764l2.24-4.346C277.717,210.228,277.717,208.168,274.534,207.606z"/>
		<path style="fill:#FFFFFF;stroke:#263238;stroke-linecap:round;stroke-linejoin:round;stroke-miterlimit:10;" d="M209.547,169.583
			c0,0-6.424-3.504-7.787-2.92c-1.363,0.584-8.177,5.646-8.177,5.646s-1.363,8.177-0.779,20.247
			c0.584,12.07,4.088,20.831,4.088,20.831l12.654-5.646l4.283-0.389l8.371,7.787c0,0,2.725-11.876,2.336-13.822
			C224.148,199.369,209.547,169.583,209.547,169.583z"/>
		<g>
			<path style="fill:#FFFFFF;stroke:#263238;stroke-linecap:round;stroke-linejoin:round;stroke-miterlimit:10;" d="
				M260.359,176.786c0,0-2.336,6.035-3.31,7.008c-0.973,0.973-5.256,2.92-5.256,2.92s-1.752,10.707-2.531,12.654
				c-0.779,1.947-7.593,0.389-7.593,0.389s-6.619,7.203-7.203,8.371c-0.584,1.168-2.92,0.195-6.23-1.558
				c-3.31-1.752-5.84-3.699-5.84-3.699l-10.513,12.654c0,0-3.894-11.291-6.23-22.388c-2.336-11.097-2.531-19.857-2.531-19.857
				s5.256-4.088,5.646-5.451c0.389-1.363,3.894-14.406,3.894-14.406s11.876-0.779,28.813,5.062
				C258.412,164.327,260.943,174.255,260.359,176.786z"/>
			<path style="fill:#263238;stroke:#263238;stroke-linecap:round;stroke-linejoin:round;stroke-miterlimit:10;" d="
				M259.777,172.932c-1.567-4.157-6.338-10.32-18.303-14.445c-16.937-5.84-28.813-5.062-28.813-5.062s-3.504,13.044-3.894,14.406
				c-0.054,0.189-0.209,0.435-0.424,0.712c0.427,0.362,0.84,0.718,1.203,1.04c1.752,1.557,4.867,1.557,5.451,0.779
				c0.584-0.779,4.672-3.31,7.787-5.062c3.115-1.752,7.592,1.558,7.592,1.558s4.672,4.088,6.035,3.31
				c1.363-0.779,1.168-1.168,2.726-1.752c1.557-0.584,3.894-1.557,3.894-1.557L259.777,172.932z"/>
			<g>
				<path style="fill:#92E3A9;stroke:#263238;stroke-linecap:round;stroke-linejoin:round;stroke-miterlimit:10;" d="
					M211.299,155.761c0,0,16.548,5.062,29.786,11.486c13.238,6.424,24.14,16.353,27.645,18.105c3.504,1.752,3.31-2.531,0-6.424
					c-3.309-3.894-6.424-6.035-10.902-7.982c-4.478-1.947-23.751-9.734-25.308-10.318c-1.557-0.584-18.884-7.008-19.857-7.203
					C211.688,153.23,210.715,153.814,211.299,155.761z"/>
				<path style="fill:#92E3A9;stroke:#263238;stroke-linecap:round;stroke-linejoin:round;stroke-miterlimit:10;" d="
					M263.668,173.671c0,0,1.557,1.168,4.088-0.584c2.531-1.752,3.894-3.894,2.531-7.592c-1.363-3.699-10.123-11.876-10.123-11.876
					s-6.035-12.265-16.937-18.3c-10.902-6.035-19.857-2.531-23.167,0.973c-3.31,3.504-13.238,9.539-11.681,14.212
					c1.557,4.672,6.619,3.115,6.619,3.115l15.575,6.814L263.668,173.671z"/>
				
					<line style="fill:none;stroke:#263238;stroke-linecap:round;stroke-linejoin:round;stroke-miterlimit:10;" x1="238.749" y1="163.742" x2="258.023" y2="167.441"/>
			</g>
			<g>
				<path style="fill:#FFFFFF;stroke:#263238;stroke-linecap:round;stroke-linejoin:round;stroke-miterlimit:10;" d="
					M232.325,170.556c0,0,0-8.177-3.115-9.734c-3.115-1.557-9.345,0.584-9.734,4.088c-0.389,3.504-1.947,7.203-1.947,7.203
					s-3.699,5.062-2.336,7.787c1.363,2.726,4.088,4.672,7.398,3.115c3.309-1.557,3.115-3.504,3.115-3.504"/>
				
					<circle style="fill:#263238;stroke:#263238;stroke-linecap:round;stroke-linejoin:round;stroke-miterlimit:10;" cx="221.228" cy="177.37" r="2.92"/>
			</g>
			<polygon style="fill:#263238;stroke:#263238;stroke-linecap:round;stroke-linejoin:round;stroke-miterlimit:10;" points="
				222.396,202.873 216.556,198.396 215.777,209.882 			"/>
			<path style="fill:none;stroke:#263238;stroke-linecap:round;stroke-linejoin:round;stroke-miterlimit:10;" d="M252.572,181.848
				c0,0-0.779-4.283-5.84-4.672"/>
			<path style="fill:#263238;" d="M247.597,186.081c-1.137,1.066-2.447,1.518-2.925,1.008c-0.478-0.51,0.057-1.788,1.194-2.854
				c1.137-1.066,2.447-1.518,2.925-1.008C249.268,183.736,248.734,185.014,247.597,186.081z"/>
			<path style="fill:none;stroke:#263238;stroke-linecap:round;stroke-linejoin:round;stroke-miterlimit:10;" d="M237.776,199.369"
				/>
			<path style="fill:none;stroke:#263238;stroke-linecap:round;stroke-linejoin:round;stroke-miterlimit:10;" d="M239.333,200.537
				c0,0-3.699-1.752-4.478-5.84"/>
		</g>
	</g>
	<g>
		<g>
			<g>
				
					<rect x="379.479" y="353.063" style="fill:#FFFFFF;stroke:#263238;stroke-linecap:round;stroke-linejoin:round;stroke-miterlimit:10;" width="4.982" height="44.252"/>
				
					<rect x="377.428" y="381.783" style="fill:#263238;stroke:#263238;stroke-linecap:round;stroke-linejoin:round;stroke-miterlimit:10;" width="9.378" height="48.942"/>
				
					<rect x="377.734" y="439.12" style="fill:#263238;stroke:#263238;stroke-linecap:round;stroke-linejoin:round;stroke-miterlimit:10;" width="9.208" height="14.54"/>
				<g>
					
						<ellipse transform="matrix(0.9147 -0.4042 0.4042 0.9147 -143.4746 214.1255)" style="fill:#263238;stroke:#263238;stroke-linecap:round;stroke-linejoin:round;stroke-miterlimit:10;" cx="435.407" cy="446.874" rx="7.754" ry="7.754"/>
					<path style="fill:#FFFFFF;stroke:#263238;stroke-linecap:round;stroke-linejoin:round;stroke-miterlimit:10;" d="
						M439.042,446.874c0,2.008-1.627,3.635-3.635,3.635c-2.007,0-3.635-1.627-3.635-3.635c0-2.008,1.627-3.635,3.635-3.635
						C437.414,443.239,439.042,444.867,439.042,446.874z"/>
				</g>
				<g>
					
						<ellipse transform="matrix(0.7754 -0.6315 0.6315 0.7754 -208.5071 307.5292)" style="fill:#FFFFFF;stroke:#263238;stroke-linecap:round;stroke-linejoin:round;stroke-miterlimit:10;" cx="328.057" cy="446.874" rx="7.754" ry="7.754"/>
					<path style="fill:#FFFFFF;stroke:#263238;stroke-linecap:round;stroke-linejoin:round;stroke-miterlimit:10;" d="
						M331.692,446.874c0,2.008-1.627,3.635-3.635,3.635c-2.008,0-3.635-1.627-3.635-3.635c0-2.008,1.627-3.635,3.635-3.635
						C330.064,443.239,331.692,444.867,331.692,446.874z"/>
				</g>
				<polygon style="fill:#263238;stroke:#263238;stroke-linecap:round;stroke-linejoin:round;stroke-miterlimit:10;" points="
					385.73,428.7 381.853,427.246 377.976,428.7 321.029,438.878 321.029,443.239 324.664,443.239 327.33,441.058 380.157,435.658 
					380.157,442.997 384.761,442.997 384.761,435.782 436.376,441.058 439.042,443.239 442.677,443.239 442.677,438.878 				"/>
			</g>
			<g>
				
					<line style="fill:none;stroke:#263238;stroke-width:6;stroke-linecap:round;stroke-linejoin:round;stroke-miterlimit:10;" x1="410.97" y1="283.906" x2="402.171" y2="331.076"/>
				<path style="fill:#878787;stroke:#263238;stroke-linecap:round;stroke-linejoin:round;stroke-miterlimit:10;" d="
					M427.228,287.083H404.69c-3.973,0-6.966-3.614-6.227-7.518l9.179-48.426c0.567-2.992,3.182-5.157,6.227-5.157h22.538
					c3.973,0,6.966,3.614,6.227,7.518l-9.179,48.426C432.888,284.918,430.273,287.083,427.228,287.083z"/>
				<path style="fill:#878787;stroke:#263238;stroke-linecap:round;stroke-linejoin:round;stroke-miterlimit:10;" d="
					M418.749,287.083h-22.538c-3.973,0-6.966-3.614-6.226-7.518l9.179-48.426c0.567-2.992,3.182-5.157,6.227-5.157h22.538
					c3.973,0,6.967,3.614,6.227,7.518l-9.179,48.426C424.409,284.918,421.794,287.083,418.749,287.083z"/>
				<g>
					<path style="fill:#878787;stroke:#263238;stroke-linecap:round;stroke-linejoin:round;stroke-miterlimit:10;" d="
						M386.562,327.545c0,0,15.217,0.439,19.782-0.439s12.427-1.096,12.174,5.921c-0.254,7.017-6.848,23.245-15.978,29.824
						c-9.13,6.579-43.115,6.579-43.115,6.579h-24.484c-14.192,0-24.089-14.33-18.788-27.496c0.051-0.128,0.104-0.255,0.157-0.382
						c5.326-12.719,24.094-7.867,41.593-11.156C375.403,327.106,386.562,327.545,386.562,327.545z"/>
					<path style="fill:none;stroke:#263238;stroke-linecap:round;stroke-linejoin:round;stroke-miterlimit:10;" d="M409.066,329.825
						c0,0-8.04,6.348-25.391,6.771c-17.351,0.423-55.438,0.423-57.977,13.119"/>
				</g>
			</g>
		</g>
		<g>
			
				<rect x="264.391" y="279.151" transform="matrix(-1 -1.224647e-16 1.224647e-16 -1 533.7637 676.467)" style="fill:#263238;stroke:#263238;stroke-linecap:round;stroke-linejoin:round;stroke-miterlimit:10;" width="4.982" height="118.164"/>
			
				<rect x="262.046" y="381.783" transform="matrix(-1 -1.224647e-16 1.224647e-16 -1 533.4706 812.5079)" style="fill:#263238;stroke:#263238;stroke-linecap:round;stroke-linejoin:round;stroke-miterlimit:10;" width="9.378" height="48.942"/>
			
				<rect x="261.91" y="439.12" transform="matrix(-1 -1.224647e-16 1.224647e-16 -1 533.0284 892.7792)" style="fill:#263238;stroke:#263238;stroke-linecap:round;stroke-linejoin:round;stroke-miterlimit:10;" width="9.208" height="14.54"/>
			<g>
				
					<ellipse transform="matrix(0.4109 -0.9117 0.9117 0.4109 -281.6661 457.8469)" style="fill:#263238;stroke:#263238;stroke-linecap:round;stroke-linejoin:round;stroke-miterlimit:10;" cx="213.445" cy="446.874" rx="7.754" ry="7.754"/>
				<path style="fill:#FFFFFF;stroke:#263238;stroke-linecap:round;stroke-linejoin:round;stroke-miterlimit:10;" d="
					M209.81,446.874c0,2.008,1.628,3.635,3.635,3.635c2.008,0,3.635-1.627,3.635-3.635c0-2.008-1.627-3.635-3.635-3.635
					C211.438,443.239,209.81,444.867,209.81,446.874z"/>
			</g>
			<g>
				
					<ellipse transform="matrix(0.9731 -0.2305 0.2305 0.9731 -94.3733 85.9847)" style="fill:#263238;stroke:#263238;stroke-linecap:round;stroke-linejoin:round;stroke-miterlimit:10;" cx="320.795" cy="446.874" rx="7.754" ry="7.754"/>
				<path style="fill:#FFFFFF;stroke:#263238;stroke-linecap:round;stroke-linejoin:round;stroke-miterlimit:10;" d="
					M317.16,446.874c0,2.008,1.627,3.635,3.635,3.635c2.008,0,3.635-1.627,3.635-3.635c0-2.008-1.627-3.635-3.635-3.635
					C318.788,443.239,317.16,444.867,317.16,446.874z"/>
			</g>
			<polygon style="fill:#263238;stroke:#263238;stroke-linecap:round;stroke-linejoin:round;stroke-miterlimit:10;" points="
				263.122,428.7 266.999,427.246 270.876,428.7 327.822,438.878 327.822,443.239 324.188,443.239 321.522,441.058 268.695,435.658 
				268.695,442.997 264.091,442.997 264.091,435.782 212.476,441.058 209.81,443.239 206.175,443.239 206.175,438.878 			"/>
		</g>
		<path style="fill:#263238;stroke:#263238;stroke-linecap:round;stroke-linejoin:round;stroke-miterlimit:10;" d="M322.959,293.633
			l-1.74,2.706c0,0-12.37,3.479-27.64,15.656c-15.27,12.177-28.027,26.674-29.573,32.472c-1.546,5.799,3.093,16.429,5.219,20.875
			c2.126,4.446,22.808,26.674,29.186,32.086c6.379,5.412,29.96,23.968,30.733,24.354c0.773,0.387,20.488,14.69,20.488,14.69
			s-0.193,10.631-2.899,13.917c-2.706,3.286-8.311,6.378-7.925,8.505c0.387,2.126,12.564,2.513,16.236,1.353
			c3.673-1.16,8.311-2.706,9.471-4.252c1.16-1.546,8.698-17.202,10.438-20.295c1.74-3.093,3.093-6.765,1.933-10.631
			c-1.16-3.866-6.572-5.412-8.311-5.992c-1.74-0.58-5.412-1.74-5.992-2.126c-0.58-0.387-27.64-21.455-28.606-23.194
			c-0.966-1.74-18.942-19.909-20.682-22.035c-1.74-2.126-12.564-19.135-12.564-19.135s15.27-10.824,25.32-15.656
			c10.051-4.832,37.498-2.513,46.002-5.605c8.505-3.093,20.488-6.379,22.035-15.463c1.546-9.084-0.387-23.968-0.387-23.968
			l-70.743-0.193L322.959,293.633z"/>
		<g>
			<path style="fill:#92E3A9;stroke:#263238;stroke-linecap:round;stroke-linejoin:round;stroke-miterlimit:10;" d="
				M339.582,440.144c0,0-4.252,5.412-5.219,7.538c-0.966,2.126-4.832,5.992-9.471,8.505c-4.639,2.513-8.311,4.252-7.925,7.538
				c0.387,3.286,6.958,5.026,13.917,5.799c6.958,0.773,23.194-2.319,26.674-4.445c3.479-2.126,5.412-0.966,6.185-5.025
				c0.773-4.059-0.58-7.538-0.58-7.538S352.919,438.018,339.582,440.144z"/>
			<path style="fill:#FFFFFF;stroke:#263238;stroke-linecap:round;stroke-linejoin:round;stroke-miterlimit:10;" d="
				M336.296,464.884c-11.327,0.43-17.013-1.585-19.196-2.655c-0.14,0.465-0.196,0.958-0.132,1.495
				c0.387,3.286,6.958,5.026,13.917,5.799c6.958,0.773,23.194-2.319,26.674-4.446c3.479-2.126,5.412-0.966,6.185-5.025
				c0.128-0.671,0.193-1.322,0.22-1.948C358.747,460.298,347.631,464.454,336.296,464.884z"/>
		</g>
		<path style="fill:#263238;stroke:#263238;stroke-linecap:round;stroke-linejoin:round;stroke-miterlimit:10;" d="M349.826,308.129
			c0,0-9.085,3.672-20.295,11.017s-10.824,14.69-10.438,19.715c0.387,5.025,15.849,73.256,16.816,78.088
			c0.966,4.832,2.706,14.303,2.706,14.303s-1.353,0.58-1.353,2.126s1.353,9.085,1.353,9.085s5.219-0.193,11.404,1.546
			c6.185,1.74,13.143,8.505,13.143,8.505s1.933-4.059,2.706-8.505c0.773-4.446-0.966-9.858-1.74-11.017
			c-0.773-1.16-2.126-4.252-2.126-4.252s-1.546-31.119-1.74-38.271c-0.193-7.152,2.899-23.774,0.966-32.086
			c-1.933-8.311-5.025-22.615-5.025-22.615s23.001,1.16,32.472-4.446c9.471-5.605,8.891-15.076,7.538-24.354
			c-1.353-9.278-3.866-15.27-3.866-15.27l-28.22,2.319"/>
		<g>
			<path style="fill:#878787;stroke:#263238;stroke-linecap:round;stroke-linejoin:round;stroke-miterlimit:10;" d="M303.37,274.24
				h-66.09c-3.298,0-5.971-2.673-5.971-5.971l0,0c0-3.298,2.673-5.971,5.971-5.971h66.09c3.298,0,5.971,2.673,5.971,5.971l0,0
				C309.342,271.566,306.668,274.24,303.37,274.24z"/>
			
				<rect x="234.331" y="273.265" style="fill:#263238;stroke:#263238;stroke-linecap:round;stroke-linejoin:round;stroke-miterlimit:10;" width="72.813" height="7.144"/>
		</g>
		<g>
			<path style="fill:#FFFFFF;stroke:#263238;stroke-linecap:round;stroke-linejoin:round;stroke-miterlimit:10;" d="M300.925,192.93
				c0,0-12.95,2.899-18.749,10.244c-5.799,7.345-7.925,12.177-7.925,12.177s-7.925,5.412-12.95,11.597
				c-5.026,6.185-14.497,17.589-16.236,21.648c-1.74,4.059-4.639,6.185-3.672,9.664c0.966,3.479,39.43,15.463,42.137,15.85
				c2.706,0.387,12.757,2.513,12.757,2.513s1.74,12.37,2.706,15.27c0.966,2.899,3.866,5.412,3.866,5.412s-2.126,0.58-2.126,1.74
				s0.966,2.899,2.319,3.093c1.353,0.193,3.286,0.387,4.252,0c0.966-0.387,7.538-3.093,8.698-3.866
				c1.16-0.773,2.513-1.933,2.319-5.219c-0.193-3.286-6.185-16.816-8.505-20.295c-2.319-3.479-3.866-5.026-5.025-5.605
				c-1.16-0.58-26.867-17.782-26.867-17.782s12.95-4.832,15.85-9.858c2.899-5.026,3.866-6.185,3.866-6.185
				s6.572,13.723,13.143,19.909c6.572,6.185,14.303,18.942,14.303,18.942s0.773,9.858-0.193,13.143
				c-0.966,3.286-1.933,8.311-1.933,8.311s24.161,0.387,38.078,0.387c13.917,0,32.665-2.126,32.665-2.126s-2.899-37.304-3.093-41.17
				c-0.193-3.866-2.706-35.178-5.219-43.296c-2.513-8.118-6.765-12.95-16.043-17.009c-9.278-4.059-29.573-4.832-29.573-4.832
				L300.925,192.93z"/>
			
				<line style="fill:none;stroke:#263238;stroke-linecap:round;stroke-linejoin:round;stroke-miterlimit:10;" x1="342.054" y1="204.749" x2="350.02" y2="200.275"/>
			
				<line style="fill:none;stroke:#263238;stroke-linecap:round;stroke-linejoin:round;stroke-miterlimit:10;" x1="335.91" y1="208.2" x2="338.674" y2="206.647"/>
			<path style="fill:none;stroke:#263238;stroke-linecap:round;stroke-linejoin:round;stroke-miterlimit:10;" d="M297.639,233.327
				c0,0-3.286-6.572-6.572-9.471"/>
			<path style="fill:none;stroke:#263238;stroke-linecap:round;stroke-linejoin:round;stroke-miterlimit:10;" d="M302.857,297.305
				c0,0,0.104,2.113,1.47,2.503"/>
			<path style="fill:none;stroke:#263238;stroke-linecap:round;stroke-linejoin:round;stroke-miterlimit:10;" d="M266.326,239.706
				c0,0,8.505,3.672,11.597,9.664"/>
		</g>
		<g>
			<path style="fill:#92E3A9;stroke:#263238;stroke-linecap:round;stroke-linejoin:round;stroke-miterlimit:10;" d="
				M393.702,291.893c0,0-2.899-37.304-3.093-41.17c-0.065-1.309-0.397-5.768-0.905-11.404c-4.866-1.836-11.451-4.946-16.491-9.664
				c-9.085-8.505-14.303-23.194-14.69-31.506c-0.273-5.864-0.353-9.217-0.376-10.689c-2.533-0.429-5.1-0.765-7.486-1.026
				c1.347,4.591,4.907,19.399-1.222,30.851c-7.345,13.723-17.589,17.396-25.707,12.757c-8.118-4.639-17.009-21.262-17.589-27.64
				c-0.343-3.776-0.821-7.676-1.154-10.239l-3.592,0.679c-0.623,4.616-1.912,16.549-0.859,30.242
				c0.614,7.984,1.586,14.846,2.465,19.967c2.271,3.676,5.024,7.593,7.779,10.186c6.572,6.185,14.303,18.942,14.303,18.942
				s0.773,9.858-0.193,13.143c-0.966,3.286-1.933,8.311-1.933,8.311s24.161,0.387,38.077,0.387
				C374.953,294.019,393.702,291.893,393.702,291.893z"/>
			<path style="fill:none;stroke:#263238;stroke-linecap:round;stroke-linejoin:round;stroke-miterlimit:10;" d="M348.24,268.852
				c7.172,3.791,17.077,8.67,23.441,10.33"/>
			<path style="fill:none;stroke:#263238;stroke-linecap:round;stroke-linejoin:round;stroke-miterlimit:10;" d="M339.339,263.963
				c0,0,2.353,1.36,5.898,3.281"/>
			<path style="fill:none;stroke:#263238;stroke-linecap:round;stroke-linejoin:round;stroke-miterlimit:10;" d="M372.778,285.177
				c2.108,0.355,4.008,0.593,5.561,0.664"/>
			<path style="fill:none;stroke:#263238;stroke-linecap:round;stroke-linejoin:round;stroke-miterlimit:10;" d="M341.717,277.28
				c0,0,14.771,4.566,26.554,7.037"/>
		</g>
		<g>
			<path style="fill:#FFFFFF;stroke:#263238;stroke-linecap:round;stroke-linejoin:round;stroke-miterlimit:10;" d="
				M320.031,208.975c-3.691-2.181-12.976-11.948-12.976-11.948s-2.221,1.692-6.49,3.043s-4.93-4.824-4.93-4.824l-6.448-9.079
				c0,0-1.813,0.482-4.014,0.321c-2.201-0.161-2.949-13.735-2.949-13.735s-0.89-0.602-2.348-2.001
				c-1.458-1.398-3.819-16.19-3.819-16.19s-0.087-3.191,1.298-4.817s23.25-18.69,32.382-16.054
				c9.132,2.637,17.392,28.067,18.107,30.703c0.716,2.636,5.512,14.204,6.207,14.485c0.696,0.281,7.342,5.559,14.222,7.908"/>
			<path style="fill:#263238;stroke:#263238;stroke-linecap:round;stroke-linejoin:round;stroke-miterlimit:10;" d="
				M283.612,133.254c0,0-6.45,3.545-8.611,8.094c-2.161,4.549-4.617,5.419-7.139,9.66c-2.522,4.241,4.569,0.308,4.569,0.308
				s-4.65,7.105-2.356,8.436c2.295,1.332,9.788-6,9.788-6s-0.562,1.391,2.087,0.843c2.649-0.548,9.996-5.512,9.996-5.512
				s0.327,10.41,1.846,10.457c1.519,0.047,8.062,1.881,8.062,1.881l7.03,10.043c0,0,3.559-1.799,3.686-2.314
				c0.127-0.515-2.829-8.022-2.488-10.069c0.341-2.047,4.503-4.736,6.67-2.89c2.167,1.847,4.355,6.048,4.555,8.557
				s2.388,6.71,2.455,7.547c0.067,0.836-2.008,4.368-2.008,4.368s3.271,0.917,6.189-0.495c2.917-1.411,4.931-7.8,4.931-7.8
				s1.097,1.091,1.137,1.592c0.04,0.502-0.094-1.171,0.917-3.271c1.01-2.101,1.138-2.616-0.107-5.546
				c-1.244-2.93-7.191-7.842-7.191-7.842s0.275-7.091-2.521-12.591c-2.796-5.499-9.693-9.661-13.854-11.18
				c-4.161-1.519-10.116-0.202-10.116-0.202S288.296,128.671,283.612,133.254z"/>
			<path style="fill:none;stroke:#263238;stroke-linecap:round;stroke-linejoin:round;stroke-miterlimit:10;" d="M293.188,185.679
				c0,0,3.305-0.769,5.299-5.305"/>
			<path style="fill:none;stroke:#263238;stroke-linecap:round;stroke-linejoin:round;stroke-miterlimit:10;" d="M283.81,169.427
				c0,0,1.171-4.302,5.587-3.813"/>
			<path style="fill:#263238;" d="M288.549,172.059c0.776,0.981,1.022,2.08,0.55,2.453c-0.473,0.374-1.484-0.119-2.26-1.1
				c-0.776-0.981-1.022-2.08-0.549-2.453C286.761,170.586,287.773,171.078,288.549,172.059z"/>
			<path style="fill:#263238;" d="M311.231,190.296c0.776-2.923-2.381-4.523-4.268-2.857c-1.887,1.666-6.577,4.06-7.413,4.127
				c-0.836,0.067-2.294-1.332-4.148-1.352c-1.853-0.02-2.094,1.177-2.094,1.177l-0.063,0.488l2.391,3.366
				c0,0,0.662,6.175,4.93,4.824c4.268-1.351,6.49-3.044,6.49-3.044S310.455,193.22,311.231,190.296z"/>
			<path style="fill:none;stroke:#263238;stroke-linecap:round;stroke-linejoin:round;stroke-miterlimit:10;" d="M321.309,164.747
				c0,0-0.527,3.952-1.267,4.399c-0.74,0.447-1.834,1.31-1.834,1.31s0.292,3.661,0.169,6.967c-0.124,3.306-3.515,9.394-3.515,9.394"
				/>
		</g>
		<path style="fill:none;stroke:#263238;stroke-linecap:round;stroke-linejoin:round;stroke-miterlimit:10;" d="M340.742,312.575
			c0,0-2.126-4.059-7.731-8.505"/>
		<g style="opacity:0.28;">
			<path d="M285.165,244.127c0.201-1.31,0.376-2.634,0.523-3.97c0.064-0.567-0.45-1.171-1.019-1.2
				c-1.341-0.07-2.674-0.111-3.997-0.123c0.108-1.319,0.188-2.649,0.24-3.989c0.023-0.568-0.531-1.133-1.102-1.121
				c-1.34,0.029-2.669,0.087-3.988,0.173c0.013-1.322-0.003-2.653-0.047-3.993c-0.018-0.569-0.611-1.091-1.178-1.037
				c-1.335,0.126-2.658,0.279-3.967,0.46c-0.082-1.319-0.193-2.646-0.334-3.979c-0.06-0.569-0.69-1.046-1.251-0.95
				c-1.322,0.222-2.629,0.471-3.922,0.746c-0.025-0.182-0.061-0.367-0.087-0.549c-0.579,0.586-1.148,1.188-1.692,1.803
				c0.084,0.543,0.677,0.959,1.215,0.844c1.279-0.276,2.573-0.525,3.881-0.749c0.136,1.32,0.243,2.634,0.321,3.94
				c0.017,0.277,0.153,0.54,0.374,0.721c0.221,0.181,0.505,0.262,0.78,0.223c1.296-0.182,2.606-0.338,3.927-0.466
				c0.041,1.327,0.053,2.646,0.036,3.955c-0.006,0.555,0.529,1.063,1.084,1.025c1.305-0.089,2.622-0.149,3.949-0.181
				c-0.055,1.327-0.138,2.643-0.248,3.948c-0.023,0.277,0.074,0.556,0.267,0.768c0.193,0.211,0.463,0.333,0.741,0.335
				c1.31,0.008,2.63,0.045,3.959,0.112c-0.149,1.322-0.325,2.631-0.528,3.928c-0.043,0.275,0.034,0.561,0.211,0.786c0,0,0,0,0,0
				c0.096,0.122,0.219,0.213,0.353,0.281c0.968-0.48,1.978-1.014,2.964-1.586C286.142,244.234,285.651,244.168,285.165,244.127z"/>
			<path d="M289.377,240.806c0.17-1.35,0.313-2.713,0.427-4.088c0.05-0.584-0.491-1.22-1.075-1.265
				c-1.374-0.109-2.74-0.187-4.098-0.236c0.074-1.356,0.119-2.723,0.136-4.1c0.008-0.583-0.575-1.179-1.162-1.182
				c-1.376-0.007-2.741,0.016-4.096,0.068c-0.024-1.357-0.076-2.722-0.159-4.096c-0.034-0.584-0.659-1.134-1.242-1.094
				c-1.373,0.093-2.734,0.214-4.083,0.362c-0.121-1.351-0.272-2.709-0.452-4.073c-0.077-0.582-0.741-1.085-1.319-1.001
				c-0.945,0.133-1.874,0.296-2.806,0.456c-0.795,0.664-1.631,1.394-2.477,2.172c0.22,0.124,0.469,0.196,0.709,0.152
				c1.32-0.246,2.655-0.466,4.003-0.659c0.177,1.351,0.323,2.695,0.44,4.034c0.025,0.284,0.173,0.556,0.407,0.748
				c0.234,0.191,0.53,0.282,0.813,0.251c1.335-0.15,2.683-0.273,4.042-0.367c0.079,1.36,0.128,2.713,0.148,4.056
				c0.009,0.57,0.575,1.106,1.146,1.084c1.342-0.054,2.694-0.079,4.056-0.075c-0.019,1.363-0.067,2.716-0.143,4.058
				c-0.016,0.285,0.091,0.576,0.296,0.799c0.204,0.223,0.484,0.357,0.77,0.367c1.345,0.046,2.698,0.121,4.059,0.226
				c-0.116,1.36-0.26,2.709-0.431,4.045c-0.036,0.284,0.05,0.582,0.238,0.82c0,0.001,0,0,0,0c0.188,0.238,0.458,0.392,0.742,0.423
				c0.241,0.026,0.485,0.067,0.727,0.096c0.803-0.561,1.542-1.145,2.17-1.741C290.567,240.967,289.969,240.872,289.377,240.806z"/>
			<path d="M283.662,252.253c0.15,0.216,0.307,0.426,0.455,0.644c0.243,0.356,0.677,0.488,1.064,0.369
				C284.658,252.918,284.15,252.579,283.662,252.253z"/>
			<path d="M272.545,218.098c7.779,5.7,14.759,12.449,20.732,20.074c0.381-0.65,0.721-1.217,1.02-1.708
				c-5.857-7.375-12.642-13.935-20.177-19.52C273.789,217.177,273.242,217.572,272.545,218.098z"/>
			<path d="M280.124,247.498c0.527-0.225,1.122-0.487,1.766-0.782c-5.678-7.201-12.397-13.492-19.921-18.676
				c-0.374,0.46-0.767,0.941-1.18,1.448C268.078,234.492,274.593,240.562,280.124,247.498z"/>
		</g>
		<g>
			<path style="fill:#FFFFFF;stroke:#263238;stroke-linecap:round;stroke-linejoin:round;stroke-miterlimit:10;" d="M367.601,298.53
				c0,0-9.703,0.198-10.495,0.594c-0.792,0.396-5.926,9.198-5.926,9.198l12.461-5.634l8.713-4.357L367.601,298.53z"/>
			<path style="fill:#FFFFFF;stroke:#263238;stroke-linecap:round;stroke-linejoin:round;stroke-miterlimit:10;" d="M360.65,188.291
				c0,0,14.69-1.353,24.547,4.446c9.858,5.799,18.556,17.976,19.135,18.942c0.58,0.966,10.631,15.27,16.236,22.035
				c5.605,6.765,10.631,11.984,10.244,14.303s-8.505,19.908-18.169,30.153c-9.664,10.244-15.656,15.85-16.816,17.203
				s-8.891,7.925-11.984,9.471c-3.093,1.546-6.765,2.319-10.631,2.126c-3.866-0.193-7.732-0.58-7.732-0.58s-5.412,1.546-8.698,2.126
				c-3.286,0.58-6.958,1.353-5.605-0.193c1.353-1.546,6.572-6.958,9.471-7.731c2.899-0.773,13.53-3.093,13.53-3.093l6.958-1.16
				c0,0,10.438-13.723,11.597-18.169c1.16-4.446,10.631-30.153,10.631-30.153s-15.656-10.438-18.749-14.11
				c-3.093-3.673-8.698-8.891-8.698-8.891l-3.286,2.319"/>
			<polyline style="fill:none;stroke:#263238;stroke-linecap:round;stroke-linejoin:round;stroke-miterlimit:10;" points="
				369.185,302.292 363.641,302.689 352.749,308.431 			"/>
			<g style="opacity:0.3;">
				<path d="M413.764,225.026c-0.288,0.533-0.688,0.997-1.219,1.327c-0.848,0.524-1.856,0.646-2.845,0.431c0,0,0,0,0-0.001
					c0.992,0.216,1.999,0.089,2.841-0.431c0.532-0.33,0.933-0.796,1.221-1.329l-0.255-0.318c-0.264,0.537-0.651,1.005-1.176,1.33
					c-0.813,0.502-1.791,0.609-2.742,0.363c0,0.001,0,0.001,0,0.001c-0.046-0.012-0.09-0.032-0.134-0.047
					c0.045,0.015,0.089,0.036,0.134,0.046c-0.147-0.498-0.296-0.947-0.455-1.316c-0.061-0.124-0.128-0.244-0.209-0.372
					c-0.001-0.001-0.003-0.002-0.004-0.003c-0.061-0.092-0.132-0.182-0.204-0.272c0.055-0.061,0.105-0.127,0.159-0.188
					c0.004,0.003,0.008,0.005,0.011,0.008c-0.003-0.002-0.007-0.003-0.009-0.006c-0.055,0.064-0.104,0.124-0.159,0.188
					c0.071,0.09,0.146,0.186,0.206,0.274c0.821,0.54,1.841,0.632,2.626,0.147c0.517-0.32,0.844-0.838,0.964-1.424
					c-0.097-0.125-0.202-0.26-0.312-0.402c-0.038,0.617-0.332,1.182-0.861,1.51c-0.007,0.004-0.015,0.004-0.022,0.008
					c0.008-0.005,0.016-0.007,0.023-0.012c0.528-0.327,0.821-0.891,0.857-1.509c-0.489-0.629-1.096-1.413-1.798-2.319
					c-0.039,0.077-0.077,0.154-0.12,0.228c-0.481,0.869-1.042,1.691-1.676,2.462c-0.08,0.089-0.156,0.184-0.235,0.274
					c-0.061,0.068-0.117,0.142-0.178,0.21c0,0,0,0,0-0.001c0,0-0.001,0.001-0.001,0.001c-0.055-0.054-0.121-0.102-0.181-0.152
					c-0.494-0.41-1.085-0.782-1.695-1.1c-0.132-0.066-0.265-0.131-0.393-0.191c-0.122-0.063-0.241-0.12-0.359-0.176
					c-0.742-0.336-1.452-0.585-1.978-0.758c-0.116,0.094-0.227,0.184-0.342,0.278c-0.001,0-0.001,0-0.002-0.001
					c-0.165-0.05-0.297-0.087-0.4-0.116c0.103,0.029,0.235,0.066,0.4,0.116c0.115-0.091,0.23-0.182,0.34-0.278
					c-0.156-0.05-0.289-0.09-0.41-0.126c-0.255-0.074-0.43-0.119-0.461-0.129c-0.028-0.008-0.055-0.004-0.082-0.005
					c-0.024-0.001-0.048-0.007-0.071-0.003c-0.005,0.001-0.009,0.004-0.014,0.005c-0.044,0.009-0.087,0.025-0.124,0.05
					c-0.084,0.051-0.136,0.148-0.148,0.25c-0.004,0.033-0.02,0.196-0.036,0.435c-0.01,0.151-0.019,0.327-0.025,0.54c0,0,0,0,0,0v0
					c0,0,0,0,0,0c-0.016,0.607,0.006,1.43,0.134,2.302c0.019,0.15,0.04,0.29,0.07,0.442c0.025,0.146,0.056,0.287,0.092,0.434
					c0.149,0.662,0.377,1.312,0.696,1.887c0,0-0.001,0-0.001,0.001c0,0,0,0.001,0.001,0.001c-0.098,0.041-0.19,0.079-0.277,0.122
					c-0.108,0.051-0.211,0.098-0.319,0.139c-0.113,0.046-0.221,0.108-0.334,0.155c-0.936,0.361-1.897,0.622-2.881,0.816
					c-0.121,0.02-0.247,0.034-0.368,0.055c-0.091,0.013-0.182,0.036-0.277,0.043c0,0.001,0,0.002,0.001,0.003
					c-0.018,0.003-0.037,0.006-0.055,0.009c0.018-0.004,0.035-0.007,0.054-0.012c-0.015-0.07-0.039-0.14-0.059-0.216
					c-0.176-0.617-0.444-1.272-0.759-1.912c-0.058-0.133-0.126-0.256-0.194-0.39c-0.063-0.117-0.126-0.246-0.189-0.363
					c-0.397-0.729-0.804-1.375-1.115-1.853c-0.001,0-0.002,0-0.004,0c-0.12-0.182-0.222-0.331-0.307-0.454
					c-0.028-0.04-0.054-0.078-0.077-0.112c-0.076-0.108-0.129-0.183-0.144-0.203c-0.053-0.072-0.129-0.115-0.213-0.136
					c-0.017-0.004-0.032-0.014-0.049-0.015c-0.002,0-0.003,0.001-0.004,0c-0.1-0.009-0.199,0.023-0.273,0.092
					c-0.04,0.037-0.315,0.293-0.686,0.704c-0.001,0-0.002,0-0.004,0c-0.404,0.456-0.928,1.102-1.386,1.859
					c-0.079,0.123-0.147,0.247-0.22,0.366c-0.073,0.14-0.151,0.275-0.218,0.422c-0.304,0.611-0.532,1.266-0.633,1.916
					c0,0-0.001,0-0.001,0c0,0.001,0,0.001,0,0.002c-0.108-0.027-0.206-0.054-0.313-0.081c-0.124-0.032-0.242-0.059-0.356-0.091
					c-0.129-0.037-0.258-0.074-0.383-0.117c-0.995-0.316-1.973-0.734-2.917-1.257c-0.111-0.068-0.227-0.13-0.338-0.197
					c-0.084-0.052-0.174-0.098-0.258-0.15c0,0,0,0,0,0c0,0,0,0-0.001,0c0.034-0.075,0.069-0.15,0.104-0.224
					c0.278-0.61,0.506-1.309,0.692-2.016c0.037-0.153,0.08-0.3,0.113-0.446c0.033-0.147,0.066-0.282,0.099-0.418
					c0.184-0.84,0.324-1.639,0.421-2.223c-0.112-0.111-0.219-0.217-0.332-0.328c0,0,0-0.001,0-0.001
					c0.109,0.111,0.218,0.222,0.331,0.326c0.08-0.505,0.124-0.845,0.135-0.939c0-0.006,0.002-0.021,0.003-0.025
					c0.004-0.031-0.003-0.06-0.006-0.089c-0.007-0.079-0.029-0.155-0.078-0.215c-0.023-0.028-0.054-0.045-0.083-0.065
					c-0.057-0.037-0.12-0.063-0.187-0.06c-0.021-0.002-0.095-0.001-0.19,0.001c-0.173,0.005-0.448,0.017-0.811,0.051
					c0,0,0,0-0.001-0.001c-0.621,0.058-1.46,0.185-2.34,0.441c-0.152,0.041-0.298,0.088-0.445,0.136
					c-0.146,0.048-0.288,0.101-0.434,0.161c-0.662,0.256-1.302,0.602-1.847,1.05c0,0,0,0,0,0c0,0,0,0,0,0
					c-0.064-0.099-0.112-0.205-0.17-0.299c-0.069-0.116-0.133-0.227-0.191-0.344c-0.064-0.123-0.143-0.238-0.206-0.361
					c-0.501-1.024-0.867-2.106-1.125-3.231c-0.027-0.139-0.055-0.278-0.076-0.423c-0.023-0.098-0.046-0.208-0.063-0.313
					c-0.025,0.008-0.047,0.013-0.071,0.021c0.024-0.008,0.047-0.013,0.071-0.022c0,0,0,0.001,0,0.001
					c0.078-0.03,0.152-0.065,0.23-0.095c0.645-0.256,1.314-0.626,1.97-1.031c0.143-0.083,0.271-0.17,0.409-0.257
					c0.127-0.075,0.249-0.155,0.377-0.242c0.756-0.504,1.433-1,1.937-1.372c0-0.001,0-0.002,0-0.003
					c0.106-0.08,0.203-0.153,0.292-0.221c0.171-0.132,0.301-0.232,0.393-0.303c0.065-0.051,0.115-0.09,0.13-0.103
					c0.008-0.007,0.016-0.013,0.024-0.02c0.046-0.042,0.06-0.104,0.086-0.16c0.018-0.04,0.052-0.069,0.059-0.115
					c0.016-0.112-0.013-0.22-0.081-0.3c-0.019-0.022-0.098-0.114-0.224-0.25c-0.117-0.124-0.272-0.285-0.464-0.472
					c-0.036,0.172-0.057,0.344-0.084,0.516c0,0-0.001-0.001-0.001-0.001c0.031-0.173,0.051-0.345,0.083-0.518
					c-0.437-0.434-1.061-0.996-1.797-1.495c-0.12-0.086-0.241-0.16-0.362-0.235c-0.131-0.086-0.269-0.165-0.406-0.245
					c-0.6-0.335-1.251-0.589-1.916-0.7c0,0,0,0,0,0c-0.021-0.003-0.042-0.005-0.063-0.008c0.021,0.004,0.043,0.004,0.063,0.008
					c0.044-0.126,0.087-0.239,0.131-0.365c0.052-0.143,0.099-0.28,0.15-0.412c0.06-0.149,0.12-0.298,0.185-0.441
					c0.5-1.145,1.143-2.254,1.92-3.298c0.098-0.122,0.191-0.251,0.29-0.372c0.075-0.092,0.146-0.19,0.221-0.282l0,0
					c0.001-0.001,0.001-0.001,0.002-0.002c0.061,0.048,0.137,0.084,0.205,0.127c0.558,0.338,1.224,0.618,1.91,0.846
					c0.149,0.046,0.29,0.098,0.435,0.139c0.144,0.041,0.276,0.081,0.408,0.122c0.83,0.234,1.617,0.402,2.199,0.523
					c0.133-0.112,0.274-0.228,0.408-0.339c-0.113-0.023-0.249-0.051-0.383-0.08c0.136,0.028,0.273,0.056,0.387,0.078
					c0.204,0.04,0.372,0.07,0.488,0.09c0.116,0.02,0.182,0.031,0.182,0.031c0,0-0.065-0.01-0.182-0.031
					c-0.116-0.021-0.284-0.051-0.488-0.09c-0.138,0.112-0.277,0.224-0.409,0.341c0.049,0.01,0.088,0.017,0.134,0.026
					c0.105,0.02,0.204,0.039,0.292,0.056c0.207,0.038,0.363,0.065,0.454,0.08c0.038,0.006,0.071,0.011,0.083,0.012
					c0.048,0.009,0.096,0.004,0.143-0.005c0.009-0.002,0.018,0.001,0.027-0.001c0.009-0.002,0.016-0.008,0.025-0.011
					c0.047-0.014,0.094-0.033,0.135-0.061c0.004-0.003,0.009-0.006,0.013-0.009c0.059-0.044,0.1-0.102,0.133-0.163
					c0.017-0.035,0.036-0.069,0.042-0.107c0.005-0.016,0.014-0.057,0.027-0.117c0.033-0.167,0.093-0.496,0.156-0.931
					c0,0,0,0,0.001-0.001c0.094-0.65,0.189-1.531,0.198-2.462c0.005-0.161,0.003-0.316,0.001-0.472
					c-0.002-0.156-0.011-0.307-0.024-0.463c-0.043-0.707-0.167-1.402-0.416-2.013c0,0,0.001,0,0.001,0c0,0,0,0,0-0.001
					c0.125-0.056,0.252-0.095,0.37-0.146c0.145-0.06,0.283-0.114,0.425-0.161c0.149-0.052,0.298-0.122,0.448-0.174
					c0.147-0.048,0.295-0.087,0.443-0.13c-0.115-0.096-0.231-0.193-0.347-0.29c-0.099,0.031-0.2,0.057-0.299,0.09
					c-0.056,0.018-0.112,0.041-0.168,0.063c0.055-0.021,0.109-0.044,0.164-0.062c0.1-0.034,0.202-0.059,0.302-0.091
					c-0.284-0.236-0.574-0.473-0.866-0.71c-0.017,0.206-0.012,0.408,0.028,0.599c-0.019,0.007-0.038,0.015-0.057,0.022
					c0.018-0.007,0.037-0.015,0.055-0.022c-0.041-0.191-0.044-0.393-0.026-0.599c-0.125-0.101-0.25-0.202-0.376-0.303
					c-0.082,0.369-0.094,0.729-0.014,1.063c0,0,0,0,0,0c0,0.001,0,0.001,0.001,0.002c0,0,0,0,0,0.001l0,0
					c0.002,0.008,0.005,0.016,0.007,0.025c-0.002-0.008-0.005-0.016-0.007-0.025c-0.15,0.053-0.289,0.109-0.434,0.169
					c0.038,0.054,0.067,0.112,0.099,0.167c-0.033-0.056-0.063-0.114-0.099-0.167c0,0,0,0,0,0c0,0,0,0,0-0.001c0,0,0,0,0-0.001
					c0,0,0,0,0,0c-0.126-0.181-0.254-0.35-0.413-0.499c-0.222-0.207-0.487-0.413-0.776-0.62c0,0,0-0.001,0-0.001
					c-0.001-0.001-0.002-0.001-0.003-0.002c0.026-0.155,0.045-0.304,0.091-0.463c0.066-0.227,0.165-0.444,0.267-0.661
					c-0.113-0.088-0.225-0.175-0.337-0.261c-0.147,0.284-0.271,0.579-0.358,0.887c0-0.001,0-0.003,0.001-0.004
					c0.087-0.307,0.211-0.601,0.357-0.884c-0.109-0.085-0.218-0.169-0.326-0.252c-0.192,0.349-0.348,0.715-0.456,1.098
					c-0.003,0.01-0.004,0.02-0.007,0.03c-2.35-1.461-5.633-2.491-5.808-2.534c-0.139-0.042-0.268-0.025-0.447,0.098
					c-0.137,0.103-0.221,0.256-0.219,0.401c-0.006,0.181,0.055,3.397,0.547,5.913c-1.26,0.065-2.592,0.588-3.708,1.583
					c-2.453,2.184-2.842,5.696-1.042,7.618c0.006,0.007,0.014,0.012,0.02,0.019c-2.801,1.204-5.807,3.537-5.954,3.671
					c-0.125,0.099-0.207,0.257-0.211,0.414c-0.005,0.157,0.066,0.288,0.186,0.345c0.151,0.07,2.814,1.331,5.105,2.135
					c-0.8,1.042-1.284,2.363-1.274,3.725c0.032,2.991,2.311,4.956,4.903,4.611c0.009-0.001,0.018-0.004,0.027-0.005
					c-1.06,2.778-1.182,4.287-1.195,4.468c-0.018,0.148,0.779,0.381,0.881,0.466c0.102,0.085,0.57,0.851,0.69,0.79
					c0.148-0.086,1.418-0.259,3.552-1.429c0.142,1.181,0.677,2.291,1.564,3.098c1.952,1.749,4.748,1.514,6.376-0.373
					c0.006-0.007,0.01-0.014,0.016-0.021c0.989,2.532,2.749,5.228,2.84,5.368c0.075,0.114,0.196,0.183,0.318,0.182
					c0.092-0.001,0.174-0.041,0.23-0.109c0.019-0.023,0.034-0.048,0.046-0.077c0.055-0.146,1.157-2.669,1.982-4.812
					c0.808,0.774,1.839,1.282,2.94,1.388c1.166,0.111,2.234-0.228,3.048-0.963c0.813-0.736,1.279-1.785,1.327-2.994
					c0-0.009,0-0.018,0-0.027c2.18,1.467,4.898,2.859,5.036,2.94c0.114,0.059,0.238,0.055,0.326-0.01
					c0.074-0.043,0.127-0.185,0.102-0.312c-0.038-0.156-0.587-2.97-1.185-5.29c1.032,0.194,2.072,0.051,2.952-0.492
					c0.538-0.334,0.953-0.797,1.262-1.328L413.764,225.026z M404.826,229.739c-0.036,1.018-0.427,1.913-1.117,2.538
					c-0.691,0.625-1.601,0.906-2.583,0.809c-1.019-0.102-1.963-0.607-2.66-1.367c0-0.001,0.001-0.002,0.001-0.003
					c0-0.001-0.001-0.001-0.001-0.002c0.165-0.47,0.297-0.91,0.372-1.281c0.028-0.134,0.037-0.27,0.047-0.416
					c-0.002-0.003-0.002-0.007-0.004-0.01c0.001-0.059-0.005-0.122-0.008-0.184c0.005,0.065,0.012,0.13,0.012,0.194
					c0.117,0.288,0.284,0.559,0.496,0.798c0.465,0.522,1.075,0.837,1.716,0.905c0.642,0.068,1.239-0.116,1.694-0.527
					c0.455-0.411,0.711-0.998,0.73-1.665c0.016-0.393-0.074-0.784-0.224-1.153c0,0,0,0,0,0c0,0,0-0.001-0.001-0.001c0,0,0,0,0-0.001
					l0,0c-0.009-0.022-0.021-0.042-0.03-0.064c0.009,0.021,0.022,0.043,0.03,0.064c0.107-0.05,0.214-0.09,0.321-0.14
					c0,0,0,0.001,0.001,0.001c0,0,0.001,0,0.001-0.001c0.138,0.172,0.276,0.333,0.434,0.478c0.22,0.2,0.475,0.402,0.749,0.607
					c0,0.001,0,0.002,0,0.003c0.001,0.001,0.003,0.002,0.004,0.003C404.817,229.462,404.831,229.598,404.826,229.739z
					 M376.752,220.154c-0.01-1.246,0.472-2.45,1.254-3.354c0.001-0.001,0.002-0.003,0.003-0.004c0.001,0,0.003,0.001,0.004,0.001
					c0.001-0.001,0.002-0.002,0.003-0.003c0.501,0.156,0.969,0.272,1.368,0.333c0.137,0.016,0.286,0.019,0.434,0.011
					c0.002-0.001,0.005-0.002,0.008-0.003c0.04-0.003,0.084-0.012,0.125-0.018c-0.044,0.006-0.091,0.019-0.133,0.021
					c-0.946,0.54-1.628,1.635-1.626,2.813c-0.004,1.607,1.203,2.723,2.637,2.556c0.419-0.048,0.809-0.2,1.164-0.433c0,0,0,0,0-0.001
					c0.074-0.048,0.145-0.102,0.216-0.154c-0.071,0.052-0.142,0.105-0.216,0.155c0.065,0.122,0.129,0.233,0.199,0.348
					c0,0.001-0.001,0.001-0.001,0.001c0,0,0,0,0,0c-0.154,0.184-0.297,0.367-0.418,0.572c-0.167,0.285-0.327,0.612-0.484,0.963
					c-0.001,0-0.002,0.001-0.002,0.001c-0.001,0.001-0.001,0.003-0.002,0.004c-0.143,0.034-0.28,0.074-0.428,0.092
					C378.663,224.334,376.767,222.659,376.752,220.154z M381.051,211.297c0.505,0.025,1.022-0.034,1.536-0.16
					C382.073,211.262,381.556,211.322,381.051,211.297z M380.653,211.258c-0.217,1.081-0.317,2.165-0.311,3.235
					C380.336,213.422,380.436,212.339,380.653,211.258z M378.318,215.973c0.489-0.421,1.045-0.744,1.641-0.945
					C379.362,215.229,378.807,215.551,378.318,215.973z M378.373,216.447c0.125,0.037,0.242,0.065,0.361,0.097
					c-0.119-0.031-0.235-0.059-0.362-0.095c-0.013,0.012-0.026,0.025-0.039,0.038C378.347,216.473,378.36,216.46,378.373,216.447z
					 M379.482,216.706c0.009,0.001,0.019,0,0.029,0.001c-0.009-0.001-0.019,0.002-0.028,0.001c-0.117-0.018-0.245-0.047-0.372-0.075
					C379.238,216.661,379.367,216.689,379.482,216.706z M380.108,216.684c0.002,0.013,0.005,0.025,0.007,0.037
					C380.113,216.708,380.11,216.697,380.108,216.684C380.108,216.684,380.108,216.684,380.108,216.684z M380.214,217.245
					c0.008,0.042,0.016,0.084,0.024,0.126c-0.949,0.395-1.658,1.412-1.664,2.528c-0.007,1.374,1.019,2.334,2.251,2.193
					c0.35-0.039,0.677-0.169,0.973-0.354c0.005,0.009,0.01,0.018,0.016,0.027c-0.005-0.008-0.01-0.017-0.015-0.025
					c-0.296,0.187-0.624,0.309-0.973,0.354c-1.234,0.14-2.259-0.819-2.252-2.194c0.006-1.122,0.714-2.138,1.664-2.531
					C380.23,217.331,380.222,217.286,380.214,217.245z M380.693,217.65c-0.004-0.018-0.007-0.036-0.01-0.054
					c0.004,0.019,0.007,0.036,0.011,0.056C380.693,217.651,380.693,217.651,380.693,217.65z M381.018,215.214
					c0.455-0.032,0.879,0.038,1.279,0.157C381.897,215.252,381.473,215.182,381.018,215.214z M381.045,214.796
					c0.633-0.044,1.226,0.058,1.754,0.275C382.271,214.855,381.678,214.753,381.045,214.796z M382.208,214.453
					c0.36,0.073,0.701,0.193,1.018,0.35c0.758-0.489,1.497-1.013,2.099-1.46c-0.602,0.447-1.341,0.972-2.099,1.46
					C382.909,214.645,382.569,214.526,382.208,214.453z M384.185,211.425c0.751,0.56,1.358,1.153,1.692,1.501
					C385.543,212.578,384.936,211.985,384.185,211.425z M381.15,210.88c0.589,0.029,1.197-0.055,1.793-0.247
					C382.347,210.826,381.739,210.91,381.15,210.88z M381.348,210.077c0.342,0.053,0.683,0.151,1.018,0.286
					C382.031,210.228,381.69,210.13,381.348,210.077z M380.667,209.621c-0.177,0.011-0.354,0.034-0.529,0.076
					c-0.22,0.053-0.453,0.123-0.691,0.202c-0.066-0.041-0.124-0.095-0.185-0.144c0.062,0.048,0.121,0.101,0.187,0.141
					c0.235-0.075,0.471-0.148,0.687-0.201c0.18-0.04,0.353-0.06,0.531-0.075C380.668,209.619,380.668,209.62,380.667,209.621z
					 M374.089,214.286c1.069,0.481,2.531,1.11,3.803,1.547c0.598-0.566,1.303-0.994,2.062-1.236
					c-0.759,0.243-1.464,0.671-2.062,1.236C376.62,215.396,375.159,214.766,374.089,214.286c-0.357-0.16-0.669-0.304-0.917-0.418
					C373.42,213.982,373.733,214.126,374.089,214.286z M373.645,213.52c1.233-0.885,3.322-2.23,5.154-2.959
					C376.967,211.29,374.877,212.635,373.645,213.52z M388.163,220.437c-0.53,0.039-1.323,0.139-2.178,0.353
					C386.838,220.574,387.63,220.479,388.163,220.437C388.162,220.437,388.163,220.437,388.163,220.437z M391.085,229.126
					c-0.076,0.255-0.198,0.496-0.377,0.704C390.887,229.622,391.009,229.38,391.085,229.126z M389.826,230.385
					c-0.549,0.141-1.154,0.001-1.613-0.439c-0.198-0.19-0.327-0.425-0.425-0.673c0.098,0.248,0.227,0.483,0.425,0.673
					C388.672,230.385,389.277,230.526,389.826,230.385z M387.974,230.241c0.889,0.845,2.219,0.766,3.001-0.144
					c0.141-0.164,0.243-0.348,0.328-0.539c-0.085,0.193-0.186,0.379-0.327,0.543c-0.781,0.907-2.114,0.987-3.001,0.144
					c-0.18-0.172-0.327-0.37-0.439-0.585C387.649,229.873,387.794,230.07,387.974,230.241z M387.284,228.37
					c0.018-0.284,0.07-0.565,0.186-0.828c-0.079-0.046-0.153-0.086-0.233-0.132c0-0.001,0.001-0.001,0.001-0.002
					c0.077,0.047,0.156,0.087,0.233,0.132C387.355,227.805,387.303,228.087,387.284,228.37z M386.564,225.684
					c0.297-0.346,0.643-0.607,1.006-0.819c-0.158,0.537-0.34,1.036-0.547,1.462c0.207-0.426,0.389-0.925,0.547-1.462
					C387.207,225.077,386.862,225.338,386.564,225.684z M386.297,225.416c0.414-0.482,0.901-0.846,1.422-1.091
					C387.197,224.57,386.71,224.935,386.297,225.416z M386.436,224.73c0.195-0.178,0.405-0.328,0.619-0.465
					C386.841,224.402,386.632,224.552,386.436,224.73z M386.68,221.039c0.415-0.081,0.803-0.135,1.128-0.17
					C387.482,220.904,387.095,220.959,386.68,221.039z M382.089,223.196c-0.114,0.195-0.225,0.409-0.332,0.632
					c-0.051,0.018-0.104,0.028-0.155,0.043c0.05-0.015,0.102-0.025,0.153-0.044c0.113-0.223,0.222-0.439,0.332-0.631
					c0.036-0.063,0.085-0.117,0.127-0.176C382.172,223.079,382.125,223.134,382.089,223.196z M385.997,226.564
					c-0.2,0.402-0.337,0.827-0.406,1.262C385.66,227.391,385.798,226.966,385.997,226.564z M386.497,227.669
					c0.008-0.007,0.016-0.016,0.024-0.023c-0.009,0.007-0.016,0.02-0.025,0.027c-0.102,0.077-0.221,0.16-0.343,0.243
					C386.275,227.833,386.395,227.75,386.497,227.669z M388.401,220.82c-0.031,0.225-0.072,0.485-0.116,0.759
					C388.33,221.304,388.37,221.045,388.401,220.82z M383.241,223.918c-0.45,0.33-0.937,0.589-1.451,0.759
					C382.304,224.507,382.79,224.248,383.241,223.918z M380.966,227.141c-0.304,1.123-0.527,2.218-0.663,3.02
					C380.44,229.359,380.662,228.264,380.966,227.141c0.127-0.469,0.272-0.939,0.427-1.399
					C381.238,226.202,381.093,226.672,380.966,227.141z M384.974,227.168c-0.099,0.371-0.157,0.75-0.174,1.129
					C384.817,227.918,384.875,227.539,384.974,227.168z M386.861,231.667c-0.814-0.752-1.271-1.802-1.326-2.898
					c-0.001,0-0.001,0.001-0.002,0.001c-0.004-0.071,0.004-0.143,0.007-0.215c-0.003,0.071-0.012,0.143-0.005,0.214
					c0.453-0.27,0.856-0.528,1.178-0.778c0.111-0.087,0.21-0.196,0.305-0.309c0.025-0.079,0.059-0.15,0.092-0.223
					c-0.031,0.072-0.063,0.143-0.086,0.218c-0.002,0.002-0.004,0.004-0.006,0.005c-0.302,0.998-0.046,2.133,0.72,2.859
					c1.039,0.979,2.595,0.886,3.506-0.173c0.27-0.314,0.438-0.677,0.547-1.062c-0.001,0-0.001,0-0.002-0.001
					c0.025-0.09,0.043-0.182,0.061-0.273c-0.018,0.092-0.036,0.181-0.059,0.274c0.117,0.026,0.235,0.062,0.361,0.089
					c0,0.001,0,0.001,0,0.002c0.001,0,0.003,0.001,0.004,0.001c0.003,0.223,0.016,0.446,0.065,0.664
					c0.063,0.305,0.154,0.625,0.261,0.95c0.09-0.126,0.18-0.252,0.25-0.388c-0.06-0.217-0.12-0.434-0.163-0.635
					c-0.032-0.168-0.048-0.331-0.058-0.5c0,0,0.001,0,0.001,0c0.008,0.169,0.026,0.335,0.06,0.498
					c0.043,0.204,0.099,0.42,0.163,0.639c-0.072,0.136-0.163,0.262-0.251,0.389c0-0.001-0.001-0.002-0.001-0.003
					c-0.08,0.126-0.149,0.241-0.244,0.352C390.86,232.963,388.488,233.15,386.861,231.667z M387.214,227.442
					c-0.041,0.061-0.079,0.124-0.126,0.179c-0.01,0.012-0.023,0.02-0.035,0.03c0.01-0.009,0.021-0.018,0.031-0.03
					C387.13,227.567,387.171,227.504,387.214,227.442z M399.391,229.205C399.391,229.205,399.391,229.205,399.391,229.205
					c-0.121,0.021-0.236,0.036-0.347,0.058c0,0,0-0.001,0-0.001c0.114-0.019,0.229-0.035,0.343-0.056
					C399.388,229.206,399.39,229.205,399.391,229.205z M403.174,229.475c-0.035,1.18-0.945,2.003-2.081,1.882
					c-0.929-0.101-1.718-0.813-1.979-1.73c-0.065,0.011-0.135,0.024-0.204,0.033c0.068-0.011,0.136-0.023,0.204-0.034
					c0.263,0.917,1.054,1.63,1.977,1.73c1.135,0.121,2.046-0.703,2.081-1.882c0.009-0.335-0.061-0.66-0.184-0.963
					c0.026-0.011,0.051-0.023,0.076-0.034c-0.025,0.011-0.049,0.022-0.074,0.033C403.115,228.815,403.178,229.14,403.174,229.475z
					 M402.03,230.787c0.366-0.215,0.642-0.58,0.746-1.02C402.672,230.207,402.396,230.572,402.03,230.787z M402.82,229.423
					c0.007-0.263-0.045-0.524-0.142-0.771c-1.04,0.416-2.118,0.715-3.222,0.918c0.082,0.279,0.219,0.542,0.416,0.767
					c-0.197-0.225-0.334-0.488-0.416-0.767c1.104-0.204,2.182-0.503,3.222-0.918C402.775,228.899,402.827,229.16,402.82,229.423z
					 M396.737,229.861c-0.958,0.027-1.924-0.02-2.891-0.148C394.813,229.84,395.779,229.888,396.737,229.861z M397.939,230.991
					c-0.215-0.361-0.377-0.755-0.48-1.171C397.562,230.237,397.724,230.631,397.939,230.991z M398.519,229.727
					c0.084-0.011,0.166-0.031,0.25-0.043c0.014,0.049,0.033,0.096,0.048,0.145c-0.016-0.047-0.035-0.094-0.05-0.143
					C398.683,229.694,398.603,229.719,398.519,229.727C398.519,229.728,398.519,229.727,398.519,229.727z M394.537,225.423
					c0.187-0.246,0.366-0.468,0.534-0.662C394.903,224.955,394.724,225.178,394.537,225.423z M393.225,228.839
					c0.021-0.351,0.013-0.705-0.047-1.055C393.238,228.134,393.246,228.487,393.225,228.839z M395.27,235.341
					c-0.646-1.133-1.481-2.726-1.985-4.162C393.789,232.615,394.623,234.208,395.27,235.341z M396.427,234.883
					c0.393-0.939,0.86-2.069,1.23-3.068C397.287,232.814,396.82,233.944,396.427,234.883c-0.236,0.563-0.446,1.058-0.594,1.415
					C395.981,235.941,396.191,235.446,396.427,234.883z M398.493,230.322c0.019-0.096,0.011-0.208,0.014-0.313
					c-0.003,0.106,0.007,0.217-0.011,0.313c-0.067,0.311-0.171,0.66-0.295,1.047c0.022,0.029,0.044,0.057,0.065,0.086
					c-0.022-0.03-0.045-0.058-0.067-0.087C398.326,230.986,398.431,230.629,398.493,230.322z M408.494,225.318
					c0.099,0.223,0.197,0.488,0.293,0.777C408.69,225.806,408.593,225.541,408.494,225.318z M406.515,223.539
					c0.455,0.26,0.869,0.543,1.209,0.837C407.384,224.082,406.97,223.799,406.515,223.539z M404.405,226.412
					c-0.365-0.473-0.798-0.869-1.279-1.179c-0.032-0.176-0.059-0.351-0.081-0.526c0.023,0.174,0.049,0.35,0.081,0.526
					C403.607,225.543,404.04,225.939,404.405,226.412z M408.813,225.201c-0.06-0.136-0.156-0.269-0.252-0.401
					c0.096,0.132,0.192,0.265,0.252,0.397c0.052,0.122,0.104,0.261,0.157,0.402C408.918,225.459,408.866,225.321,408.813,225.201z
					 M406.219,224.594c-0.277-0.481-0.465-0.989-0.568-1.504C405.754,223.605,405.943,224.113,406.219,224.594z M402.631,224.232
					c-0.029-0.299-0.044-0.582-0.051-0.851C402.588,223.649,402.603,223.933,402.631,224.232z M404.762,228.906
					c-0.003-0.016-0.002-0.031-0.005-0.046c-0.173-0.143-0.342-0.28-0.491-0.414c-0.042-0.037-0.075-0.084-0.114-0.124
					c0.038,0.04,0.073,0.084,0.113,0.121c0.151,0.138,0.318,0.276,0.492,0.414C404.76,228.874,404.76,228.89,404.762,228.906z
					 M405.04,227.476c0.22,0.482,0.37,0.986,0.439,1.499C405.41,228.462,405.261,227.957,405.04,227.476z M408.689,230.997
					c-0.402-0.23-0.836-0.485-1.275-0.753C407.853,230.512,408.287,230.766,408.689,230.997z M409.902,230.502
					c0.116,0.527,0.217,0.996,0.292,1.339C410.119,231.499,410.018,231.029,409.902,230.502z M410.102,224.792
					c0.001,0,0.001,0,0.002,0C410.103,224.792,410.103,224.792,410.102,224.792z M409.46,224.611
					c0.003,0.001,0.005,0.002,0.008,0.003C409.465,224.613,409.463,224.612,409.46,224.611z M410.73,224.772
					c0.009-0.002,0.018-0.004,0.028-0.005C410.748,224.769,410.74,224.77,410.73,224.772z M408.603,223.982
					c0.019-0.021,0.036-0.041,0.054-0.062c-0.018,0.02-0.035,0.041-0.052,0.061c-0.048,0.055-0.092,0.112-0.141,0.166
					c0,0,0,0-0.001-0.001C408.516,224.094,408.56,224.038,408.603,223.982z M408.174,223.902c-0.013,0.016-0.026,0.032-0.039,0.047
					c-0.027,0.03-0.053,0.06-0.079,0.091c0.025-0.03,0.052-0.061,0.075-0.09C408.148,223.932,408.161,223.917,408.174,223.902z
					 M405.585,222.665c0.102,0.046,0.202,0.094,0.301,0.143c-0.1-0.048-0.2-0.096-0.3-0.141c-0.299-0.138-0.591-0.258-0.874-0.37
					C404.995,222.409,405.286,222.528,405.585,222.665z M402.927,225.967c-0.031-0.116-0.055-0.232-0.08-0.349
					c0.026,0.116,0.052,0.232,0.083,0.347c0.14,0.528,0.333,1.035,0.584,1.488c-0.062,0.031-0.127,0.056-0.191,0.083
					c0.064-0.027,0.129-0.052,0.19-0.084C403.258,227.001,403.07,226.497,402.927,225.967z M403.137,228.033
					c-0.058,0.026-0.117,0.052-0.175,0.078c0.059-0.027,0.117-0.055,0.174-0.08C403.136,228.031,403.136,228.032,403.137,228.033z
					 M402.506,228.315c0.035-0.014,0.069-0.03,0.103-0.046c-0.033,0.015-0.066,0.032-0.1,0.045
					c-0.779,0.311-1.585,0.537-2.401,0.723C400.922,228.851,401.729,228.625,402.506,228.315z M397.723,227.169
					c0.293,0.61,0.538,1.234,0.682,1.811c-0.001,0-0.001,0-0.002,0c-0.142-0.576-0.39-1.2-0.683-1.814
					c-0.065-0.135-0.13-0.27-0.199-0.404c-0.035-0.068-0.071-0.134-0.106-0.201c0.035,0.067,0.073,0.135,0.108,0.202
					C397.591,226.897,397.659,227.031,397.723,227.169z M396.253,224.183c-0.092-0.001-0.184-0.001-0.275-0.005
					c-0.001-0.001-0.001-0.002-0.002-0.003C396.068,224.179,396.16,224.181,396.253,224.183z M395.139,224.115
					c0.277-0.295,0.465-0.469,0.465-0.469C395.605,223.646,395.416,223.821,395.139,224.115c0,0-0.001,0.001-0.001,0.001
					c-0.052-0.007-0.106-0.013-0.159-0.019C395.033,224.103,395.086,224.109,395.139,224.115z M393.026,227.186
					c0.03-0.061,0.061-0.121,0.09-0.183c-0.03,0.063-0.062,0.124-0.091,0.188c-0.075,0.168-0.132,0.34-0.193,0.512
					C392.893,227.53,392.952,227.357,393.026,227.186z M392.561,228.714c0.027-0.174,0.077-0.348,0.123-0.522
					c-0.045,0.175-0.095,0.349-0.121,0.524c-0.048-0.011-0.095-0.024-0.142-0.037C392.467,228.69,392.513,228.702,392.561,228.714z
					 M391.87,228.938c-0.06-0.015-0.119-0.03-0.179-0.045c0.06,0.013,0.12,0.026,0.18,0.04
					C391.871,228.935,391.871,228.937,391.87,228.938z M387.805,227.282c-0.049-0.028-0.099-0.056-0.148-0.085
					c-0.066-0.039-0.134-0.074-0.199-0.114c0.063,0.041,0.131,0.076,0.199,0.111C387.708,227.225,387.756,227.253,387.805,227.282z
					 M387.455,227.081c-0.001,0-0.002-0.001-0.003-0.001c0.052-0.088,0.102-0.179,0.151-0.272
					C387.555,226.902,387.506,226.994,387.455,227.081z M387.564,226.686c0.017,0.01,0.033,0.019,0.049,0.029
					c-0.018-0.01-0.035-0.02-0.053-0.031c-0.048-0.03-0.097-0.058-0.146-0.087c0.047,0.027,0.095,0.054,0.144,0.083
					C387.561,226.683,387.563,226.685,387.564,226.686z M388.249,223.716c-0.029,0.129-0.059,0.257-0.091,0.383
					c0.031-0.127,0.06-0.253,0.089-0.38c0.081-0.357,0.151-0.7,0.215-1.032C388.399,223.018,388.331,223.36,388.249,223.716z
					 M388.784,220.406c0.033-0.001,0.051-0.001,0.051-0.001S388.817,220.405,388.784,220.406z M382.981,222.182
					c0.43-0.35,0.916-0.641,1.441-0.875c0.144-0.063,0.289-0.117,0.436-0.173c-0.146,0.055-0.291,0.113-0.435,0.177
					c-0.523,0.231-1.018,0.521-1.444,0.874c-0.054-0.085-0.1-0.175-0.15-0.263C382.879,222.009,382.926,222.1,382.981,222.182z
					 M382.318,221.84c-0.048-0.083-0.095-0.166-0.142-0.249c0.048,0.082,0.098,0.166,0.145,0.247
					C382.32,221.839,382.319,221.84,382.318,221.84z M381.932,221.156c0.035,0.07,0.074,0.137,0.114,0.204
					c-0.039-0.066-0.079-0.132-0.113-0.2c-0.532-1.046-0.918-2.164-1.186-3.323C381.014,218.992,381.402,220.113,381.932,221.156z
					 M383.189,215.285c-0.139,0.088-0.278,0.176-0.421,0.26c-0.633,0.383-1.28,0.72-1.88,0.938c0-0.001,0-0.001,0-0.002
					c0.599-0.216,1.244-0.555,1.882-0.938C382.909,215.458,383.05,215.373,383.189,215.285c0.141-0.089,0.277-0.179,0.415-0.27
					c0.04-0.026,0.077-0.052,0.117-0.079c-0.04,0.027-0.078,0.054-0.119,0.081C383.467,215.11,383.328,215.197,383.189,215.285z
					 M386.471,212.944c0,0-0.217,0.172-0.566,0.437c-0.006,0.088-0.009,0.175-0.014,0.262c0.004-0.087,0.006-0.174,0.012-0.26
					c0.001-0.001,0.002-0.001,0.003-0.002C386.254,213.116,386.471,212.944,386.471,212.944z M385.041,211.555
					c0.217,0.183,0.416,0.361,0.59,0.526C385.457,211.917,385.258,211.739,385.041,211.555z M383.865,210.672
					c0,0-0.001-0.001-0.001-0.001C383.864,210.671,383.865,210.671,383.865,210.672
					C383.865,210.671,383.865,210.672,383.865,210.672z M383.007,210.175c0.094,0.051,0.187,0.103,0.281,0.154
					c-0.095-0.052-0.189-0.105-0.286-0.153c-0.492-0.244-1.009-0.424-1.533-0.507c0.021-0.069,0.047-0.137,0.072-0.205
					c-0.024,0.068-0.051,0.137-0.069,0.202C381.997,209.751,382.509,209.935,383.007,210.175z M380.964,208.776
					c-0.052,0.143-0.102,0.275-0.148,0.424c-0.001,0-0.001,0-0.002,0c0,0.001-0.001,0.002-0.001,0.003
					c-0.234,0.005-0.464,0.028-0.703,0.082c-0.326,0.077-0.673,0.186-1.033,0.323c-0.001-0.001-0.003-0.002-0.004-0.003
					c-0.001,0-0.003,0.001-0.005,0.002c-0.109-0.093-0.223-0.18-0.324-0.291c-1.498-1.628-1.152-4.56,0.893-6.382
					c1.023-0.913,2.257-1.364,3.4-1.346c0,0,0-0.001,0-0.001c0.036,0.001,0.071,0.009,0.106,0.012
					c-0.035-0.002-0.071-0.01-0.106-0.01c0.129,0.533,0.272,1.007,0.435,1.386c0.058,0.13,0.136,0.243,0.224,0.368
					c0.001,0,0.001,0.001,0.001,0.001c0.051,0.069,0.114,0.134,0.176,0.198c-0.062-0.066-0.126-0.134-0.177-0.199
					c-0.942-0.394-2.193-0.178-3.15,0.676c-1.306,1.164-1.554,3.046-0.6,4.117C380.225,208.454,380.579,208.65,380.964,208.776
					c0,0,0-0.001,0.001-0.001c0.122,0.038,0.243,0.074,0.371,0.094c0.009-0.024,0.017-0.048,0.026-0.072
					c-0.009,0.026-0.017,0.051-0.027,0.078C381.206,208.849,381.09,208.812,380.964,208.776z M390.688,202.262
					c0.001-0.168,0-0.337-0.005-0.507C390.688,201.925,390.689,202.094,390.688,202.262z M380.39,207.199
					c-0.115-0.223-0.178-0.471-0.189-0.73C380.212,206.727,380.275,206.976,380.39,207.199z M381.268,207.955
					c-0.252-0.09-0.482-0.234-0.666-0.445C380.786,207.722,381.016,207.866,381.268,207.955z M381.629,204.204
					c0.621-0.294,1.301-0.287,1.817,0.008C382.931,203.916,382.25,203.909,381.629,204.204z M380.792,204.308
					c-1.118,0.996-1.334,2.59-0.518,3.514c0.115,0.131,0.245,0.24,0.385,0.329c-0.142-0.089-0.273-0.197-0.388-0.329
					c-0.814-0.922-0.598-2.519,0.518-3.513c0.34-0.304,0.722-0.513,1.11-0.63C381.512,203.796,381.132,204.004,380.792,204.308z
					 M383.134,205.305c-0.019,0.028-0.035,0.057-0.053,0.084C383.1,205.361,383.116,205.332,383.134,205.305z M383.722,203.856
					c-0.486-0.29-1.099-0.356-1.706-0.203c0.608-0.154,1.222-0.088,1.706,0.2c0.069-0.088,0.132-0.169,0.201-0.257
					c0.001,0,0.001,0.001,0.001,0.001C383.854,203.683,383.79,203.77,383.722,203.856z M385.483,201.926
					c-0.474-0.345-1.024-0.574-1.618-0.683C384.459,201.352,385.009,201.581,385.483,201.926z M384.463,200.946
					c0.499,0.146,0.964,0.369,1.371,0.678C385.427,201.316,384.962,201.092,384.463,200.946z M383.867,202.75
					c0.028,0.064,0.068,0.124,0.107,0.185c-0.038-0.06-0.077-0.12-0.105-0.181c-0.084-0.187-0.159-0.415-0.232-0.657
					C383.709,202.337,383.785,202.562,383.867,202.75z M386.248,202.663c0.372,0.484,0.611,1.034,0.729,1.614
					C386.859,203.697,386.62,203.146,386.248,202.663z M386.604,202.386c0.461,0.604,0.725,1.305,0.826,2.038
					C387.329,203.691,387.065,202.99,386.604,202.386z M390.609,203.707c-0.016,0.167-0.033,0.326-0.051,0.478
					C390.576,204.033,390.593,203.874,390.609,203.707z M389.232,199.251c-0.109-0.348-0.168-0.715-0.173-1.1
					C389.064,198.536,389.124,198.903,389.232,199.251z M388.814,199.47c-0.615,0.354-1.218,0.742-1.801,1.176
					C387.596,200.212,388.199,199.824,388.814,199.47c-0.165-0.503-0.24-1.048-0.2-1.621
					C388.574,198.422,388.649,198.967,388.814,199.47z M386.468,196.67c-0.751-0.354-1.502-0.662-2.143-0.904
					C384.966,196.009,385.717,196.317,386.468,196.67c0.501,0.236,1.002,0.492,1.471,0.763
					C387.469,197.162,386.969,196.906,386.468,196.67z M383.914,204.229c0.038-0.049,0.075-0.098,0.114-0.147
					c0.053-0.066,0.103-0.133,0.156-0.199c-0.053,0.063-0.103,0.13-0.152,0.197C383.99,204.131,383.953,204.179,383.914,204.229z
					 M384.202,203.859c0.001-0.001,0.002-0.002,0.002-0.003c0.058,0.047,0.121,0.092,0.182,0.139
					C384.325,203.949,384.26,203.905,384.202,203.859z M384.514,204.083c0.023-0.028,0.044-0.058,0.068-0.086
					c0.025-0.03,0.05-0.061,0.074-0.091c-0.025,0.031-0.05,0.063-0.075,0.094C384.558,204.027,384.536,204.055,384.514,204.083z
					 M386.581,204.599c-0.304-0.111-0.599-0.232-0.881-0.361c0.282,0.128,0.576,0.249,0.882,0.357
					c0.118,0.042,0.237,0.081,0.356,0.121C386.818,204.677,386.698,204.639,386.581,204.599z M387.473,204.88
					c-0.017-0.005-0.033-0.01-0.049-0.015c0.015,0.005,0.031,0.009,0.046,0.014c0.098,0.029,0.193,0.053,0.29,0.08
					C387.665,204.932,387.571,204.909,387.473,204.88z M390.792,205.4c0.022-0.121,0.05-0.282,0.081-0.482
					c0.012-0.079,0.025-0.181,0.038-0.27c-0.012,0.089-0.025,0.19-0.037,0.27c0,0-0.001,0.001-0.001,0.001
					C390.842,205.117,390.814,205.279,390.792,205.4z M391.101,201.51c0-0.005,0-0.011,0-0.016c0,0,0,0.001,0,0.001
					C391.101,201.5,391.101,201.505,391.101,201.51z M390.934,200.209c-0.065-0.295-0.145-0.58-0.255-0.843
					c0.102-0.046,0.206-0.084,0.31-0.124c-0.104,0.04-0.208,0.078-0.307,0.125C390.79,199.632,390.87,199.915,390.934,200.209z
					 M391.538,198.615c-0.085,0.034-0.17,0.068-0.253,0.101c0-0.001,0-0.002-0.001-0.003
					C391.369,198.68,391.454,198.648,391.538,198.615z M389.997,198.324c0.065,0.065,0.12,0.14,0.179,0.211
					c-0.059-0.07-0.113-0.145-0.18-0.207c-0.152-0.141-0.325-0.281-0.507-0.42c0.003-0.067,0.018-0.136,0.026-0.204
					c-0.008,0.066-0.021,0.134-0.023,0.2C389.67,198.049,389.845,198.188,389.997,198.324z M389.211,196.911
					c-0.02,0.076-0.025,0.148-0.036,0.225c0.09,0.061,0.176,0.122,0.262,0.183c-0.088-0.062-0.175-0.123-0.267-0.184
					C389.188,197.059,389.192,196.986,389.211,196.911z M378.579,209.794c-0.012-0.013-0.024-0.025-0.036-0.037
					c-0.04-0.038-0.081-0.074-0.119-0.116c-1.653-1.781-1.285-4.996,0.969-7.003c1.068-0.953,2.348-1.436,3.548-1.465c0,0,0,0,0,0
					c-1.202,0.029-2.48,0.517-3.548,1.47c-2.25,2.003-2.617,5.218-0.968,6.995c0.039,0.043,0.079,0.08,0.118,0.119
					c0.013,0.012,0.025,0.024,0.038,0.036c0.018-0.007,0.034-0.012,0.052-0.02c-0.017,0.007-0.035,0.013-0.052,0.02c0,0,0,0,0,0
					C378.579,209.793,378.579,209.794,378.579,209.794z M376.279,211.361c0.352-0.201,0.713-0.397,1.075-0.579
					c0.362-0.182,0.725-0.351,1.083-0.499c-0.357,0.148-0.721,0.317-1.083,0.499C376.992,210.964,376.631,211.16,376.279,211.361
					c-0.528,0.302-1.038,0.618-1.505,0.921C375.241,211.979,375.75,211.663,376.279,211.361z M374.322,212.58
					c-0.291,0.195-0.559,0.381-0.798,0.55C373.763,212.961,374.031,212.775,374.322,212.58z M372.903,213.58
					c-0.173,0.128-0.309,0.232-0.402,0.305C372.594,213.812,372.73,213.708,372.903,213.58z M372.36,213.999
					c0,0,0.045,0.021,0.127,0.06C372.405,214.02,372.36,213.999,372.36,213.999z M372.843,214.225
					c0.456,0.211,1.194,0.547,2.038,0.907C374.036,214.772,373.298,214.436,372.843,214.225z M375.31,215.313
					c0.292,0.122,0.591,0.244,0.893,0.364C375.902,215.558,375.602,215.435,375.31,215.313z M376.94,222.444
					c0.478,0.87,1.214,1.513,2.101,1.829C378.153,223.957,377.417,223.314,376.94,222.444z M379.212,224.335
					c-0.018-0.006-0.039-0.006-0.057-0.011C379.174,224.329,379.194,224.329,379.212,224.335z M380.868,224.471
					c-0.001,0-0.002,0-0.003,0c0.084-0.011,0.152-0.036,0.225-0.057c0.027-0.064,0.055-0.124,0.082-0.188
					c-0.027,0.064-0.056,0.127-0.082,0.192C381.015,224.432,380.944,224.461,380.868,224.471z M381.334,224.803
					c-0.26,0.653-0.484,1.358-0.676,2.056C380.85,226.161,381.074,225.456,381.334,224.803z M380.128,229.084
					c0.117-0.77,0.067-0.475,0.447-1.922c-0.381,1.447,0.134,1.881,0.018,2.652c-0.03,0.199,0.704,0.681,0.69,0.79
					C381.298,230.495,380.098,229.283,380.128,229.084z M382.661,229.888c-0.493,0.258-0.962,0.501-1.378,0.715
					C381.699,230.389,382.168,230.146,382.661,229.888c0.566-0.296,1.158-0.61,1.722-0.916
					C383.82,229.278,383.227,229.592,382.661,229.888z M385.183,228.976c0.034,0.372,0.124,0.732,0.241,1.083
					C385.307,229.708,385.216,229.348,385.183,228.976C385.182,228.976,385.183,228.976,385.183,228.976z M390.888,232.77
					c0.601-0.239,1.161-0.609,1.618-1.139c0.023-0.027,0.044-0.054,0.065-0.081c-0.021,0.027-0.04,0.055-0.063,0.081
					C392.051,232.162,391.49,232.531,390.888,232.77z M394.02,233.742c-0.356-0.708-0.702-1.46-0.974-2.19
					C393.318,232.281,393.664,233.034,394.02,233.742z M395.141,235.798c-0.263-0.449-0.568-0.99-0.877-1.581
					C394.574,234.808,394.878,235.349,395.141,235.798z M395.91,237.055c-0.005-0.003,0.615-1.429,1.276-3.05
					C396.525,235.626,395.904,237.052,395.91,237.055z M398.357,232.024c-0.006,0.016-0.01,0.03-0.016,0.046c0,0,0,0,0,0
					C398.346,232.055,398.352,232.04,398.357,232.024z M405.176,229.8c-0.094,2.298-1.823,3.861-4.04,3.653
					c-0.612-0.06-1.19-0.269-1.721-0.571c0.53,0.302,1.108,0.51,1.718,0.57c2.219,0.207,3.95-1.357,4.039-3.653
					c0.008-0.076-0.004-0.144-0.012-0.217c-0.042-0.031-0.081-0.061-0.123-0.091c0.042,0.031,0.083,0.062,0.126,0.092
					C405.164,229.656,405.178,229.727,405.176,229.8z M410.186,230.251c0.092,0.419,0.175,0.804,0.244,1.131
					c0.069,0.327,0.125,0.597,0.164,0.785c0.026,0.125,0.044,0.214,0.054,0.259c-0.01-0.045-0.028-0.134-0.054-0.259
					c-0.039-0.188-0.095-0.457-0.164-0.785C410.361,231.055,410.279,230.67,410.186,230.251c-0.154-0.698-0.334-1.489-0.525-2.262
					C409.852,228.762,410.033,229.553,410.186,230.251z"/>
				<path d="M406.287,215.655c0.013,0.019,0.063,0.094,0.133,0.196c0.062,0.088,0.139,0.196,0.238,0.333
					c0.064,0.088,0.134,0.182,0.213,0.285c0,0.001-0.001,0.002-0.001,0.003c0.38,0.489,0.918,1.141,1.554,1.769
					c0.098,0.101,0.192,0.195,0.29,0.287c-0.569-0.737-1.164-1.507-1.777-2.303c-0.005,0.021-0.012,0.042-0.018,0.063
					c0.006-0.021,0.012-0.043,0.017-0.064c-0.227-0.294-0.456-0.592-0.686-0.891c-0.004,0.011-0.012,0.019-0.014,0.03
					c-0.006,0.022-0.002,0.044-0.004,0.067C406.23,215.508,406.243,215.587,406.287,215.655z"/>
				<path d="M391.155,205.658c-0.008,0.038-0.027,0.073-0.046,0.108c-0.032,0.063-0.074,0.122-0.132,0.165
					c-0.007,0.005-0.007,0.005-0.014,0.01c-0.043,0.028-0.089,0.045-0.135,0.059c-0.009,0.003-0.016,0.009-0.025,0.011
					c-0.009,0.002-0.018,0-0.027,0.001c-0.047,0.008-0.094,0.014-0.141,0.007c-0.012-0.002-0.046-0.007-0.086-0.014
					c-0.089-0.014-0.246-0.041-0.454-0.08c-0.088-0.016-0.187-0.035-0.292-0.056c-0.047-0.009-0.087-0.017-0.137-0.026
					c-1.897,1.682-3.109,3.854-3.575,6.09c0.001,0.001,0.001,0.001,0.002,0.002c0-0.002,0-0.003,0.001-0.005
					c0.192,0.189,0.347,0.352,0.463,0.477c0.127,0.135,0.207,0.226,0.228,0.25c0.069,0.081,0.095,0.191,0.077,0.299
					c0,0,0,0.001-0.001,0.001c0,0.001,0,0.002,0,0.004c-0.006,0.042-0.042,0.072-0.059,0.111c-0.025,0.056-0.039,0.119-0.082,0.159
					c-0.008,0.008-0.017,0.015-0.025,0.023c-0.016,0.011-0.066,0.05-0.132,0.101c-0.091,0.071-0.221,0.172-0.393,0.303
					c-0.089,0.068-0.186,0.143-0.292,0.224c-0.044,2.238,0.636,4.408,1.975,6.179c0.362-0.034,0.637-0.046,0.812-0.05
					c0.095-0.003,0.169-0.004,0.189-0.004c0.07,0,0.132,0.026,0.189,0.063c0.03,0.019,0.061,0.038,0.086,0.065
					c0.047,0.061,0.069,0.136,0.076,0.215c0.003,0.029,0.01,0.057,0.007,0.086c-0.001,0.004-0.003,0.021-0.004,0.028
					c-0.007,0.089-0.051,0.431-0.135,0.942c1.62,1.488,3.59,2.352,5.595,2.656c0.376-0.409,0.646-0.667,0.69-0.707
					c0.076-0.07,0.175-0.1,0.272-0.089c0.003,0,0.005-0.001,0.007-0.001c0.017,0.002,0.031,0.012,0.046,0.016
					c0.084,0.019,0.162,0.063,0.215,0.134c0.013,0.02,0.066,0.096,0.142,0.205c0.023,0.033,0.049,0.071,0.077,0.112
					c0.086,0.124,0.189,0.273,0.311,0.454c2.02-0.015,4.013-0.556,5.78-1.662c0.005-0.213,0.015-0.389,0.025-0.54
					c0.015-0.238,0.031-0.4,0.034-0.432c0.012-0.104,0.065-0.202,0.151-0.256c0.038-0.024,0.08-0.038,0.123-0.047
					c0.005-0.001,0.009-0.005,0.014-0.005c0.023-0.004,0.048,0.002,0.071,0.003c0.026,0.001,0.052-0.003,0.078,0.003
					c0.036,0.009,0.21,0.055,0.465,0.13c0.122,0.036,0.257,0.076,0.415,0.126c1.571-1.368,2.684-3.109,3.285-5.033
					c-0.078-0.104-0.148-0.199-0.212-0.288c-0.1-0.136-0.177-0.245-0.238-0.333c-0.071-0.101-0.122-0.176-0.135-0.197
					c-0.045-0.069-0.057-0.147-0.051-0.224c0.001-0.023-0.003-0.047,0.003-0.07c0.003-0.01,0.01-0.018,0.014-0.028
					c-0.478-0.621-0.961-1.25-1.445-1.88c0,0.017,0.002,0.033,0.001,0.05c0-0.016-0.001-0.033-0.001-0.05
					c-1.085-3.222-3.362-5.927-5.83-7.679c-0.451-0.11-0.912-0.189-1.381-0.221c0.47,0.032,0.93,0.111,1.381,0.221
					c-0.87-1.167-1.581-2.138-2.052-2.813c-1.888,0.046-3.832,0.574-5.589,1.65c-0.063,0.434-0.122,0.764-0.157,0.932
					C391.167,205.602,391.159,205.643,391.155,205.658z M400.137,211.204c1.25,1.846,0.748,4.323-1.03,5.653
					c-1.781,1.325-4.298,1.101-5.712-0.623c-1.411-1.721-1.063-4.405,0.881-5.853C396.218,208.93,398.889,209.361,400.137,211.204z
					 M394.452,217.592c0.76,0.396,1.616,0.56,2.465,0.488C396.068,218.151,395.211,217.988,394.452,217.592z M394.049,210.076
					c0.801-0.598,1.713-0.904,2.612-0.947C395.762,209.171,394.849,209.477,394.049,210.076z M399.562,217.466
					c-0.361,0.268-0.753,0.463-1.155,0.625C398.809,217.93,399.202,217.734,399.562,217.466z M401.219,213.449
					c0.001-0.848-0.24-1.702-0.751-2.463C400.979,211.747,401.22,212.602,401.219,213.449z M393.821,209.771
					c0.872-0.651,1.865-0.983,2.845-1.027C395.687,208.788,394.693,209.119,393.821,209.771z M404.634,214.987
					c-0.308,1.462-1.012,2.838-2.048,3.963c-0.345,0.375-0.728,0.722-1.145,1.035c-0.42,0.311-0.862,0.579-1.32,0.804
					c-0.458,0.225-0.932,0.406-1.416,0.543c-0.484,0.137-0.977,0.231-1.474,0.279c0.497-0.049,0.99-0.142,1.474-0.279
					c0.484-0.137,0.958-0.318,1.416-0.543c0.458-0.225,0.9-0.493,1.32-0.804c0.417-0.313,0.799-0.66,1.145-1.035
					C403.622,217.825,404.326,216.449,404.634,214.987z M401.606,213.446c-0.004,1.226-0.473,2.437-1.329,3.373
					C401.133,215.883,401.601,214.672,401.606,213.446c0.002-0.613-0.111-1.23-0.35-1.818
					C401.494,212.216,401.608,212.833,401.606,213.446z"/>
			</g>
		</g>
	</g>
	<g>
		<g>
			<g>
				
					<rect x="178.957" y="353.063" transform="matrix(-1 -1.224647e-16 1.224647e-16 -1 362.8965 750.3787)" style="fill:#FFFFFF;stroke:#263238;stroke-linecap:round;stroke-linejoin:round;stroke-miterlimit:10;" width="4.982" height="44.252"/>
				
					<rect x="176.613" y="381.783" transform="matrix(-1 -1.224647e-16 1.224647e-16 -1 362.6034 812.5079)" style="fill:#263238;stroke:#263238;stroke-linecap:round;stroke-linejoin:round;stroke-miterlimit:10;" width="9.378" height="48.942"/>
				
					<rect x="176.476" y="439.12" transform="matrix(-1 -1.224647e-16 1.224647e-16 -1 362.1612 892.7792)" style="fill:#263238;stroke:#263238;stroke-linecap:round;stroke-linejoin:round;stroke-miterlimit:10;" width="9.208" height="14.54"/>
				<g>
					
						<ellipse transform="matrix(0.9732 -0.2298 0.2298 0.9732 -99.2468 41.3656)" style="fill:#263238;stroke:#263238;stroke-linecap:round;stroke-linejoin:round;stroke-miterlimit:10;" cx="128.011" cy="446.874" rx="7.754" ry="7.754"/>
					<path style="fill:#FFFFFF;stroke:#263238;stroke-linecap:round;stroke-linejoin:round;stroke-miterlimit:10;" d="
						M124.376,446.874c0,2.008,1.627,3.635,3.635,3.635c2.008,0,3.635-1.627,3.635-3.635c0-2.008-1.627-3.635-3.635-3.635
						C126.004,443.239,124.376,444.867,124.376,446.874z"/>
				</g>
				<g>
					
						<ellipse transform="matrix(0.3809 -0.9246 0.9246 0.3809 -267.4739 494.2894)" style="fill:#FFFFFF;stroke:#263238;stroke-linecap:round;stroke-linejoin:round;stroke-miterlimit:10;" cx="235.361" cy="446.874" rx="7.754" ry="7.754"/>
					<path style="fill:#FFFFFF;stroke:#263238;stroke-linecap:round;stroke-linejoin:round;stroke-miterlimit:10;" d="
						M231.727,446.874c0,2.008,1.627,3.635,3.635,3.635c2.007,0,3.635-1.627,3.635-3.635c0-2.008-1.627-3.635-3.635-3.635
						C233.354,443.239,231.727,444.867,231.727,446.874z"/>
				</g>
				<polygon style="fill:#263238;stroke:#263238;stroke-linecap:round;stroke-linejoin:round;stroke-miterlimit:10;" points="
					177.688,428.7 181.565,427.246 185.442,428.7 242.389,438.878 242.389,443.239 238.754,443.239 236.089,441.058 
					183.261,435.658 183.261,442.997 178.657,442.997 178.657,435.782 127.042,441.058 124.377,443.239 120.742,443.239 
					120.742,438.878 				"/>
			</g>
			<g>
				<path style="fill:#878787;stroke:#263238;stroke-linecap:round;stroke-linejoin:round;stroke-miterlimit:10;" d="
					M169.893,327.545c0,0-14.64,0.439-19.032-0.439c-4.392-0.877-11.956-1.096-11.712,5.921c0.244,7.017,6.588,23.245,15.372,29.824
					c8.784,6.579,41.481,6.579,41.481,6.579h32.167c7.164,0,12.101-7.214,9.465-13.876c-0.049-0.125-0.1-0.251-0.151-0.378
					c-5.124-12.719-23.181-21.491-40.017-24.78C180.629,327.106,169.893,327.545,169.893,327.545z"/>
				<path style="fill:none;stroke:#263238;stroke-linecap:round;stroke-linejoin:round;stroke-miterlimit:10;" d="M148.613,333.634
					c0,0-2.539,5.925,17.774,9.31c20.313,3.386,49.513,0.423,58.4,2.962c8.887,2.539,9.733,9.733,7.617,13.965"/>
			</g>
		</g>
		<g>
			<path style="fill:#263238;stroke:#263238;stroke-linecap:round;stroke-linejoin:round;stroke-miterlimit:10;" d="
				M227.898,305.878c0,0,50.076,7.704,59.321,13.097c9.245,5.393,23.882,13.354,20.03,28.248
				c-3.852,14.894-27.221,69.593-27.478,70.62c-0.257,1.027-0.257,5.65-0.257,5.65s1.541,1.284,1.541,2.825s-0.77,5.906-0.77,5.906
				l9.245,9.245c0,0,12.583,6.42,12.326,8.988c-0.257,2.568-5.65,3.852-8.218,4.622c-2.568,0.77-11.299,0.257-15.665-0.77
				c-4.366-1.027-15.665-7.447-20.287-8.988c-4.622-1.541-10.529-2.054-10.786-5.393c-0.257-3.338,5.65-11.042,6.677-13.867
				s2.311-11.813,3.595-13.867c1.284-2.054,1.798-2.825,2.311-4.879s11.042-54.442,11.042-54.442s-44.683-39.547-46.224-41.345
				c-1.541-1.798-8.536-7.279-5.681-7.363C221.478,304.08,227.898,305.878,227.898,305.878z"/>
			<path style="fill:#263238;stroke:#263238;stroke-linecap:round;stroke-linejoin:round;stroke-miterlimit:10;" d="
				M218.622,304.164c0,0,33.672,6.849,44.971,12.756s15.151,9.502,15.408,13.354c0.257,3.852-24.396,74.729-25.423,80.892
				c-1.027,6.163-6.163,19.003-6.163,19.003s0.257,4.622,0.514,5.393c0.257,0.77-1.027,4.366-1.027,4.366l3.852,7.961
				c0,0,6.934,5.906,12.07,7.961c5.136,2.054,4.622,4.366,3.595,6.42s-7.447,3.082-14.124,3.082c-6.677,0-13.61-2.825-18.49-4.622
				c-4.879-1.798-13.61-8.218-17.205-10.272c-3.595-2.054-7.99-6.469-4.123-9.398c3.867-2.929,12.854-13.201,12.854-13.201
				s5.393-25.166,5.393-29.275s1.284-25.937,2.825-34.411s3.082-20.544,3.082-20.544s-54.955,1.798-65.741,0
				s-17.976-3.595-20.544-9.758c-2.568-6.163-1.896-11.05-1.896-11.05s7.802-13.603,15.249-18.482
				c7.447-4.879,44.94-4.366,44.94-4.366L218.622,304.164z"/>
			<g>
				<path style="fill:#92E3A9;stroke:#263238;stroke-linecap:round;stroke-linejoin:round;stroke-miterlimit:10;" d="
					M262.823,455.849c-5.136-2.054-12.07-7.961-12.07-7.961l-3.852-7.961c0,0-8.074,2.519-17.39,1.131
					c-4.385-0.653-8.57-2.818-11.786-4.928c-1.973,2.034-3.916,3.918-5.249,4.928c-3.867,2.929,0.528,7.343,4.123,9.397
					c3.595,2.055,12.326,8.474,17.205,10.272c4.879,1.798,11.813,4.622,18.49,4.622c6.677,0,13.097-1.027,14.124-3.082
					C267.445,460.214,267.959,457.903,262.823,455.849z"/>
				<path style="fill:#FFFFFF;stroke:#263238;stroke-linecap:round;stroke-linejoin:round;stroke-miterlimit:10;" d="
					M233.804,460.728c4.879,1.798,11.813,4.622,18.49,4.622c6.677,0,13.097-1.027,14.124-3.082c0.232-0.463,0.432-0.94,0.553-1.423
					c-2.556,0.4-6.808,0.999-10.311,1.166c-5.393,0.257-14.894-2.311-20.801-5.65c-5.203-2.941-18.624-14.074-21.751-16.687
					c-0.603,0.549-1.158,1.023-1.633,1.383c-3.867,2.929,0.528,7.343,4.123,9.397C220.194,452.51,228.925,458.93,233.804,460.728z"
					/>
			</g>
		</g>
	</g>
	<g>
		
			<line style="fill:none;stroke:#263238;stroke-width:7;stroke-linecap:round;stroke-linejoin:round;stroke-miterlimit:10;" x1="251.941" y1="228.91" x2="239.688" y2="211.347"/>
	</g>
	<g>
		<g>
			<path style="fill:none;stroke:#263238;stroke-linecap:round;stroke-linejoin:round;stroke-miterlimit:10;" d="M161.374,245.632
				c0,0-3.337-14.376-5.648-18.74s-3.081-10.012,0.257-14.89"/>
			<g>
				<path style="fill:#FFFFFF;stroke:#263238;stroke-linecap:round;stroke-linejoin:round;stroke-miterlimit:10;" d="
					M242.497,221.758l-13.606,19.254l-12.836,5.134l-13.606-0.513l-4.621-13.349c0,0-4.621-4.364-17.97-3.081
					c-13.349,1.284-18.741,14.633-18.484,16.43c0.257,1.797,9.499,23.875,12.066,27.212c2.567,3.337,3.081,9.499,7.445,10.525
					c4.364,1.027,14.89-5.905,14.89-5.905s34.657-21.564,38.765-23.875c4.107-2.311,11.039-5.391,13.349-6.675
					c2.311-1.284,4.108-4.107,4.108-4.107s2.054,2.824,3.594,1.54s4.621-9.755,4.621-9.755s0.897-5.534,1.09-7.645
					c0.193-2.11-8.535-4.934-11.616-6.218C246.605,219.447,247.118,216.623,242.497,221.758z"/>
				<path style="fill:#263238;stroke:#263238;stroke-linecap:round;stroke-linejoin:round;stroke-miterlimit:10;" d="
					M249.685,220.73c-3.081-1.283-2.567-4.107-7.188,1.027l-13.606,19.254l-2.665,1.066c0.285,2.008,1.016,5.868,2.665,8.433
					c1.046,1.627,2.826,2.882,4.464,3.772c0.511-0.304,0.915-0.541,1.184-0.691c4.107-2.311,11.039-5.391,13.349-6.675
					c2.31-1.284,4.107-4.107,4.107-4.107s2.054,2.824,3.594,1.54s4.621-9.755,4.621-9.755s0.897-5.534,1.09-7.645
					C261.494,224.838,252.766,222.014,249.685,220.73z"/>
				<path style="fill:none;stroke:#263238;stroke-linecap:round;stroke-linejoin:round;stroke-miterlimit:10;" d="M199.882,244.862
					c0,0-6.161-3.851-16.173,2.054"/>
			</g>
			<path style="fill:none;stroke:#263238;stroke-linecap:round;stroke-linejoin:round;stroke-miterlimit:10;" d="M197.828,232.283
				l-1.284-13.093c0,0-1.284-14.633-8.472-20.024"/>
		</g>
		<path style="fill:none;stroke:#263238;stroke-width:2;stroke-linecap:round;stroke-linejoin:round;stroke-miterlimit:10;" d="
			M239.688,211.347c0,0-7.352-2.042-12.661,8.169c-5.31,10.211-9.394,32.266-11.845,45.745
			c-2.451,13.478-38.977,170.399-11.028,196.456c14.556,13.57,31.449,13.07,61.673,9.394c30.224-3.676,42.069-5.718,40.026-12.253
			c-2.042-6.535-26.548-4.901-26.548-4.901"/>
	</g>
</g>
</svg>
