<?xml version="1.0" encoding="utf-8"?>
<!-- Generator: Adobe Illustrator 27.5.0, SVG Export Plug-In . SVG Version: 6.00 Build 0)  -->
<svg version="1.1" xmlns="http://www.w3.org/2000/svg" xmlns:xlink="http://www.w3.org/1999/xlink" x="0px" y="0px"
	 viewBox="0 0 500 500" style="enable-background:new 0 0 500 500;" xml:space="preserve">
<g id="Background_Simple">
	<g>
		<path style="fill:#C6FF00;" d="M60.948,241.74c-15.521,29.977-13.048,67.476,2.594,97.39
			c15.642,29.914,43.23,52.521,74.052,66.289c30.822,13.768,64.792,19.246,98.52,20.658c19.99,0.837,40.1,0.286,59.847-2.931
			c22.613-3.684,45.198-11.168,62.829-25.799c12.285-10.195,21.674-23.434,29.915-37.107c18.426-30.574,31.738-63.9,44.966-97.056
			c6.522-16.348,13.074-32.791,16.775-49.999c7.037-32.717,3.165-68.006-12.556-97.549c-15.722-29.543-43.542-52.826-75.926-61.263
			c-21.43-5.583-44.216-4.723-65.793,0.263c-14.654,3.386-28.873,8.649-42.201,15.619c-32.534,17.014-58.146,44.179-86.096,67.215
			c-12.287,10.126-21.815,23.537-34.32,33.791c-12.667,10.386-26.071,19.85-38.547,30.472
			C81.605,213.145,69.111,225.974,60.948,241.74z"/>
		<path style="opacity:0.7;fill:#FFFFFF;" d="M60.948,241.74c-15.521,29.977-13.048,67.476,2.594,97.39
			c15.642,29.914,43.23,52.521,74.052,66.289c30.822,13.768,64.792,19.246,98.52,20.658c19.99,0.837,40.1,0.286,59.847-2.931
			c22.613-3.684,45.198-11.168,62.829-25.799c12.285-10.195,21.674-23.434,29.915-37.107c18.426-30.574,31.738-63.9,44.966-97.056
			c6.522-16.348,13.074-32.791,16.775-49.999c7.037-32.717,3.165-68.006-12.556-97.549c-15.722-29.543-43.542-52.826-75.926-61.263
			c-21.43-5.583-44.216-4.723-65.793,0.263c-14.654,3.386-28.873,8.649-42.201,15.619c-32.534,17.014-58.146,44.179-86.096,67.215
			c-12.287,10.126-21.815,23.537-34.32,33.791c-12.667,10.386-26.071,19.85-38.547,30.472
			C81.605,213.145,69.111,225.974,60.948,241.74z"/>
	</g>
</g>
<g id="Window">
	<g>
		
			<line style="fill:none;stroke:#263238;stroke-linecap:round;stroke-linejoin:round;stroke-miterlimit:10;" x1="352.745" y1="182.325" x2="450.956" y2="182.325"/>
		
			<line style="fill:none;stroke:#263238;stroke-linecap:round;stroke-linejoin:round;stroke-miterlimit:10;" x1="272.053" y1="43.913" x2="272.053" y2="123.489"/>
		
			<line style="fill:none;stroke:#263238;stroke-linecap:round;stroke-linejoin:round;stroke-miterlimit:10;" x1="132.019" y1="182.325" x2="73.03" y2="182.325"/>
		
			<line style="fill:none;stroke:#263238;stroke-linecap:round;stroke-linejoin:round;stroke-miterlimit:10;" x1="355.881" y1="140.742" x2="393.572" y2="103.051"/>
		
			<line style="fill:none;stroke:#263238;stroke-linecap:round;stroke-linejoin:round;stroke-miterlimit:10;" x1="378.157" y1="103.986" x2="397.002" y2="85.141"/>
		
			<line style="fill:none;stroke:#263238;stroke-linecap:round;stroke-linejoin:round;stroke-miterlimit:10;" x1="46.179" y1="312.886" x2="83.87" y2="275.194"/>
		
			<line style="fill:none;stroke:#263238;stroke-linecap:round;stroke-linejoin:round;stroke-miterlimit:10;" x1="68.455" y1="276.129" x2="87.3" y2="257.284"/>
		
			<line style="fill:none;stroke:#263238;stroke-linecap:round;stroke-linejoin:round;stroke-miterlimit:10;" x1="359.311" y1="122.831" x2="371.31" y2="110.833"/>
	</g>
</g>
<g id="Stars">
	<g>
		<path style="fill:#FFFFFF;" d="M304.213,85.119l2.388,7.719c0.327,1.057,1.024,1.89,1.907,2.282l6.453,2.856l-6.453,2.856
			c-0.884,0.391-1.58,1.225-1.907,2.282l-2.388,7.719l-2.388-7.719c-0.327-1.057-1.024-1.89-1.907-2.282l-6.453-2.856l6.453-2.856
			c0.884-0.391,1.58-1.225,1.907-2.282L304.213,85.119z"/>
		<path style="fill:#FFFFFF;" d="M334.828,118.775l2.311,7.251c0.316,0.993,0.991,1.776,1.845,2.143l6.244,2.683l-6.244,2.683
			c-0.855,0.367-1.529,1.15-1.845,2.143l-2.311,7.251l-2.31-7.251c-0.316-0.993-0.99-1.776-1.845-2.143l-6.244-2.683l6.244-2.683
			c0.855-0.367,1.529-1.15,1.845-2.143L334.828,118.775z"/>
		<path style="opacity:0.7;fill:#FFFFFF;" d="M348.911,87.901l0.762,2.391c0.104,0.327,0.327,0.586,0.609,0.707l2.059,0.885
			l-2.059,0.885c-0.282,0.121-0.504,0.379-0.609,0.707l-0.762,2.391l-0.762-2.391c-0.104-0.327-0.327-0.586-0.609-0.707
			l-2.059-0.885l2.059-0.885c0.282-0.121,0.504-0.379,0.609-0.707L348.911,87.901z"/>
		<path style="fill:#FFFFFF;" d="M405.169,195.719l3.908,12.632c0.535,1.73,1.675,3.093,3.121,3.734l10.56,4.674l-10.56,4.674
			c-1.446,0.64-2.586,2.004-3.121,3.734l-3.908,12.632l-3.908-12.632c-0.535-1.73-1.675-3.094-3.121-3.734l-10.56-4.674l10.56-4.674
			c1.446-0.64,2.586-2.004,3.121-3.734L405.169,195.719z"/>
		<path style="fill:#FFFFFF;" d="M359.311,279.12l2.311,7.251c0.316,0.993,0.991,1.776,1.845,2.143l6.244,2.683l-6.244,2.683
			c-0.855,0.367-1.529,1.15-1.845,2.143l-2.311,7.251l-2.31-7.251c-0.316-0.993-0.991-1.776-1.845-2.143l-6.244-2.683l6.244-2.683
			c0.855-0.367,1.529-1.15,1.845-2.143L359.311,279.12z"/>
		<path style="fill:#FFFFFF;" d="M398.42,266.052l0.762,2.391c0.104,0.328,0.327,0.586,0.609,0.707l2.059,0.885l-2.059,0.885
			c-0.282,0.121-0.504,0.379-0.609,0.707l-0.762,2.391l-0.762-2.391c-0.104-0.327-0.327-0.586-0.609-0.707l-2.059-0.885l2.059-0.885
			c0.282-0.121,0.504-0.379,0.609-0.707L398.42,266.052z"/>
		<path style="fill:#FFFFFF;" d="M246.005,95.867l1.736,6.063c0.238,0.83,0.744,1.485,1.387,1.792l4.692,2.243l-4.692,2.243
			c-0.643,0.307-1.149,0.962-1.387,1.792l-1.736,6.063L244.269,110c-0.238-0.83-0.744-1.485-1.387-1.792l-4.692-2.243l4.692-2.243
			c0.643-0.307,1.149-0.962,1.387-1.792L246.005,95.867z"/>
	</g>
</g>
<g id="Character_2">
	<g>
		<path style="fill:#C6FF00;" d="M180.489,300.963c0,0-17.269-21.15-18.508-28.172l-13.319,7.053l-48.552-0.384
			c0,0-4.772-8.12-6.689-12.764s-2.707-12.728,8.181-14.918c0,0,6.406-11.462,8.716-20.641c2.31-9.179-1.237-19.409,2.172-26.222
			c3.409-6.813,4.841-8.612,10.573-11.975c5.732-3.363,18.221-11.999,23.866-15.564c5.645-3.565,12.651-6.92,18.846-8.648
			c6.195-1.728,54.221-27.987,54.221-27.987l2.16,3.568l-0.368-3.568l6.914,4.699c0,0,5.13,0.892,14.829-2.55
			c9.699-3.443,29.194-14.561,42.245-8.625c13.05,5.936,32.626,26.652,38.562,32.816c5.936,6.164,18.528,18.804,21.641,28.136
			c3.113,9.332,9.68,14.915,13.027,18.595c3.347,3.68,19.163,16.224,8.438,32.232c-10.724,16.008-50.801,3.686-50.801,3.686
			s1.823-9.472,5.639-15.636c0,0-2.391-5.667-7.223-11.704c-4.831-6.037-21.513-24.882-31.097-29.38
			c-9.584-4.498-47.675,84.433-47.675,84.433l-7.758-2.85l-1.315,11.949C227.212,286.543,187.523,296.061,180.489,300.963z"/>
		<path style="opacity:0.2;" d="M275.127,156.519c11.709-1.42,23.51,3.964,31.997,12.155c8.488,8.19,14.07,18.925,18.486,29.862
			c3.15,7.8,5.784,15.808,7.88,23.954c7.706-2.146,16.95-2.754,24.703-0.788c-5.342,1.486-10.803,1.873-16.913,4.296
			c5.906,0.054,11.923,0.913,17.196,3.575c5.273,2.662,9.739,7.318,11.18,13.046c0.137,0.546-0.06,1.408-0.597,1.24l-7.661,10.772
			l-44.758-1.787c0,0-1.341-8.032,5.639-18.748c0,0-3.85-8.871-12.951-18.816c-9.101-9.945-23.554-20.619-23.554-20.619
			L275.127,156.519z"/>
		<path style="opacity:0.2;" d="M96.076,272.791c0,0-8.015-15.194,11.375-19.902c0,0,5.641-4.611,7.404-11.006
			c1.763-6.395,1.984-41.513,27.962-46.165c25.978-4.652,38.472-10.192,44.818-27.502c6.346-17.31,43.472-3.227,43.472-3.227
			l16.308,84.083l-20.203,37.475l-46.722,14.416c0,0-18.027-23.097-22.616-37.764c-4.59-14.667-38.435,10.649-38.435,10.649
			l-16.913,7.252L96.076,272.791z"/>
		<path style="fill:#FFFFFF;" d="M302.677,282.038l-12.134-0.547l-3.588-8.309l-1.644,1.665l-2.814-11.484
			c0,0,16.188-4.223,27.889-12.609c13.949-8,38.681-19.211,55.788-9.25c0,0-0.471,6.949-1.042,11.264
			c-0.571,4.315-1.949,10.984-14.365,17.658l-42.659,9.314"/>
		<path style="fill:#FFFFFF;" d="M199.202,112.488l-16.154-12.891L164.839,115.9l-22.023,12.512l5.529,25.214
			c0,0,12.065,14.883,17.428,20.762c5.363,5.879,4.635,6.262,11.329,8.959c6.694,2.697,22.532,3.817,22.532,3.817
			s3.859-1.197,8.024-3.752c4.165-2.555,5.34-10.726,5.34-10.726l6.249-5.6l0.857-10.048c0,0,2.821-6.616,1.93-14.019l-9.148-12.346
			c0,0,2.999,0.223,3.911-2.252c0.912-2.475,1.516-8.601,1.516-8.601s0.103-3.049-4.313-9.078
			c-4.415-6.029-4.801-8.245-10.489-6.758C197.826,105.473,199.202,112.488,199.202,112.488z"/>
		<path style="fill:#FFFFFF;" d="M227.211,268.554c-1.18-2.338-13.555-18.505-18.021-22.244c0,0-24.287-10.164-29.648-8.689
			l-15.693,4.761c0,0-18.537,5.466-22.992,7.794c-4.445,2.328-11.88,4.15-20.264,6.119c-8.373,1.97-18.452,3.244-19.938,10.227
			c-1.485,6.983-2.475,18.178-0.305,25.351c0,0-0.095,7.151,1.137,9.089c1.243,1.948,11.027,2.886,19.779-1.453
			c8.763-4.339,19.801-11.396,27.394-19.664l20.222-9.268l12.839,10.522l7.309,1.485l6.498-4.381l4.455,2.896h3.865l1.064-5.498
			l-9.384-11.87l19.316,11.87l3.876-2.812l-1.253-7.193l7.035,7.193C224.504,272.788,228.391,270.892,227.211,268.554z
			 M203.64,255.21l5.087,1.453l5.108,6.309L203.64,255.21z"/>
		<path style="fill:#263238;" d="M193.055,150.895c1.255,1.609,1.621,3.421,0.817,4.049c-0.804,0.628-2.474-0.167-3.729-1.776
			c-1.255-1.609-1.621-3.421-0.817-4.049C190.13,148.492,191.8,149.287,193.055,150.895z"/>
		<path style="fill:#263238;" d="M172.086,162.758c1.255,1.609,1.621,3.421,0.817,4.049c-0.804,0.628-2.474-0.167-3.729-1.776
			c-1.255-1.609-1.621-3.421-0.817-4.049C169.161,160.354,170.83,161.15,172.086,162.758z"/>
		<path style="fill:none;stroke:#263238;stroke-linecap:round;stroke-linejoin:round;stroke-miterlimit:10;" d="M199.202,170.785
			c0,0,4.968-3.312,2.981-11.593"/>
		<path style="fill:none;stroke:#263238;stroke-width:2;stroke-linecap:round;stroke-linejoin:round;stroke-miterlimit:10;" d="
			M182.298,146.086c0,0,2.958-6.348,10.673-6.389"/>
		<path style="fill:none;stroke:#263238;stroke-width:2;stroke-linecap:round;stroke-linejoin:round;stroke-miterlimit:10;" d="
			M169.568,154.83c0,0-5.787,1.929-7.587,7.973"/>
		<path style="fill:none;stroke:#263238;stroke-linecap:round;stroke-linejoin:round;stroke-miterlimit:10;" d="M173.946,158.089
			c4.748,3.197,8.453,7.919,10.428,13.292c1.683,0.564,4.831,1.178,7.24,1.018c0.179-2.082,0.358-4.163,0.537-6.245"/>
		<path style="fill:none;stroke:#263238;stroke-linecap:round;stroke-linejoin:round;stroke-miterlimit:10;" d="M138.429,130.852
			c0,0,0,9.944,5.119,16.536c4.74,6.104,14.519,17.285,15.94,18.906c0.118,0.134,0.219,0.26,0.324,0.404
			c1.143,1.568,8.551,11.627,12.742,14.77c3.747,2.81,20.562,4.977,26.383,5.655c1.283,0.149,2.577-0.121,3.692-0.772l5.031-2.94
			c1.203-0.703,2.121-1.806,2.594-3.116l5.171-14.329c0.234-0.647,0.353-1.331,0.353-2.019v-8.685c0-0.723-0.132-1.439-0.389-2.115
			l-6.247-16.42"/>
		<path style="fill:none;stroke:#263238;stroke-linecap:round;stroke-linejoin:round;stroke-miterlimit:10;" d="M212.999,130.852
			c0,0,1.914,4.473,9.036,12.168"/>
		<path style="fill:none;stroke:#263238;stroke-linecap:round;stroke-linejoin:round;stroke-miterlimit:10;" d="M284.857,262.785
			c0,0,13.467-4.681,22.937-10.53c9.47-5.849,40.386-20.889,59.047-11.141l-0.327,1.765c-0.58,3.131-0.777,6.315-0.715,9.499
			c0.112,5.694-2.458,10.594-14.365,17.658c-14.882,1.867-48.091,11.612-48.091,11.612"/>
		<path style="fill:none;stroke:#263238;stroke-width:2;stroke-linecap:round;stroke-linejoin:round;stroke-miterlimit:10;" d="
			M169.231,271.306c-4.474,0.829-11.202,6.236-13.39,10.225c-2.188,3.989-3.478,8.422-5.684,12.401
			c-2.627,4.738-6.548,8.751-11.225,11.486c-6.121,3.58-13.556,5.068-18.673,9.977c-2.645,2.538-4.47,5.835-5.715,9.283
			c-2.978,8.25-2.708,17.623,0.74,25.688c3.448,8.065,10.037,14.737,18.058,18.284"/>
		<path style="fill:none;stroke:#263238;stroke-linecap:round;stroke-linejoin:round;stroke-miterlimit:10;" d="M172.06,240.35
			c0,0-24.279,5.451-33.631,11.139c-9.352,5.688-34.662,3.697-38.074,15.925c-3.413,12.228,0,24.456,0,24.456
			s-0.853,7.093,1.137,9.092c1.991,1.999,22.466,5.127,46.069-20.467c0,0,13.934-8.469,21.044-9.069"/>
		<path style="fill:none;stroke:#263238;stroke-linecap:round;stroke-linejoin:round;stroke-miterlimit:10;" d="M168.605,243.229
			c0,0,6.512-7.093,13.611-5.322s23.666,6.032,26.979,8.398c3.313,2.367,17.574,19.406,18.017,22.246
			c0.442,2.84-2.713,4.24-2.713,4.24l-15.778-16.132l-9.52-3.017"/>
		<path style="fill:none;stroke:#263238;stroke-linecap:round;stroke-linejoin:round;stroke-miterlimit:10;" d="M202.323,254.631
			l15.143,10.968l1.257,7.192l-3.873,2.804c0,0-15.719-10.479-21.642-12.985"/>
		<polyline style="fill:none;stroke:#263238;stroke-linecap:round;stroke-linejoin:round;stroke-miterlimit:10;" points="
			194.013,262.973 204.91,275.595 203.854,281.1 199.989,281.1 181.719,269.216 		"/>
		<path style="fill:none;stroke:#263238;stroke-linecap:round;stroke-linejoin:round;stroke-miterlimit:10;" d="M154.983,265.113
			c1.126,3.215,6.895,3.68,11.539,4.525s15.197,11.463,15.197,11.463l7.317,1.483l6.489-4.387"/>
		<path style="fill:none;stroke:#263238;stroke-linecap:round;stroke-linejoin:round;stroke-miterlimit:10;" d="M165.774,241.883
			c0,0-5.264-23.349-15.803-36.267"/>
		<path style="fill:none;stroke:#263238;stroke-linecap:round;stroke-linejoin:round;stroke-miterlimit:10;" d="M168.605,240.593
			c0,0,5.34-11.775-2.831-28.48"/>
		<path style="fill:none;stroke:#263238;stroke-linecap:round;stroke-linejoin:round;stroke-miterlimit:10;" d="M161.981,169.601
			c-10.922,2.794-24.98,16.184-41.016,24.461c-11.831,6.107-9.388,21.043-9.975,32.291c-0.587,11.248-9.388,25.426-9.388,25.426
			s-7.921,1.76-9.095,8.12c-1.174,6.36,6.358,17.695,6.358,17.695"/>
		<path style="fill:none;stroke:#263238;stroke-linecap:round;stroke-linejoin:round;stroke-miterlimit:10;" d="M161.981,273.848
			c0,0,10.345,21.418,18.508,26.267"/>
		<path style="fill:none;stroke:#263238;stroke-linecap:round;stroke-linejoin:round;stroke-miterlimit:10;" d="M135.449,252.889
			c0,0-12.072-5.491-22.96-3.301"/>
		<path style="fill:none;stroke:#263238;stroke-linecap:round;stroke-linejoin:round;stroke-miterlimit:10;" d="M138.429,251.489
			c-3.24-3.681-14.46-6.45-14.46-6.45"/>
		<path style="fill:none;stroke:#263238;stroke-linecap:round;stroke-linejoin:round;stroke-miterlimit:10;" d="M314.256,157.802
			c0,0,26.044,21.617,33.024,40.514c5.492,14.868,35.763,28.758,19.052,49.181"/>
		<path style="fill:none;stroke:#263238;stroke-linecap:round;stroke-linejoin:round;stroke-miterlimit:10;" d="M316.641,247.498
			c0,0,0.418-5.23,4.325-11.852c3.907-6.623,23.928-8.009,34.915-4.508"/>
		<path style="fill:#263238;" d="M211.364,196.488c0,1.546-1.254,2.8-2.8,2.8c-1.546,0-2.8-1.254-2.8-2.8s1.254-2.8,2.8-2.8
			C210.111,193.689,211.364,194.942,211.364,196.488z"/>
		<path style="fill:#263238;" d="M214.164,213.751c0,1.546-1.253,2.8-2.8,2.8s-2.8-1.254-2.8-2.8c0-1.546,1.254-2.8,2.8-2.8
			S214.164,212.205,214.164,213.751z"/>
		<path style="fill:none;stroke:#263238;stroke-linecap:round;stroke-linejoin:round;stroke-miterlimit:10;" d="M200.138,122.582
			l-0.498-12.183c-0.087-2.124,1.113-4.091,3.041-4.985l2.02-0.938c2.422-1.124,5.303-0.255,6.698,2.022l6.165,10.058
			c0.599,0.978,0.862,2.124,0.75,3.265l-0.605,6.126c-0.25,2.536-2.282,4.528-4.823,4.727l-2.271,0.178"/>
		<path style="fill:none;stroke:#263238;stroke-linecap:round;stroke-linejoin:round;stroke-miterlimit:10;" d="M220.106,154.83
			c3.151-5.221,1.681-14.088,1.681-14.088l7.862,5.343c0,0,0.787,2.424,0,7.704"/>
		<path style="fill:none;stroke:#263238;stroke-linecap:round;stroke-linejoin:round;stroke-miterlimit:10;" d="M230.277,145.964
			c8.196-1.343,16.229-3.669,23.881-6.898c11.745-4.957,20.682-10.515,33.25-4.014c6.787,3.511,12.636,8.587,19.166,12.509"/>
		<path style="fill:#263238;" d="M168.047,137.361c0,0-24.536-1.739-32.924-9.827c-8.388-8.088-7.942-31.753-7.942-31.753
			s1.01,4.476,2.444,8.205c0.225,0.585,0.461,1.152,0.704,1.68c1.797,3.894,1.797-9.886,1.797-9.886l1.498,5.392
			c0,0,8.988-15.877,15.278-20.071c6.29-4.194,32.951-3.295,45.832,1.797l12.581,21.086c0,0-6.097,0-7.221,4.061
			c-0.355,4.801-0.048,12.314-0.048,12.314s-10.413-3.539-16.999-14.359C183.048,106.002,177.491,125.978,168.047,137.361z"/>
		<path style="fill:#263238;" d="M143.092,130.852c0,0,9.029,13.461,6.537,23.978c0,0-6.807-9.902-8.698-11.989
			c-3.335-3.682-5.362-19.352-5.362-19.352L143.092,130.852z"/>
		<path style="fill:none;stroke:#263238;stroke-linecap:round;stroke-linejoin:round;stroke-miterlimit:10;" d="M325.113,231.663
			c3.122-3.205,7.386-4.985,11.525-6.682c3.633-1.49,7.342-2.998,11.259-3.277"/>
		<path style="fill:#263238;" d="M212.999,250.209l16.448,2.543l1.507,23.437l-14.092-1.57l1.861-1.828l-1.097-6.293l6.874,6.293
			c0,0,2.523-0.898,2.713-4.24C227.403,265.21,212.999,250.209,212.999,250.209z"/>
		<polygon style="fill:#263238;" points="213.835,262.972 208.722,256.659 203.64,255.21 		"/>
		<polygon style="fill:#263238;" points="211.506,273.848 201.207,271.306 195.53,263.73 		"/>
	</g>
</g>
<g id="Character_1">
	<g>
		<path style="fill:#263238;" d="M216.149,229.126c-0.065,2.783,0.65,5.69,2.526,7.747c1.669,1.83,4.075,2.811,6.472,3.436
			c1.109,0.289,2.363,0.496,3.343-0.099c1.121-0.681,1.451-2.129,1.677-3.422c0.99-5.672,1.854-11.885-1.016-16.877
			c-1.059-1.842-3.45-9.224-5.525-9.683C217.59,208.896,216.246,224.991,216.149,229.126z"/>
		<path style="fill:#FFFFFF;" d="M292.766,170.026l4.367,19.49c0,0,1.376,5.903-1.21,13.325l0.918,7.119l1.883,10.793
			c0,0-2.744,17.756-8.528,25.808s-6.414,5.02-6.414,5.02l2.196,22.875c0,0-11.002,7.236-25.143,7.421
			c-14.141,0.185-29.881-5.688-29.881-5.688s-0.09-13.38-1.507-23.437c-1.417-10.058-3.262-20.763-3.262-20.763l-5.536-7.036
			l-4.458-5.998l-3.193-10.255l2.233-6.777l1.149-1.273c0,0,2.497-1.295,4.236-1.606c1.738-0.311,9.031,6.573,9.031,6.573
			l0.82-17.895l1.738-18.993l35.001-10.927l17.616,5.518L292.766,170.026z"/>
		<path style="fill:none;stroke:#263238;stroke-linecap:round;stroke-linejoin:round;stroke-miterlimit:10;" d="M294.241,175.617
			c0,0,3.594,15.66,3.337,17.714c-0.257,2.054-1.662,11.553-1.662,11.553l2.706,14.856c0.161,0.883,0.131,1.786-0.089,2.657
			c-1.172,4.652-5.368,20.274-10.79,28.515c-6.418,9.756-39.713,5.061-46.645-0.074l-6.809-22.05"/>
		<path style="fill:none;stroke:#263238;stroke-linecap:round;stroke-linejoin:round;stroke-miterlimit:10;" d="M266.129,229.696
			c0,0,4.894,6.954,12.223,5.826"/>
		<path style="fill:none;stroke:#263238;stroke-linecap:round;stroke-linejoin:round;stroke-miterlimit:10;" d="M226.186,231.989
			c0,0,5.274,26.437,4.769,44.2c0,0,14.48,5.519,28.41,5.698c13.931,0.179,26.614-7.431,26.614-7.431
			c-1.083-6.932-1.629-21.3-1.629-21.3"/>
		<path style="fill:#263238;" d="M230.493,207.295c0.886,4.442,2.957,8.428,3.843,12.87c0.254,1.275,0.526,2.591,1.276,3.653
			c1.181,1.672,5.158,1.196,7.073,0.474c0.132-0.05-1.519-10.861-1.559-12.296c-0.113-4.076,0.409-8.543,1.893-12.334
			c1.363-3.482,2.674-6.821,2.316-10.631c-0.398-4.234-2.213-8.224-4.079-11.988c0,0,7.467,4.895,16.614,4.387
			c9.147-0.508,4.065-9.4,4.065-9.4s26.169,7.622,41.159,1.27c14.99-6.352,16.769-18.801,12.958-24.645
			c-3.811-5.844-27.411,1.784-25.851,0.715c1.966-1.347,5.446-4.988,4.533-7.657c-0.294-0.86-1.071-1.501-1.938-1.772
			c-3.713-1.16-9.401,2.13-12.67,3.612c-4.344,1.969-8.625,4.164-13.26,5.382c-8.383,2.203-17.111,2.137-25.71,2.426
			c-4.053,0.136-8.082,0.443-12.117,0.816c-3.492,0.322-7.378,0.65-10.119,3.102c-0.085,0.076-0.165,0.159-0.239,0.245
			c-3.697,4.28,2.23,49.48,2.23,49.48L230.493,207.295z"/>
		<path style="fill:#263238;" d="M222.845,164.77c0,0-6.174-2.612-10.212,1.187c-4.037,3.8,2.85,39.659,2.85,39.659l8.405-0.106
			L222.845,164.77z"/>
		<path style="fill:#C6FF00;" d="M119.633,422.872H398.42l-6.349-19.152c0,0-30.482-84.58-49.086-111.287l-9.246-5.889l-7.89-3.506
			l-35.306-1.546l-2.921-8.701c0,0-14.233,9.206-28.258,9.097c-14.025-0.109-30.837-7.293-30.837-7.293l-1.315,11.949
			c0,0-33.928,9.378-39.997,10.835c-6.069,1.457-37.244,16.784-37.244,16.784s-0.501,2.429-1.329,7.23
			c-0.828,4.801-13.37,44.384-13.37,44.384l-18.324,57.095H119.633z"/>
		<path style="fill:none;stroke:#263238;stroke-linecap:round;stroke-linejoin:round;stroke-miterlimit:10;" d="M276.794,200.65
			c0.26,1.765,0.57,3.523,0.928,5.27c0.415,2.023,0.993,4.192,2.618,5.466c1.331,1.043,3.19,1.326,4.354,2.553
			c1.273,1.342,1.333,3.497,0.638,5.211c-0.695,1.714-2.007,3.092-3.29,4.425"/>
		<path style="fill:#263238;" d="M289.469,205.617c0,2.04-0.827,3.694-1.847,3.694c-1.02,0-1.847-1.654-1.847-3.694
			s0.827-3.694,1.847-3.694C288.642,201.922,289.469,203.576,289.469,205.617z"/>
		<path style="fill:#263238;" d="M266.956,206.535c0,2.04-0.827,3.694-1.847,3.694c-1.02,0-1.847-1.654-1.847-3.694
			s0.827-3.694,1.847-3.694C266.129,202.841,266.956,204.495,266.956,206.535z"/>
		<path style="fill:none;stroke:#263238;stroke-width:2;stroke-linecap:round;stroke-linejoin:round;stroke-miterlimit:10;" d="
			M268.335,196.219c0,0-5.841-4.643-12.881,2.097"/>
		<path style="fill:none;stroke:#263238;stroke-width:2;stroke-linecap:round;stroke-linejoin:round;stroke-miterlimit:10;" d="
			M283.164,195.433c0,0,6.517-3.641,10.955,0.943"/>
		<path style="fill:#263238;" d="M295.923,231.644c0,0-3.287,18.031-12.758,18.565c-9.471,0.534-7.471-8.326-7.471-8.326
			l-7.359-1.29c0,0-1.914,8.775-8.326,8.775c-6.412,0-16.586-14.8-18.695-32.502l-11.665-11.25c0,0,4.65,26.182,7.809,35.028
			c3.159,8.846,3.64,10.193,3.64,10.193s14.355,9.061,28.917,12.135c14.665-3.074,16.106-9.317,17.728-12.061
			C289.365,248.168,295.923,231.644,295.923,231.644z"/>
		<path style="fill:none;stroke:#FFFFFF;stroke-linecap:round;stroke-linejoin:round;stroke-miterlimit:10;" d="M223.257,163.321
			c0.057-2.17,1.382-4.168,3.132-5.452c1.75-1.284,3.884-1.939,6.016-2.345c7.437-1.419,15.079-0.066,22.605,0.769
			c7.525,0.835,15.502,1.071,22.269-2.325c5.322-2.671,9.493-7.551,11.304-13.224"/>
		<path style="fill:none;stroke:#FFFFFF;stroke-linecap:round;stroke-linejoin:round;stroke-miterlimit:10;" d="M233.052,165.549
			c1.066-0.931,2.366-1.562,3.705-2.019c5.436-1.855,11.42-0.928,16.962,0.58c5.543,1.507,10.995,3.586,16.723,4.018
			c3.699,0.278,7.415-0.141,11.079-0.72c6.241-0.986,12.515-2.477,17.98-5.648c5.465-3.171,10.083-8.226,11.553-14.372"/>
		<path style="fill:none;stroke:#FFFFFF;stroke-linecap:round;stroke-linejoin:round;stroke-miterlimit:10;" d="M227.212,168.777
			c-1.819-0.316-3.614,0.986-4.452,2.631c-0.838,1.645-0.928,3.559-0.958,5.405c-0.14,8.733,0.699,17.481,2.496,26.028"/>
		<path style="fill:#FFFFFF;stroke:#263238;stroke-linecap:round;stroke-linejoin:round;stroke-miterlimit:10;" d="M234.777,230.188
			c0,0-3.647,3.139-6.184,2.975c-2.167-0.141-10.008-10.869-12.248-13.995c-0.398-0.555-0.698-1.168-0.892-1.822l-2.116-7.105
			c-0.384-1.289-0.334-2.669,0.143-3.927l1.148-3.028c0.587-1.548,1.774-2.793,3.292-3.453l0,0c2.311-1.005,5.002-0.495,6.785,1.286
			l5.715,5.709"/>
		<path style="fill:none;stroke:#263238;stroke-linecap:round;stroke-linejoin:round;stroke-miterlimit:10;" d="M290.209,283.526
			l-2.587-10.735c0,0-15.941,9.898-26.787,9.086c-10.845-0.812-27.799-4.577-32.308-7.283l-1.315,11.949
			c0,0,14.011,11.272,31.786,10.822C276.774,296.914,290.209,283.526,290.209,283.526z"/>
		<path style="fill:none;stroke:#263238;stroke-linecap:round;stroke-linejoin:round;stroke-miterlimit:10;" d="M322.28,234.096
			c-9.694-19.29-25.902-30.917-25.902-30.917"/>
		<path style="fill:none;stroke:#263238;stroke-linecap:round;stroke-linejoin:round;stroke-miterlimit:10;" d="M227.212,286.543
			l-36.756,9.849c-2.466,0.661-4.872,1.501-7.213,2.521c-8.905,3.879-31.676,13.865-33.273,15.25
			c-0.596,0.517-0.835,1.247-0.877,2.016c-0.245,4.513-0.794,9.005-2.175,13.308l-29.971,93.385"/>
		<path style="fill:none;stroke:#263238;stroke-linecap:round;stroke-linejoin:round;stroke-miterlimit:10;" d="M398.42,422.872
			c-24.924-77.395-45.406-114.839-52.932-127.183c-1.868-3.064-4.555-5.535-7.762-7.145l-8.196-4.113
			c-2.426-1.217-5.084-1.906-7.796-2.018l-31.525-1.312"/>
		<path style="fill:none;stroke:#263238;stroke-linecap:round;stroke-linejoin:round;stroke-miterlimit:10;" d="M221.41,316.853
			c-2,3.595-3.84,7.262-5.265,10.746"/>
		<path style="fill:none;stroke:#263238;stroke-linecap:round;stroke-linejoin:round;stroke-miterlimit:10;" d="M237.365,292.558
			c0,0-7.34,9.6-13.924,20.755"/>
		<path style="fill:none;stroke:#263238;stroke-linecap:round;stroke-linejoin:round;stroke-miterlimit:10;" d="M241.821,294.391
			c0,0-5.191,14.589-7.044,27.002"/>
		<path style="fill:none;stroke:#263238;stroke-linecap:round;stroke-linejoin:round;stroke-miterlimit:10;" d="M292.597,310.079
			c1.309,2.595,2.469,5.311,3.326,8.047"/>
		<path style="fill:none;stroke:#263238;stroke-linecap:round;stroke-linejoin:round;stroke-miterlimit:10;" d="M279.698,291.196
			c0,0,5.604,6.206,10.513,14.528"/>
		<path style="fill:none;stroke:#263238;stroke-linecap:round;stroke-linejoin:round;stroke-miterlimit:10;" d="M273.035,294.391
			c0,0,5.34,15.569,5.318,23.735"/>
		<path style="opacity:0.3;" d="M383.224,422.876H116.949l18.326-57.095c0,0,12.544-39.591,13.365-44.383
			c0.832-4.803,1.327-7.236,1.327-7.236s31.175-15.324,37.252-16.788c6.067-1.454,39.991-10.827,39.991-10.827l1.316-11.954
			c0,0,16.809,7.183,30.838,7.299c9.384,0.074,18.874-4.034,24.108-6.751l0.874,8.068c-3.434,3.17-11.933,10.416-21.517,14.155
			c0.811-0.179,13.323-3.107,21.981-9.858l0.042,0.4c0,0,40.559,3.286,46.542,8.057C344.318,306.263,374.514,399.41,383.224,422.876
			z"/>
	</g>
</g>
<g id="Table">
	
		<line style="fill:none;stroke:#263238;stroke-linecap:round;stroke-linejoin:round;stroke-miterlimit:10;" x1="65.16" y1="422.872" x2="432.868" y2="422.872"/>
</g>
<g id="Mirror">
	<g>
		<g>
			<path style="fill:#C6FF00;stroke:#263238;stroke-linecap:round;stroke-linejoin:round;stroke-miterlimit:10;" d="
				M421.318,435.483c-4.257-3.569-8.088-5.88-10.666-11.075c-4.719-9.511-6.302-20.561-7.428-30.998
				c-3.107-28.807-7.908-8.755-7.908-8.755c0.273,6.535-0.147,13.175-0.982,19.653c-1.656,12.849-5.169,24.99-17.692,30.965
				c-0.792,0.378-1.096,1.061-1.096,1.629c0,2.964,10.432,5.366,23.3,5.366c12.868,0,23.3-2.402,23.3-5.366
				C422.146,436.41,421.857,435.935,421.318,435.483z"/>
			<path style="fill:none;stroke:#263238;stroke-linecap:round;stroke-linejoin:round;stroke-miterlimit:10;" d="M426.408,385.19
				c-4.982,22.865-24.013,38.126-42.497,34.093c-6.277-1.369-11.691-4.792-15.904-9.605l-0.011-0.01
				c-8.173-9.363-11.817-23.992-8.521-39.074c4.982-22.866,24.013-38.127,42.497-34.093c8.047,1.748,14.661,6.867,19.147,13.976
				c0,0.011,0,0.011,0.011,0.011C426.967,359.713,429.231,372.289,426.408,385.19z"/>
			<path style="fill:#C6FF00;stroke:#263238;stroke-linecap:round;stroke-linejoin:round;stroke-miterlimit:10;" d="
				M433.932,386.432c-5.86,26.755-28.249,44.612-49.993,39.892c-7.384-1.602-13.753-5.607-18.709-11.239l-0.012-0.012
				c-9.614-10.956-13.901-28.073-10.023-45.721c5.86-26.755,28.249-44.612,49.993-39.892c9.466,2.046,17.246,8.035,22.525,16.353
				c0,0.012,0,0.012,0.012,0.012C434.589,356.621,437.253,371.336,433.932,386.432z"/>
			<path style="opacity:0.5;fill:#FFFFFF;" d="M382.651,342.897c0,0-16.582,12.908-19.931,32.067
				c-3.349,19.159,1.319,35.68,15.611,42.473c14.292,6.793,28.423,0.159,38.433-11.69c10.009-11.849,13.018-31.484,8.767-45.649
				C420.707,344.02,400.539,331.888,382.651,342.897z"/>
			<path style="fill:none;stroke:#263238;stroke-linecap:round;stroke-linejoin:round;stroke-miterlimit:10;" d="M426.408,385.19
				c-4.982,22.865-24.013,38.126-42.497,34.093c-6.277-1.369-11.691-4.792-15.904-9.605l-0.011-0.01
				c-5.835-9.226-8.099-21.802-5.277-34.704c4.992-22.865,24.014-38.127,42.497-34.093c6.277,1.369,11.691,4.792,15.904,9.605
				c0,0.011,0,0.011,0.011,0.011C426.967,359.713,429.231,372.289,426.408,385.19z"/>
			<path style="fill:#263238;" d="M366.076,407.066c0,0-7.974-14.704-2.857-34.181s19.92-30.371,27.957-31.514
				c8.037-1.143,22.023-1.665,31.849,11.226c0,0-8.255-17.267-28.46-16.7s-29.197,18.138-34.22,31.286
				C355.322,380.329,360.992,399.911,366.076,407.066z"/>
			
				<line style="fill:none;stroke:#263238;stroke-linecap:round;stroke-linejoin:round;stroke-miterlimit:10;" x1="378.331" y1="373.3" x2="392.619" y2="359.012"/>
			
				<line style="fill:none;stroke:#263238;stroke-linecap:round;stroke-linejoin:round;stroke-miterlimit:10;" x1="380.277" y1="389.443" x2="394.564" y2="375.156"/>
			
				<line style="fill:none;stroke:#263238;stroke-linecap:round;stroke-linejoin:round;stroke-miterlimit:10;" x1="380.277" y1="378.618" x2="407.034" y2="351.86"/>
			<path style="fill:#C6FF00;stroke:#263238;stroke-linecap:round;stroke-linejoin:round;stroke-miterlimit:10;" d="
				M397.199,438.352c6.293,0.068,13.825-0.337,20.904-1.965"/>
			<path style="fill:#C6FF00;stroke:#263238;stroke-linecap:round;stroke-linejoin:round;stroke-miterlimit:10;" d="
				M382.651,437.335c0,0,2.986,0.448,7.618,0.751"/>
		</g>
		<g>
			<g>
				<path style="fill:#263238;" d="M290.324,450.091c0,0-0.053-8.107-6.58-9.966c-10.86-3.092-27.036-2.267-37.734,0.405
					c-4.777,1.193-8.811,7.286-11.457,1.975c-2.646-5.311-1.697-8.594,5.179-13.138c6.877-4.544,14.125-1.163,20.28-0.716
					c16.629,1.209,33.667,1.6,50.366,1.367c14.421-0.201,36.813-1.174,44.587,6.526c2.018,1.999-7.333,19.369-8.02,19.542
					c-0.687,0.173,2.595-14.922,1.618-15.222c-15.683-4.826-35.626-6.224-53.538-4.907c0,0-2.582,15.414-3.393,15.382
					C290.821,451.307,290.324,450.091,290.324,450.091z"/>
				<path style="fill:none;stroke:#263238;stroke-linecap:round;stroke-linejoin:round;stroke-miterlimit:10;" d="M298.018,449.482
					c2.328-9.178,0.584-9.37,2.813-14.758"/>
				<path style="fill:none;stroke:#263238;stroke-linecap:round;stroke-linejoin:round;stroke-miterlimit:10;" d="M300.001,449.414
					c2.104-8.688,0.361-9.275,2.806-14.413"/>
				<path style="fill:none;stroke:#263238;stroke-linecap:round;stroke-linejoin:round;stroke-miterlimit:10;" d="M295.928,449.613
					c2.533-9.602,0.722-9.477,2.77-15.04"/>
				<path style="fill:none;stroke:#263238;stroke-linecap:round;stroke-linejoin:round;stroke-miterlimit:10;" d="M293.996,449.791
					c2.626-9.676,0.564-9.525,2.6-14.919"/>
				<path style="fill:none;stroke:#263238;stroke-linecap:round;stroke-linejoin:round;stroke-miterlimit:10;" d="M302.744,449.396
					c1.871-8.36,0.437-9.349,3.057-14.513"/>
				<path style="fill:none;stroke:#263238;stroke-linecap:round;stroke-linejoin:round;stroke-miterlimit:10;" d="M304.389,449.421
					c1.768-8.336,0.762-9.48,3.372-14.878"/>
				<path style="fill:none;stroke:#263238;stroke-linecap:round;stroke-linejoin:round;stroke-miterlimit:10;" d="M306.871,449.508
					c1.526-7.901,0.643-9.571,3.519-14.807"/>
				<path style="fill:none;stroke:#263238;stroke-linecap:round;stroke-linejoin:round;stroke-miterlimit:10;" d="M309.052,449.609
					c1.341-7.651,0.73-9.708,3.743-14.953"/>
				<path style="fill:none;stroke:#263238;stroke-linecap:round;stroke-linejoin:round;stroke-miterlimit:10;" d="M311.141,449.735
					c1.156-7.331,0.598-9.819,3.831-14.929"/>
				<path style="fill:none;stroke:#263238;stroke-linecap:round;stroke-linejoin:round;stroke-miterlimit:10;" d="M313.545,449.892
					c0.97-7.03,0.5-9.961,3.943-14.969"/>
				<path style="fill:none;stroke:#263238;stroke-linecap:round;stroke-linejoin:round;stroke-miterlimit:10;" d="M315.845,450.053
					c0.814-6.777,0.367-10.09,3.996-14.997"/>
				<path style="fill:none;stroke:#263238;stroke-linecap:round;stroke-linejoin:round;stroke-miterlimit:10;" d="M318.046,450.212
					c0.705-6.73,0.535-10.281,4.207-15.296"/>
				<path style="fill:none;stroke:#263238;stroke-linecap:round;stroke-linejoin:round;stroke-miterlimit:10;" d="M320.533,450.384
					c0.602-6.609,0.434-10.416,4.223-15.393"/>
				<path style="fill:none;stroke:#263238;stroke-linecap:round;stroke-linejoin:round;stroke-miterlimit:10;" d="M322.483,450.507
					c0.55-6.604,0.437-10.529,4.239-15.521"/>
				<path style="fill:none;stroke:#263238;stroke-linecap:round;stroke-linejoin:round;stroke-miterlimit:10;" d="M324.356,450.619
					c0.537-6.564,0.229-10.564,4.12-15.418"/>
				<path style="fill:none;stroke:#263238;stroke-linecap:round;stroke-linejoin:round;stroke-miterlimit:10;" d="M326.675,450.78
					c0.54-6.615,0.201-10.637,4.125-15.426"/>
				<path style="fill:none;stroke:#263238;stroke-linecap:round;stroke-linejoin:round;stroke-miterlimit:10;" d="M328.432,450.937
					c0.527-6.519-0.099-10.613,3.905-15.17"/>
				<path style="fill:none;stroke:#263238;stroke-linecap:round;stroke-linejoin:round;stroke-miterlimit:10;" d="M330.709,451.185
					c0.531-6.583-0.128-10.697,3.905-15.16"/>
				<path style="fill:none;stroke:#263238;stroke-linecap:round;stroke-linejoin:round;stroke-miterlimit:10;" d="M333.092,451.498
					c0.53-6.602-0.236-10.757,3.81-15.066"/>
				<path style="fill:none;stroke:#263238;stroke-linecap:round;stroke-linejoin:round;stroke-miterlimit:10;" d="M334.82,451.772
					c0.528-6.591-0.326-10.786,3.689-14.979"/>
				<path style="fill:none;stroke:#263238;stroke-linecap:round;stroke-linejoin:round;stroke-miterlimit:10;" d="M336.79,452.147
					c0.513-6.426-0.432-10.606,3.303-14.673"/>
				<path style="fill:none;stroke:#263238;stroke-linecap:round;stroke-linejoin:round;stroke-miterlimit:10;" d="M338.822,452.596
					c0.522-6.524-0.37-10.752,3.302-14.829"/>
				<path style="fill:none;stroke:#263238;stroke-linecap:round;stroke-linejoin:round;stroke-miterlimit:10;" d="M340.944,453.163
					c0.534-6.656-0.298-10.974,3.311-15.105"/>
				<path style="fill:none;stroke:#263238;stroke-linecap:round;stroke-linejoin:round;stroke-miterlimit:10;" d="M343.148,454.285
					c0.557-6.901,0.727-10.003,3.47-15.627"/>
				<path style="fill:none;stroke:#263238;stroke-linecap:round;stroke-linejoin:round;stroke-miterlimit:10;" d="M345.382,455.148
					c1.336-6.705,0.649-11.146,3.159-15.71"/>
			</g>
		</g>
	</g>
</g>
</svg>
