<?xml version="1.0" encoding="utf-8"?>
<!-- Generator: Adobe Illustrator 27.5.0, SVG Export Plug-In . SVG Version: 6.00 Build 0)  -->
<svg version="1.1" xmlns="http://www.w3.org/2000/svg" xmlns:xlink="http://www.w3.org/1999/xlink" x="0px" y="0px"
	 viewBox="0 0 500 500" style="enable-background:new 0 0 500 500;" xml:space="preserve">
<g id="Background_Simple">
	<g>
		<path style="fill:#92E3A9;" d="M480.318,202.243c11.613-10.927,9.194-32.501,7.168-46.649
			c-2.621-18.307-9.529-36.023-21.061-50.56c-5.405-6.813-12.117-12.117-19.477-16.535c-41.41-24.852-90.162-36.551-137.862-41.069
			c-32.738-3.101-58.006-0.612-87.819,13.035c0,0-91.748,32.5-143.254,74.262c-51.506,41.762-45.276,55.977-19.506,39.821
			c-14.187,13.516-34.766,30.944-40.353,50.663C6.323,266.974,52.957,448.637,133.696,468.822
			c80.74,20.185,268.668-4.872,313.91-60.555c45.242-55.682,34.801-165.655,13.921-208.113
			C440.646,157.697,468.485,213.377,480.318,202.243z"/>
		<path style="opacity:0.7;fill:#FFFFFF;" d="M480.318,202.243c11.613-10.927,9.194-32.501,7.168-46.649
			c-2.621-18.307-9.529-36.023-21.061-50.56c-5.405-6.813-12.117-12.117-19.477-16.535c-41.41-24.852-90.162-36.551-137.862-41.069
			c-32.738-3.101-58.006-0.612-87.819,13.035c0,0-91.748,32.5-143.254,74.262c-51.506,41.762-45.276,55.977-19.506,39.821
			c-14.187,13.516-34.766,30.944-40.353,50.663C6.323,266.974,52.957,448.637,133.696,468.822
			c80.74,20.185,268.668-4.872,313.91-60.555c45.242-55.682,34.801-165.655,13.921-208.113
			C440.646,157.697,468.485,213.377,480.318,202.243z"/>
	</g>
</g>
<g id="Floor">
	<line style="fill:none;stroke:#263238;stroke-miterlimit:10;" x1="16.729" y1="442.907" x2="492.306" y2="442.907"/>
</g>
<g id="Lamps">
	<g>
		<g>
			<polygon style="fill:none;stroke:#263238;stroke-miterlimit:10;" points="23.309,26.97 6.179,40.925 53.625,40.925 36.496,26.97 
							"/>
			<path style="fill:none;stroke:#263238;stroke-miterlimit:10;" d="M21.123,41.053c1.348,3.541,4.765,6.062,8.779,6.062
				c4.014,0,7.431-2.521,8.779-6.062H21.123z"/>
		</g>
		<g>
			<polygon style="fill:none;stroke:#263238;stroke-miterlimit:10;" points="242.147,26.97 225.018,40.925 272.463,40.925 
				255.334,26.97 			"/>
			<path style="fill:none;stroke:#263238;stroke-miterlimit:10;" d="M239.961,41.053c1.348,3.541,4.765,6.062,8.779,6.062
				c4.014,0,7.431-2.521,8.779-6.062H239.961z"/>
		</g>
		<g>
			<polygon style="fill:none;stroke:#263238;stroke-miterlimit:10;" points="460.985,26.97 443.856,40.925 491.301,40.925 
				474.172,26.97 			"/>
			<path style="fill:none;stroke:#263238;stroke-miterlimit:10;" d="M458.8,41.053c1.348,3.541,4.765,6.062,8.779,6.062
				c4.014,0,7.431-2.521,8.779-6.062H458.8z"/>
		</g>
	</g>
</g>
<g id="Mirrors">
	<g>
		<g>
			<rect x="53.037" y="68.943" style="fill:none;stroke:#263238;stroke-miterlimit:10;" width="147.996" height="190.651"/>
			<rect x="57.872" y="75.172" style="fill:none;stroke:#263238;stroke-miterlimit:10;" width="138.325" height="178.193"/>
		</g>
		<line style="fill:none;stroke:#263238;stroke-miterlimit:10;" x1="137.779" y1="76.765" x2="61.23" y2="153.314"/>
		<line style="fill:none;stroke:#263238;stroke-miterlimit:10;" x1="100.847" y1="125.112" x2="74.324" y2="151.635"/>
		<line style="fill:none;stroke:#263238;stroke-miterlimit:10;" x1="64.587" y1="241.949" x2="95.811" y2="210.725"/>
	</g>
	<g>
		<g>
			<rect x="290.07" y="68.943" style="fill:none;stroke:#263238;stroke-miterlimit:10;" width="147.996" height="190.651"/>
			<rect x="294.905" y="75.172" style="fill:none;stroke:#263238;stroke-miterlimit:10;" width="138.325" height="178.193"/>
		</g>
		<line style="fill:none;stroke:#263238;stroke-miterlimit:10;" x1="398.313" y1="78.779" x2="304.977" y2="172.115"/>
		<line style="fill:none;stroke:#263238;stroke-miterlimit:10;" x1="357.353" y1="139.213" x2="335.53" y2="161.036"/>
	</g>
</g>
<g id="Table">
	<g>
		<line style="fill:none;stroke:#263238;stroke-miterlimit:10;" x1="12.212" y1="263.212" x2="490.977" y2="263.212"/>
		<line style="fill:none;stroke:#263238;stroke-miterlimit:10;" x1="12.212" y1="272.327" x2="490.977" y2="272.327"/>
		<g>
			<rect x="22.665" y="272.432" style="fill:none;stroke:#263238;stroke-miterlimit:10;" width="71.083" height="27.345"/>
			<rect x="46.846" y="283.794" style="fill:none;stroke:#263238;stroke-miterlimit:10;" width="22.721" height="4.621"/>
		</g>
		<g>
			<rect x="214.21" y="272.432" style="fill:none;stroke:#263238;stroke-miterlimit:10;" width="71.083" height="27.345"/>
			<rect x="238.391" y="283.794" style="fill:none;stroke:#263238;stroke-miterlimit:10;" width="22.721" height="4.621"/>
		</g>
		<g>
			<rect x="405.756" y="272.432" style="fill:none;stroke:#263238;stroke-miterlimit:10;" width="71.083" height="27.345"/>
			<rect x="429.937" y="283.794" style="fill:none;stroke:#263238;stroke-miterlimit:10;" width="22.721" height="4.621"/>
		</g>
	</g>
</g>
<g id="Character_1">
	<g>
		<g>
			<path style="fill:#FFFFFF;stroke:#263238;stroke-miterlimit:10;" d="M152.27,271.656c0,0,2.709-0.194,2.903,1.742
				c0.194,1.935-3.484,5.032-5.613,4.258C147.432,276.882,152.27,271.656,152.27,271.656z"/>
			<path style="fill:#FFFFFF;stroke:#263238;stroke-miterlimit:10;" d="M151.509,266.914c0,0,2.799-0.2,2.999,1.799
				c0.2,1.999-3.598,5.198-5.797,4.398S151.509,266.914,151.509,266.914z"/>
			<path style="fill:#FFFFFF;stroke:#263238;stroke-miterlimit:10;" d="M149.439,263.71c0,0,2.799-0.2,2.999,1.799
				c0.2,1.999-3.598,5.198-5.797,4.398C144.442,269.107,149.439,263.71,149.439,263.71z"/>
			<path style="fill:#FFFFFF;stroke:#263238;stroke-miterlimit:10;" d="M153.475,276.391c0,0,1.469,1.335,1.135,2.203
				c-0.334,0.868-4.006,3.272-4.74,3.205c-0.734-0.067-0.801-1.202-0.267-1.869c0.534-0.668,1.736-2.203,1.736-2.203
				L153.475,276.391z"/>
		</g>
		<path style="fill:#263238;stroke:#263238;stroke-miterlimit:10;" d="M93.503,273.75c0,0-8.196,15.793-6.797,31.985
			c1.399,16.193,10.995,52.576,10.995,57.774c0,5.198-0.999,17.192-0.999,17.192s-2.341,7.315-1.542,17.91
			c0.8,10.595,6.928,27.926,7.328,28.526c0.4,0.6-2.188,9.139-1.788,9.738c0.4,0.6,1.199,6.397,1.199,6.397l0.4,2.399l12.594-1
			c0,0,0.803-6.252,1.203-7.852c0.4-1.599,1-3.598,0.4-5.997c-0.6-2.399-0.523-3.228-0.923-6.826
			c-0.4-3.598,2.519-52.891,2.519-52.891l5.398-55.575c0,0,11.195,23.389,15.193,34.784c3.998,11.395,9.596,21.59,9.596,21.59
			s-1.399,8.939-0.436,19.141c1.003,10.623,1.279,26.882,2.079,29.881c0.8,2.999,0.201,13.284,0.201,13.284
			s-7.797,10.395-7.597,11.595c0.2,1.199,8.596,6.797,11.595,8.596c2.999,1.799,12.394,7.996,18.392,8.196
			c5.997,0.2,3.199-3.998,2.199-4.798c-1-0.8-6.197-6.997-7.796-9.196c-1.599-2.199-5.797-12.994-5.797-15.993
			c0-2.999,8.162-34.819,8.812-54.298c0.26-7.795-1.66-14.406-1.66-14.406s-2.399-22.99-7.397-41.381
			c-4.998-18.392-10.395-26.588-10.395-26.588l-3.598-12.394v-9.196l-50.577-7.397L93.503,273.75z"/>
		<path style="fill:#92E3A9;stroke:#263238;stroke-miterlimit:10;" d="M108.713,198.483c0,0-10.458,16.048-11.36,21.277
			c-0.901,5.229,1.983,29.932,1.803,32.275c-0.18,2.344-7.393,24.703-7.393,24.703s20.195,9.737,31.915,11.179
			c11.72,1.442,17.13,1.262,17.13,1.262l2.164-9.016l1.803,8.475l8.294-3.606c0,0-2.885-12.982-2.524-15.867
			c0.361-2.885,2.705-19.113,2.885-23.08c0.18-3.967,1.983-17.851,0.18-23.08c-1.803-5.229-9.737-21.817-10.278-22.899
			c-0.541-1.082-9.917-7.753-12.982-9.556C127.285,188.747,114.123,188.747,108.713,198.483z"/>
		<g>
			<path style="fill:#FFFFFF;stroke:#263238;stroke-miterlimit:10;" d="M127.105,201.909c0,0,0,1.623,5.77,7.032
				c5.77,5.409,14.244,9.556,14.244,9.556l-6.491-18.211l-13.523-4.147V201.909z"/>
			<g>
				<polygon style="fill:#FFFFFF;stroke:#263238;stroke-miterlimit:10;" points="139.186,206.597 140.628,200.286 140.448,193.074 
					133.596,190.55 				"/>
				<polygon style="fill:#FFFFFF;stroke:#263238;stroke-miterlimit:10;" points="140.448,193.074 146.037,202.63 140.628,200.286 
									"/>
				<path style="fill:#FFFFFF;stroke:#263238;stroke-miterlimit:10;" d="M136.12,186.222c0,0,1.082,9.376,1.082,10.638
					c0,1.262,1.983,9.737,1.983,9.737l-4.508-3.786l-1.262-5.049l-11.72-7.573l-1.803-17.851L136.12,186.222z"/>
				<polygon style="fill:#FFFFFF;stroke:#263238;stroke-miterlimit:10;" points="133.416,197.762 130.891,205.696 115.926,195.418 
					121.696,190.189 				"/>
			</g>
		</g>
		<g>
			<path style="fill:#263238;stroke:#263238;stroke-miterlimit:10;" d="M146.644,146.218c0,0,6.019,4.844,6.606,7.34
				c0.587,2.495-6.312,6.899-6.312,6.899l-5.578-10.863L146.644,146.218z"/>
			<g>
				<path style="fill:#FFFFFF;stroke:#263238;stroke-miterlimit:10;" d="M145.616,147.833c0,0,2.202,6.899,2.496,11.89
					c0.293,4.991,1.761,7.34,1.908,11.45c0.147,4.11-1.908,9.835-4.257,12.918c-2.349,3.083-5.285,4.697-8.514,4.551
					c-3.229-0.147-11.89-6.165-13.065-7.487c-1.174-1.321-4.257-5.725-4.257-5.725l-1.468-13.505l24.661-15.707L145.616,147.833z"/>
				<path style="fill:none;stroke:#263238;stroke-miterlimit:10;" d="M133.872,176.605c0,0,3.23,3.083,7.633,1.908"/>
				<path style="fill:#263238;" d="M133.799,166.916c0,1.135-0.559,2.055-1.248,2.055c-0.689,0-1.248-0.92-1.248-2.055
					c0-1.135,0.559-2.055,1.248-2.055C133.24,164.861,133.799,165.781,133.799,166.916z"/>
				<ellipse style="fill:#263238;" cx="144.212" cy="164.799" rx="1.018" ry="1.676"/>
				<path style="fill:none;stroke:#263238;stroke-miterlimit:10;" d="M146.35,171.907c0,0-1.615,2.055-3.67,2.495"/>
				<path style="fill:none;stroke:#263238;stroke-miterlimit:10;" d="M143.194,164.799c0,0-2.128-4.929,3.45-6.544"/>
				<path style="fill:none;stroke:#263238;stroke-miterlimit:10;" d="M136.074,161.485c0,0-3.523-1.321-6.899,1.321"/>
			</g>
			<path style="fill:#263238;stroke:#263238;stroke-miterlimit:10;" d="M121.248,165.155c0,0,23.047-14.68,25.102-16.147
				c2.055-1.468,2.495-4.257,2.202-5.138c-0.294-0.881-20.111-10.129-25.983-9.542c-5.872,0.587-19.67,12.331-20.258,17.762
				c-0.587,5.431-1.034,15.968-1.034,15.968l-4.691,27.19c0,0,4.991,2.936,14.386,4.551c9.395,1.615,16.001-1.321,16.001-1.321
				s-2.495-4.404-3.67-7.927C122.129,187.027,121.248,165.155,121.248,165.155z"/>
		</g>
		<g>
			<path style="fill:#263238;stroke:#263238;stroke-miterlimit:10;" d="M179.123,202.913c0,0,13.122,17.456,13.242,17.817
				c0.12,0.361-0.241,1.204,0.241,1.083c0.481-0.12,5.538-5.779,5.899-6.26c0.361-0.482-0.12-1.083-0.843-0.843
				c-0.722,0.241-1.565,0.482-1.565,0.482l-4.936-6.019l-5.538-11.918L179.123,202.913z"/>
			<g>
				<path style="fill:#263238;stroke:#263238;stroke-miterlimit:10;" d="M206.268,182.422l3.21-1.644l-3.628-7.084l-3.21,1.644
					c-7.466,3.824-15.63,5.921-23.965,6.859c-2.387,0.269-4.926,1.024-7.398,2.289c-7.556,3.87-11.612,11.046-9.06,16.028
					c2.552,4.982,10.745,5.883,18.301,2.013c2.471-1.266,4.567-2.885,6.181-4.666C192.33,191.646,198.802,186.247,206.268,182.422z"
					/>
				<polygon style="fill:none;stroke:#263238;stroke-miterlimit:10;" points="214.202,179.359 209.784,170.734 205.849,173.694 
					209.5,180.822 				"/>
			</g>
		</g>
		<g>
			<path style="fill:#92E3A9;stroke:#263238;stroke-miterlimit:10;" d="M115.448,445.801c0,0-1.147-6.117-3.059-6.755
				c-1.912-0.637-9.049,0.255-9.176,1.529c-0.127,1.275-1.784,5.48-2.039,6.372c-0.255,0.892-2.931,9.049-3.568,11.343
				c-0.637,2.294,0.382,4.716,2.422,5.098c2.039,0.382,17.205,0,17.205,0s1.657,0,1.274-3.059
				c-0.382-3.059-2.931-9.941-2.931-10.705C115.575,448.86,115.448,445.801,115.448,445.801z"/>
			<path style="fill:#FFFFFF;stroke:#263238;stroke-miterlimit:10;" d="M100.027,463.389c2.039,0.382,17.205,0,17.205,0
				s1.555-0.009,1.297-2.804H97.519C97.794,461.991,98.681,463.136,100.027,463.389z"/>
		</g>
		<g>
			<path style="fill:#92E3A9;stroke:#263238;stroke-miterlimit:10;" d="M174.71,457.801c-1-0.8-6.197-6.997-7.796-9.196
				c-1.48-2.035-5.177-11.416-5.723-15.184l-0.882-0.364c0,0-0.51-0.765-1.657,0.51c-1.147,1.274-2.294,3.696-2.294,3.696
				l-6.407-2.822c-1.132,1.52-7.608,10.271-7.426,11.366c0.2,1.199,8.596,6.797,11.595,8.596c2.999,1.799,12.394,7.996,18.392,8.196
				C178.508,462.798,175.71,458.6,174.71,457.801z"/>
			<path style="fill:#FFFFFF;stroke:#263238;stroke-miterlimit:10;" d="M155.211,451.919c-4.127-3.47-9.279-6.727-11.718-8.208
				c-0.623,1.032-1.015,1.816-0.969,2.096c0.2,1.199,8.596,6.797,11.595,8.596c2.999,1.799,12.394,7.996,18.392,8.196
				c2.509,0.084,3.467-0.605,3.673-1.49C170.555,460.287,160.025,455.967,155.211,451.919z"/>
		</g>
		<g>
			<path style="fill:#FFFFFF;stroke:#263238;stroke-miterlimit:10;" d="M142.251,235.988c0,0-16.769-26.145-21.096-28.489
				c-4.327-2.344-11.179-0.541-13.884,6.311c-2.705,6.852-0.721,11.9,1.983,15.507c2.705,3.606,29.571,29.932,29.571,29.932
				s3.065-0.541,4.147-1.442c1.082-0.902,43.455-40.57,43.455-40.57s8.114-3.426,9.015-4.327c0.902-0.901,1.983-2.524,1.983-2.524
				s-1.623-3.246-2.164-4.147c-0.541-0.902-1.082-3.606-1.803-4.508c-0.721-0.902-1.623-2.164-1.623-2.164s-0.18-2.344-1.442-2.164
				c-1.262,0.18-5.049,3.606-5.95,4.147c-0.902,0.541-5.95,3.786-5.95,5.049c0,1.262,0.18,4.327,0.18,5.59
				c0,1.262-9.556,8.655-16.949,12.622C154.332,228.775,142.251,235.988,142.251,235.988z"/>
			<path style="fill:#FFFFFF;stroke:#263238;stroke-miterlimit:10;" d="M107.812,208.761c0,0-3.606,5.95-3.065,12.081
				c0.541,6.131,12.081,21.818,12.081,21.818l18.572-20.195c0,0-8.655-12.441-12.802-15.687
				C118.45,203.532,109.615,206.237,107.812,208.761z"/>
		</g>
	</g>
</g>
<g id="Chair">
	<g>
		<rect x="264.068" y="373.055" style="fill:#263238;stroke:#263238;stroke-miterlimit:10;" width="5.663" height="16.99"/>
		<path style="fill:#263238;stroke:#263238;stroke-miterlimit:10;" d="M197.322,366.987c0,0,5.259,5.866,19.417,8.9
			c14.158,3.034,31.957-0.809,31.957-0.809s-1.011,4.045-2.832,11.731c-1.82,7.686-9.102,36.407-9.506,37.216
			c-0.405,0.809-1.011,2.225-1.011,2.225l-51.172-9.506C184.175,416.743,189.838,382.965,197.322,366.987z"/>
		<path style="fill:#263238;stroke:#263238;stroke-miterlimit:10;" d="M192.67,291.948c0,0,2.427,3.236,1.82,6.675
			c-0.607,3.438-7.281,16.99-6.068,19.619c1.214,2.629,3.438,5.259,3.843,7.686c0.405,2.427-2.832,27.912-3.843,30.744
			c-1.011,2.832,2.225,3.034,2.629,4.45c0.404,1.416-8.293,28.721-10.315,38.834c-2.023,10.113-3.236,23.058-3.236,23.058
			l7.281-0.202c0,0,6.472-35.8,10.113-45.711s7.281-15.776,6.675-16.788c-0.607-1.011-2.832-2.832-2.832-3.843
			c0-1.011,3.034-7.484,3.236-11.731c0.202-4.247-1.618-12.945-2.023-15.979c-0.405-3.034,0.809-5.663-0.405-7.888
			c-1.214-2.225-3.843-4.854-3.843-6.877c0-2.023,5.461-14.967,6.675-16.585c1.214-1.618,3.641-3.236,3.641-3.236L192.67,291.948z"
			/>
		<path style="fill:#263238;stroke:#263238;stroke-miterlimit:10;" d="M241.415,295.993c0,0,4.45,3.438,6.27,7.484
			c1.82,4.045,3.034,11.731,4.045,14.361c1.011,2.629,2.427,2.832,2.629,6.068c0.202,3.236-5.056,13.349-5.056,13.349l9.708,0.405
			c0,0,2.629-11.933,2.832-14.158c0.202-2.225,0.202-2.225,0.202-2.225s2.427-3.843,6.675-4.854c4.247-1.011,8.9-0.607,8.9-0.607
			l-3.843-16.788c0,0-7.888,6.472-12.743,7.484c-4.854,1.011-7.484-1.214-7.888-4.45c-0.405-3.236,2.023-6.27,2.023-6.27
			L241.415,295.993z"/>
		<path style="fill:#92E3A9;stroke:#263238;stroke-miterlimit:10;" d="M319.69,220.954c0,0-15.372,1.011-16.99,2.225
			c-1.618,1.214-5.057,14.361-3.843,15.776c1.214,1.416,7.079,3.843,7.079,3.843s-16.585,9.304-24.271,20.631
			c-7.686,11.327-9.506,28.317-9.708,41.666c-0.202,13.349,14.158,22.047,23.058,25.89c8.9,3.843,20.024,3.034,26.698,0
			c6.675-3.034,11.731-6.675,12.945-7.281c1.214-0.607,4.045-2.225,6.877-9.911c2.832-7.686,7.484-29.126,3.438-44.093
			c-4.045-14.967-13.754-22.046-15.979-23.462c-2.225-1.416-4.045-2.225-4.045-2.225s8.9,0.809,9.506-0.607
			c0.607-1.416,4.247-13.754,2.427-16.383C335.062,224.393,325.353,220.347,319.69,220.954z"/>
		<path style="fill:none;stroke:#263238;stroke-miterlimit:10;" d="M320.081,328.919c-4.836,2.453-8.583,2.59-10.556,2.949"/>
		<path style="fill:none;stroke:#263238;stroke-miterlimit:10;" d="M332.854,256.092c2.595,3.528,5.087,8.048,6.826,13.725
			c5.884,19.201,0,41.173-9.568,51.322c-1.825,1.936-3.587,3.502-5.266,4.774"/>
		<path style="fill:none;stroke:#263238;stroke-miterlimit:10;" d="M321.123,245.461c0,0,4.44,2.171,9.233,7.548"/>
		<path style="fill:none;stroke:#263238;stroke-miterlimit:10;" d="M327.506,233.492c-1.596,5.636-1.909,7.312-4.175,7.486
			c-2.629,0.202-19.619-0.607-19.619-0.607"/>
		<path style="fill:none;stroke:#263238;stroke-miterlimit:10;" d="M325.556,222.977c0,0,4.026-0.465,3.407,4.839"/>
		<path style="fill:none;stroke:#263238;stroke-miterlimit:10;" d="M308.161,242.596c0,0,10.518-1.011,14.563,0.607"/>
		<g>
			<path style="fill:#92E3A9;stroke:#263238;stroke-miterlimit:10;" d="M203.39,352.424c0,0-0.405-8.9,10.315-12.945
				c10.72-4.045,69.376-1.82,84.343,0.202c14.967,2.023,24.878,7.686,27.103,11.124c2.225,3.438,0.607,9.506,0.607,9.506
				l-61.285,3.034l-56.229-7.079L203.39,352.424z"/>
			<g>
				<path style="fill:none;stroke:#263238;stroke-miterlimit:10;" d="M315.621,351.668c2.371-0.203,4.785-0.424,7.242-0.663"/>
				<path style="fill:none;stroke:#263238;stroke-miterlimit:10;" d="M208.331,346.655c0,0,30.411,10.824,101.194,5.503"/>
			</g>
		</g>
		<path style="fill:#263238;stroke:#263238;stroke-miterlimit:10;" d="M317.465,360.11c0,0-47.734,1.011-57.847,0.809
			c-10.113-0.202-45.711-5.057-49.756-6.27c-4.045-1.214-6.472-2.225-6.472-2.225v15.574c0,0,13.551,4.247,41.868,7.484
			c28.317,3.236,36.003,2.427,38.227,2.427c2.225,0,49.554-2.427,50.363-3.034c0.809-0.607,0.404-14.967,0.404-14.967
			L317.465,360.11z"/>
		<path style="fill:#263238;stroke:#263238;stroke-miterlimit:10;" d="M283.081,298.622c0,0-6.877,24.069-8.697,26.092
			c-1.82,2.023-8.899,4.652-9.102,6.675c-0.202,2.023-2.427,29.126-2.427,29.126s-1.214,3.236-2.427,4.45
			c-1.214,1.214-4.045,2.427-4.045,2.427s12.136-0.809,13.551-1.416c1.416-0.607,4.45-7.281,5.057-12.54s-1.618-19.619-0.607-22.451
			c1.011-2.832,6.068-4.45,7.079-7.888c1.011-3.439,7.281-21.237,7.281-21.237l3.034-3.034L283.081,298.622z"/>
		<path style="fill:#263238;stroke:#263238;stroke-miterlimit:10;" d="M277.417,353.739c0,2.178-1.766,3.944-3.944,3.944
			s-3.944-1.766-3.944-3.944c0-2.178,1.766-3.944,3.944-3.944S277.417,351.56,277.417,353.739z"/>
		<path style="fill:#263238;stroke:#263238;stroke-miterlimit:10;" d="M327.376,299.431c0,0,6.472,10.518,7.686,15.372
			c1.214,4.854-4.652,12.136-6.877,14.563c-2.225,2.427-5.461,14.158-4.045,15.574c1.416,1.416,3.843,1.82,3.843,1.82
			s0.404,3.843-2.427,7.484c-2.832,3.641-7.888,4.854-8.091,5.866c-0.202,1.011,14.563,0,14.563,0s1.618,0,2.225-2.427
			c0.607-2.427,0.405-8.899,0.405-8.899s-0.405-4.247-0.405-7.281c0-3.034,1.416-9.102,3.034-11.124
			c1.618-2.023,7.484-7.484,7.686-13.147c0.202-5.663-3.034-11.124-3.438-12.945c-0.404-1.82,2.225-5.056,2.225-5.056
			L327.376,299.431z"/>
		<circle style="fill:#263238;stroke:#263238;stroke-miterlimit:10;" cx="332.938" cy="344.536" r="3.337"/>
		<polygon style="fill:#828282;stroke:#263238;stroke-miterlimit:10;" points="140.284,424.227 179.118,421.193 237.167,431.306 
			190.445,443.037 		"/>
		<polygon style="fill:#263238;stroke:#263238;stroke-miterlimit:10;" points="229.481,432.317 190.647,434.947 190.445,443.037 
			236.358,440.61 237.167,431.306 		"/>
		<path style="fill:#263238;stroke:#263238;stroke-miterlimit:10;" d="M256.382,367.391c0,0-3.034,1.214-3.843,3.438
			c-0.809,2.225-0.809,2.225-0.809,2.225s-2.832-0.607-3.438,0.405s-10.518,32.766-12.54,43.486
			c-2.023,10.72-3.034,15.372-3.034,15.372s-5.663-0.607-5.866,0.809c-0.202,1.416-2.023,4.045,1.011,5.259
			c3.034,1.214,9.102,1.011,10.72-0.405c1.618-1.416,2.832-12.742,3.438-16.181c0.607-3.438,10.518-26.901,13.956-35.193
			c3.439-8.293,6.27-13.956,8.495-16.181c2.225-2.225,3.641-4.247,3.641-4.247L256.382,367.391z"/>
		<g>
			<path style="fill:#92E3A9;stroke:#263238;stroke-miterlimit:10;" d="M274.586,297.611c0,0,3.439,2.023,6.068,2.225
				c2.629,0.202,63.914,2.427,64.926,1.618c1.011-0.809,2.023-3.236,1.011-5.461c-1.011-2.225-10.922-5.866-15.372-6.27
				c-4.45-0.404-47.531-1.618-52.183-0.202c-4.652,1.416-5.461,3.034-5.461,4.854C273.574,296.195,274.586,297.611,274.586,297.611z
				"/>
			<path style="fill:#263238;stroke:#263238;stroke-miterlimit:10;" d="M280.654,299.836c2.629,0.202,63.914,2.427,64.926,1.618
				c0.83-0.664,1.641-2.419,1.353-4.256c-18.124-0.872-58.957-2.823-61.627-2.823c-3.439,0-11.731,0-11.731,0
				c0,1.82,1.011,3.236,1.011,3.236S278.024,299.634,280.654,299.836z"/>
		</g>
		<g>
			<path style="fill:#92E3A9;stroke:#263238;stroke-miterlimit:10;" d="M199.547,285.071c0,0-9.506,0.607-10.72,2.023
				c-1.214,1.416-0.607,6.068,0.404,6.472c1.011,0.404,66.139,4.045,67.96,3.438c1.82-0.607,2.427-1.416,2.427-3.034
				s0-3.236-2.629-4.652C254.36,287.903,208.649,283.251,199.547,285.071z"/>
			<path style="fill:#263238;stroke:#263238;stroke-miterlimit:10;" d="M189.231,293.566c1.011,0.404,66.14,4.045,67.96,3.438
				c1.82-0.607,2.427-1.416,2.427-3.034c0-0.392-0.001-0.785-0.038-1.175l-71.415-3.356
				C188.09,291.239,188.573,293.302,189.231,293.566z"/>
		</g>
		<g>
			<path style="fill:#92E3A9;stroke:#263238;stroke-miterlimit:10;" d="M193.277,382.156c0,0-4.854,18.001-5.865,22.653
				c-1.011,4.652-0.202,4.854,0.607,4.854c0.809,0,41.261,8.495,41.868,7.281c0.607-1.214,6.877-27.508,6.877-27.508
				S213.503,384.381,193.277,382.156z"/>
			<g>
				<path style="fill:none;stroke:#263238;stroke-miterlimit:10;" d="M232.003,394.833c-1.695,3.663-4.146,10.497-3.955,19.092"/>
				<path style="fill:none;stroke:#263238;stroke-miterlimit:10;" d="M233.557,391.888c0,0-0.389,0.604-0.961,1.725"/>
			</g>
		</g>
		<polygon style="fill:#263238;stroke:#263238;stroke-miterlimit:10;" points="190.647,434.947 140.284,424.227 139.88,431.913 
			190.445,443.037 		"/>
		<path style="fill:#263238;stroke:#263238;stroke-miterlimit:10;" d="M163.747,412.496c0,0,3.438,2.629,4.045,3.641
			c0.607,1.011,3.843,16.788,5.461,17.597c1.618,0.809,10.113,1.416,10.113,1.416v5.663c0,0-10.518,0-13.147-2.629
			s-4.652-5.866-5.259-8.293c-0.607-2.427-2.629-10.72-2.629-10.72l-3.641-1.618L163.747,412.496z"/>
		<path style="fill:#263238;stroke:#263238;stroke-miterlimit:10;" d="M122.485,422.811c0,0,6.27,5.865,8.697,7.079
			c2.427,1.214,8.495,0,8.495,0l0.202-4.248L122.485,422.811z"/>
		<g>
			<path style="fill:#263238;stroke:#263238;stroke-miterlimit:10;" d="M172.646,395.506l3.034,6.068l-28.721,27.103
				c0,0-34.789-8.293-35.8-9.102c-1.011-0.809-2.023-4.247-2.023-4.247L172.646,395.506z"/>
			<path style="fill:#92E3A9;stroke:#263238;stroke-miterlimit:10;" d="M172.646,395.506c0,0-24.83,26.907-27.585,28.219
				c-2.754,1.311-4.777,0.503-4.777,0.503s-28.317-6.472-30.137-7.484c-1.82-1.011-2.832-2.225-2.427-3.641
				c0.404-1.416,16.585-21.035,23.26-24.271c6.675-3.236,11.124-2.225,11.124-2.225s29.935,5.663,30.744,7.079
				C173.657,395.101,172.646,395.506,172.646,395.506z"/>
			<g>
				<path style="fill:none;stroke:#263238;stroke-miterlimit:10;" d="M164.858,399.075c1.416-1.118,2.864-2.172,4.329-3.127"/>
				<path style="fill:none;stroke:#263238;stroke-miterlimit:10;" d="M143.961,421.464c0,0,8.195-11.592,18.61-20.506"/>
			</g>
		</g>
		<polygon style="fill:#263238;stroke:#263238;stroke-miterlimit:10;" points="252.539,394.09 314.229,380.741 313.622,376.291 
			254.966,388.831 		"/>
		<ellipse style="fill:#263238;stroke:#263238;stroke-miterlimit:10;" cx="267.984" cy="454.768" rx="69.534" ry="11.565"/>
		<ellipse style="fill:#263238;stroke:#263238;stroke-miterlimit:10;" cx="266.394" cy="452.424" rx="65.229" ry="9.221"/>
		<path style="fill:#263238;stroke:#263238;stroke-miterlimit:10;" d="M278.429,389.236h-17.835c-1.756,0-3.281,1.199-3.686,2.907
			c-2.508,10.554-11.08,46.309-12.458,47.86c-1.618,1.82-8.495,1.82-12.136,4.45c-3.641,2.629,0.202,7.079,17.394,9.304
			c17.192,2.225,39.846,2.023,48.947-0.809c9.102-2.832,8.293-6.27,6.472-8.293c-1.82-2.023-10.113-2.832-12.742-4.45
			c-2.629-1.618-11.124-47.127-11.529-48.947C280.451,389.438,278.429,389.236,278.429,389.236z"/>
		<path style="fill:none;stroke:#263238;stroke-width:2;stroke-miterlimit:10;" d="M287.126,431.913c0,0,15.372-18.81,17.597-21.035
			c2.225-2.225,8.697-7.888,8.09-9.708c-0.607-1.82-16.383-5.866-22.046-5.866c-5.663,0-8.899,0.405-8.899,0.405"/>
	</g>
</g>
<g id="Character_2">
	<g>
		<path style="fill:none;stroke:#263238;stroke-miterlimit:10;" d="M370.971,150.354c0,0-1.967-1.64-2.787,0.492
			c-0.82,2.131,0.164,5.738,1.475,7.706c1.312,1.967,3.935,4.263,3.935,4.263L370.971,150.354z"/>
		<g>
			<path style="fill:#92E3A9;stroke:#263238;stroke-miterlimit:10;" d="M414.104,437.28c0,0,1.677,7.074,3.009,8.85
				c1.332,1.777,8.883,11.992,8.883,14.212s-8.883,4.219-14.656,2.665c-5.774-1.555-6.884-5.33-11.548-7.55
				c-4.663-2.221-7.106-3.775-7.106-7.328s2.665-12.214,2.665-12.214s4.219-4.663,11.103-5.108
				C413.339,430.363,414.104,437.28,414.104,437.28z"/>
			<path style="fill:#FFFFFF;stroke:#263238;stroke-miterlimit:10;" d="M425.996,460.342c0-0.355-0.209-0.931-0.539-1.628
				c-2.65,2.242-9.987,4.495-14.34,2.516c-4.885-2.221-8.439-6.218-12.214-9.771c-1.998-1.881-4.364-3.383-6.154-4.385
				c-0.038,0.381-0.064,0.743-0.064,1.054c0,3.553,2.443,5.108,7.106,7.328c4.663,2.221,5.774,5.996,11.548,7.55
				C417.114,464.561,425.996,462.563,425.996,460.342z"/>
		</g>
		<path style="fill:#263238;stroke:#263238;stroke-miterlimit:10;" d="M356.982,281.085l-0.298,17.553
			c0,0-4.165,65.751-1.487,67.536c2.678,1.785,21.124,3.868,22.314,2.083c1.19-1.785,12.198-46.412,12.198-46.412
			s0.892,63.371,1.488,66.643c0.595,3.273,3.57,33.619,3.57,33.619s-3.868,1.487-2.38,5.058c1.488,3.57,2.38,10.71,2.38,10.71
			s3.273,2.083,5.95-0.297c2.678-2.38,5.355-4.76,7.735-4.165s5.653,3.868,5.653,3.868s2.678-4.463,2.975-6.545
			c0.298-2.083-1.487-5.653-1.19-8.33c0.298-2.678,0.298-11.008,0.298-11.008l2.083-54.148l4.463-63.073l-0.595-10.413
			L356.982,281.085z"/>
		<path style="fill:none;stroke:#858585;stroke-miterlimit:10;" d="M376.022,300.125c0,0,9.223,8.926,11.901,14.281"/>
		<line style="fill:none;stroke:#858585;stroke-miterlimit:10;" x1="370.965" y1="297.745" x2="379.295" y2="306.968"/>
		<g>
			<g>
				<path style="fill:#92E3A9;stroke:#263238;stroke-miterlimit:10;" d="M427.462,424.815c0,0-0.222,13.99-0.222,15.989
					c0,1.999-1.332,6.44-3.109,9.549c-1.777,3.109-1.777,3.775,0.444,4.885c2.221,1.11,9.549,1.999,13.102-0.888
					c3.553-2.887,4.663-5.552,4.885-7.994c0.222-2.443,3.553-13.546,4.441-14.879c0.888-1.332,5.996-7.772,5.108-11.992
					c-0.888-4.219-1.777-6.218-2.665-6.884c-0.888-0.666-10.659-1.999-10.659-1.999s-5.108,8.439-7.106,10.215
					C429.683,422.595,427.462,424.815,427.462,424.815z"/>
				<path style="fill:#FFFFFF;stroke:#263238;stroke-miterlimit:10;" d="M449.447,412.602c-0.043-0.032-0.113-0.067-0.195-0.102
					c-0.195,1.718-0.694,3.436-1.137,5.209c-0.888,3.553-5.108,17.987-6.218,23.317c-1.11,5.33-3.331,11.547-8.661,12.88
					c-3.231,0.808-7.432-0.261-10.247-1.228c-0.406,1.254,0.075,1.805,1.586,2.561c2.221,1.11,9.549,1.999,13.102-0.888
					c3.553-2.887,4.664-5.552,4.885-7.994c0.222-2.443,3.553-13.546,4.441-14.879c0.888-1.332,5.996-7.772,5.108-11.992
					C451.223,415.266,450.335,413.268,449.447,412.602z"/>
			</g>
			<path style="fill:#263238;stroke:#263238;stroke-miterlimit:10;" d="M354.46,360.514c0,0-1.907,4.93,3.15,11.772
				c5.058,6.843,62.204,48.005,62.204,48.005s-1.19,2.975-0.298,3.868c0.893,0.892,9.818,3.57,9.818,3.57s10.711-2.38,11.901-7.735
				c1.19-5.355-2.38-11.306-2.38-11.306s-2.678-1.785-3.868-2.083c-1.19-0.298-36.594-30.941-36.594-30.941l-19.622-21.108"/>
		</g>
		<path style="fill:#FFFFFF;stroke:#263238;stroke-miterlimit:10;" d="M446.247,215.739c0,0,4.366,8.836,7.15,15.702
			c2.784,6.867,5.367,11.713,4.625,12.641c-0.742,0.928-20.867,33.826-20.867,33.826s0.742,5.011,0,5.939
			c-0.742,0.928-4.454,2.969-4.454,2.969s1.856-0.186,1.856,0.928c0,1.113-0.742,1.485-1.67,1.856
			c-0.928,0.371-8.165,1.856-8.165,1.856s-4.825-10.392-4.825-11.135c0-0.742,12.991-10.949,12.991-10.949l6.638-27.14
			l-10.72-15.729L446.247,215.739z"/>
		<path style="fill:#92E3A9;stroke:#263238;stroke-miterlimit:10;" d="M371.954,186.259l-19.797,6.283l3.34,90.934l31.734,17.63
			l5.939-9.836l2.969,9.465l28.579-15.96c0,0-0.557-8.908-0.557-9.65c0-0.742-1.113-2.969-1.485-3.712
			c-0.371-0.742,0.928-42.498,0.928-42.498l0.928-34.889l-16.182-5.8L371.954,186.259z"/>
		<polygon style="fill:#FFFFFF;stroke:#263238;stroke-miterlimit:10;" points="373.922,188.882 391.628,227.41 406.056,191.505 		
			"/>
		<polygon style="fill:#FFFFFF;stroke:#263238;stroke-miterlimit:10;" points="387.366,192.161 383.103,201.506 371.954,186.259 
			375.07,179.537 384.579,178.389 403.925,180.029 408.351,188.226 400.318,201.834 390.809,191.341 		"/>
		<polygon style="fill:#FFFFFF;stroke:#263238;stroke-miterlimit:10;" points="377.201,171.175 377.693,182.488 390.809,198.391 
			400.81,183.472 400.318,169.536 		"/>
		<g>
			<path style="fill:#FFFFFF;stroke:#263238;stroke-miterlimit:10;" d="M403.395,150.093c0,0,1.498-2.077,2.822-0.217
				c1.324,1.861,1.268,5.599,0.487,7.831c-0.781,2.232-2.751,5.107-2.751,5.107L403.395,150.093z"/>
			<path style="fill:#FFFFFF;stroke:#263238;stroke-miterlimit:10;" d="M391.301,126.909c0,0-7.706-0.82-12.132,1.148
				c-4.427,1.967-9.673,4.263-10.165,8.034c-0.492,3.771,1.967,14.264,1.967,14.264s1.148,8.853,2.623,12.46
				c1.476,3.607,1.148,6.722,2.459,8.853c1.312,2.131,8.361,7.378,11.149,8.198c2.787,0.82,5.246-0.492,6.558-1.148
				c1.312-0.656,7.214-6.066,8.525-7.87c1.312-1.803,1.312-6.722,1.64-7.706c0.328-0.984,1.475-6.23,0.82-8.853
				c-0.656-2.623-0.656-5.902-0.82-6.886c-0.164-0.984,0.656-10.493-0.164-13.444c-0.82-2.951-3.115-4.263-5.41-5.246
				C396.055,127.729,391.301,126.909,391.301,126.909z"/>
			<path style="fill:#263238;stroke:#263238;stroke-miterlimit:10;" d="M403.761,133.959c-0.82-2.951-3.115-4.263-5.41-5.246
				c-2.295-0.984-7.05-1.803-7.05-1.803s-7.706-0.82-12.132,1.148c-4.427,1.967-9.673,4.263-10.165,8.034
				c-0.492,3.771,1.967,14.264,1.967,14.264s0.143,1.098,0.39,2.666l0.266,0.121l0.984-3.935c0,0,3.115-1.967,3.115-3.607
				s-2.295-6.394-0.984-7.87c1.312-1.476,7.378-0.656,9.181,0.328c1.803,0.984,4.755,1.967,7.214,1.312
				c2.459-0.656,6.722-5.738,9.345-4.099c2.623,1.64-0.492,9.509,0,10.493c0.492,0.984,2.623,6.394,2.623,6.394l1.206-0.345
				c-0.233-1.918-0.272-3.724-0.386-4.41C403.761,146.419,404.581,136.91,403.761,133.959z"/>
			<path style="fill:#263238;" d="M383.759,154.289c0,1.087-0.477,1.967-1.066,1.967c-0.589,0-1.066-0.881-1.066-1.967
				c0-1.087,0.477-1.967,1.066-1.967C383.282,152.321,383.759,153.202,383.759,154.289z"/>
			<ellipse style="fill:#263238;" cx="393.76" cy="154.289" rx="1.066" ry="1.967"/>
			<path style="fill:none;stroke:#263238;stroke-width:2;stroke-miterlimit:10;" d="M377.201,150.682c0,0,2.623-2.459,6.722-1.476"
				/>
			<path style="fill:none;stroke:#263238;stroke-width:2;stroke-miterlimit:10;" d="M391.792,148.878c0,0,3.935-1.476,6.558,1.476"
				/>
			<path style="fill:#263238;stroke:#263238;stroke-miterlimit:10;" d="M398.186,166.585c0,0-6.722-4.427-10.657-4.263
				c-3.935,0.164-9.017,3.607-9.017,3.607s0,0-2.623-3.443c-2.623-3.443-4.099-7.87-4.099-7.87l-0.126,0.241
				c0.475,2.742,1.156,6.067,1.929,7.957c1.475,3.607,1.148,6.722,2.459,8.853c1.312,2.131,8.361,7.378,11.149,8.197
				c2.787,0.82,5.246-0.492,6.558-1.148c1.312-0.656,7.214-6.066,8.525-7.87c1.312-1.803,1.312-6.722,1.64-7.706
				c0.328-0.984,1.475-6.23,0.82-8.853c0,0-0.492,2.295-1.476,5.574C402.285,163.142,398.186,166.585,398.186,166.585z"/>
			<path style="fill:#FFFFFF;stroke:#263238;stroke-miterlimit:10;" d="M385.234,159.699c0,0-0.82,3.279-0.328,3.935
				c0.492,0.656,2.951,2.131,4.099,1.476c1.148-0.656,2.131-1.803,2.459-2.951c0.328-1.148-0.656-2.951-0.656-2.951"/>
			<path style="fill:none;stroke:#858585;stroke-miterlimit:10;" d="M382.939,167.405c0,0,2.951,1.639,5.41,1.639
				c2.459,0,5.246-1.476,5.246-1.476"/>
		</g>
		<g>
			<g>
				<path style="fill:#FFFFFF;stroke:#263238;stroke-miterlimit:10;" d="M340.837,214.997c0,0-7.318,30.715-7.689,34.241
					c-0.371,3.526,0.928,4.639,2.041,5.011c1.114,0.371,47.589,10.113,47.589,10.113s-0.186,7.609,1.485,9.279
					c1.67,1.67,5.753,5.382,5.753,5.382l0.185,3.155l-2.969-0.742c0,0-2.598-2.598-2.598-0.928c0,1.67,3.34,4.268,3.34,4.268
					s5.011,2.227,5.753,1.299c0.742-0.928,3.155-2.969,4.454-4.639c1.299-1.67,0.371-4.268,0-6.124
					c-0.371-1.856-3.897-12.063-5.939-13.918c-2.041-1.856-3.155-2.413-3.155-2.413l-34.637-17.594l4.944-16.738L340.837,214.997z"
					/>
				<line style="fill:none;stroke:#263238;stroke-miterlimit:10;" x1="354.451" y1="241.385" x2="347.306" y2="241.596"/>
			</g>
			<g>
				<path style="fill:#FFFFFF;stroke:#263238;stroke-miterlimit:10;" d="M359.395,224.647l-19.115-10.949
					c0,0,2.969-13.733,6.681-19.486c3.712-5.753,15.774-4.454,15.774-4.454S367.004,212.399,359.395,224.647z"/>
				<polygon style="fill:#FFFFFF;stroke:#263238;stroke-miterlimit:10;" points="339.538,210.543 338.425,216.482 359.024,226.874 
					361.436,223.534 				"/>
			</g>
		</g>
		<path style="fill:#FFFFFF;stroke:#263238;stroke-miterlimit:10;" d="M424.534,194.026c0,0,5.753,0.742,9.65,5.011
			c3.897,4.268,12.063,17.259,12.063,16.702s-20.785,12.063-20.785,12.063l-1.485-2.784L424.534,194.026z"/>
		<polygon style="fill:#FFFFFF;stroke:#263238;stroke-miterlimit:10;" points="423.977,225.018 446.432,211.656 449.03,215.739 
			425.647,229.101 		"/>
	</g>
</g>
</svg>
